<?xml version="1.0" encoding="iso-8859-1"?>
<!-- Generator: Adobe Illustrator 25.4.8, SVG Export Plug-In . SVG Version: 6.00 Build 0)  -->
<!DOCTYPE svg PUBLIC "-//W3C//DTD SVG 1.1//EN" "http://www.w3.org/Graphics/SVG/1.1/DTD/svg11.dtd" [
	<!ENTITY ns_extend "http://ns.adobe.com/Extensibility/1.0/">
	<!ENTITY ns_ai "http://ns.adobe.com/AdobeIllustrator/10.0/">
	<!ENTITY ns_graphs "http://ns.adobe.com/Graphs/1.0/">
	<!ENTITY ns_vars "http://ns.adobe.com/Variables/1.0/">
	<!ENTITY ns_imrep "http://ns.adobe.com/ImageReplacement/1.0/">
	<!ENTITY ns_sfw "http://ns.adobe.com/SaveForWeb/1.0/">
	<!ENTITY ns_custom "http://ns.adobe.com/GenericCustomNamespace/1.0/">
	<!ENTITY ns_adobe_xpath "http://ns.adobe.com/XPath/1.0/">
]>
<svg version="1.1" id="Layer_1" xmlns:x="&ns_extend;" xmlns:i="&ns_ai;" xmlns:graph="&ns_graphs;"
	 xmlns="http://www.w3.org/2000/svg" xmlns:xlink="http://www.w3.org/1999/xlink" x="0px" y="0px" width="500px" height="137.298px"
	 viewBox="0 0 500 137.298" enable-background="new 0 0 500 137.298" xml:space="preserve">
<metadata>
	<sfw  xmlns="&ns_sfw;">
		<slices></slices>
		<sliceSourceBounds  bottomLeftOrigin="true" height="1173.064" width="4129.853" x="11.308" y="-1191.068"></sliceSourceBounds>
	</sfw>
</metadata>
<path d="M475.163,42.114c-25.302,4.855-52.184,0.052-73.857-13.964c-8.354-5.403-16.09,7.936-7.78,13.31
	c12.22,7.902,25.846,13.101,39.976,15.73c-20.135,5.191-40.972,7.685-61.757,7.379c-36.137-0.532-71.205-9.977-105.839-19.44
	c-60.717-16.588-128.242-33.44-188.884-7.034c-13.925,6.063-26.831,14.417-36.743,26.021c-9.062,10.609-18.554,23.488-20.106,37.754
	c-0.451,4.144,3.865,7.707,7.707,7.707c4.542,0,7.255-3.551,7.707-7.707c1.02-9.372,10.344-20.963,16.887-28.342
	c8.5-9.586,19.289-16.348,30.955-21.522c26.712-11.845,57.231-13.582,85.993-11.334c68.007,5.315,130.994,37.456,199.615,39.257
	c38.608,1.013,77.153-7.304,112.063-23.729C489.463,52.266,483.218,40.568,475.163,42.114z"/>
</svg>
