<?xml version="1.0" encoding="iso-8859-1"?>
<!-- Generator: Adobe Illustrator 25.4.8, SVG Export Plug-In . SVG Version: 6.00 Build 0)  -->
<!DOCTYPE svg PUBLIC "-//W3C//DTD SVG 1.1//EN" "http://www.w3.org/Graphics/SVG/1.1/DTD/svg11.dtd" [
	<!ENTITY ns_extend "http://ns.adobe.com/Extensibility/1.0/">
	<!ENTITY ns_ai "http://ns.adobe.com/AdobeIllustrator/10.0/">
	<!ENTITY ns_graphs "http://ns.adobe.com/Graphs/1.0/">
	<!ENTITY ns_vars "http://ns.adobe.com/Variables/1.0/">
	<!ENTITY ns_imrep "http://ns.adobe.com/ImageReplacement/1.0/">
	<!ENTITY ns_sfw "http://ns.adobe.com/SaveForWeb/1.0/">
	<!ENTITY ns_custom "http://ns.adobe.com/GenericCustomNamespace/1.0/">
	<!ENTITY ns_adobe_xpath "http://ns.adobe.com/XPath/1.0/">
]>
<svg version="1.1" id="Layer_1" xmlns:x="&ns_extend;" xmlns:i="&ns_ai;" xmlns:graph="&ns_graphs;"
	 xmlns="http://www.w3.org/2000/svg" xmlns:xlink="http://www.w3.org/1999/xlink" x="0px" y="0px" width="500px" height="137.298px"
	 viewBox="0 0 500 137.298" enable-background="new 0 0 500 137.298" xml:space="preserve">
<metadata>
	<sfw  xmlns="&ns_sfw;">
		<slices></slices>
		<sliceSourceBounds  bottomLeftOrigin="true" height="1173.064" width="4129.853" x="11.308" y="-1191.068"></sliceSourceBounds>
	</sfw>
</metadata>
<path d="M492.412,56.78c-0.073-1.863-1.15-3.607-3.544-4.149c-92.23-20.871-187.069-9.208-278.819,8.241
	C161.213,70.16,112.736,81.337,63.75,89.839c-9.498,1.648-19.021,3.237-28.592,4.406c-3.215,0.393-6.492,0.816-9.774,1.066
	c6.39-3.228,13.214-5.787,19.777-8.393c17.381-6.902,34.74-13.854,51.978-21.108c11.191-4.709,22.362-9.483,33.365-14.621
	c6.873-3.209,14.973-6.289,20.764-11.355c2.054-1.797,3.68-4.109,2.894-7.008c-1.143-4.217-6.501-4.724-10.086-5.097
	c-10.796-1.121-22.091,1.568-32.542,3.985C98.915,34.63,86.464,38.251,73.8,40.974c-7.202,1.549-19.47,4.614-25.267,1.402
	c-0.846-0.469-1.19-0.9-1.245-1.047c-0.569-1.501-0.454-2.15-0.229-4.13c0.718-6.327-9.198-6.275-9.91,0
	c-2.712,23.896,32.741,14.935,45.135,12.005c12.653-2.992,25.16-6.607,37.893-9.261c5.203-1.084,10.456-2.044,15.767-2.388
	c-1.619,0.83-3.25,1.635-4.883,2.43c-10.524,5.124-21.28,9.777-32.048,14.359C80.779,62.103,62.393,69.5,43.968,76.79
	c-9.356,3.702-18.936,7.347-27.75,12.248c-4.165,2.316-11.164,6.576-8.043,12.367c2.318,4.299,8.531,4.085,12.703,3.981
	c7.994-0.199,15.993-1.384,23.895-2.52c40.968-5.889,81.432-15.047,121.962-23.32c88.842-18.134,180.421-35.578,271.333-25.453
	c-9.831,1.932-19.492,4.926-28.864,8.972c-5.839,2.521-0.798,11.062,5.002,8.557c22.577-9.749,47.853-12.702,72.073-8.515
	C490.427,63.825,492.997,59.848,492.412,56.78z M145.311,31.89c-0.001,0.036-0.031,0.084-0.073,0.136
	C145.296,31.777,145.318,31.556,145.311,31.89z M16.032,95.348c-0.023-0.001-0.066-0.007-0.099-0.01
	C16.196,95.348,16.64,95.376,16.032,95.348z M15.489,95.262c-0.003-0.001-0.005-0.002-0.008-0.002
	c-0.016-0.019-0.016-0.024-0.037-0.047C15.46,95.231,15.473,95.244,15.489,95.262z M15.159,95.15
	c-0.041-0.02-0.09-0.038-0.115-0.059C14.823,94.896,14.966,95.007,15.159,95.15z"/>
</svg>
