<?xml version="1.0" encoding="iso-8859-1"?>
<!-- Generator: Adobe Illustrator 25.4.8, SVG Export Plug-In . SVG Version: 6.00 Build 0)  -->
<!DOCTYPE svg PUBLIC "-//W3C//DTD SVG 1.1//EN" "http://www.w3.org/Graphics/SVG/1.1/DTD/svg11.dtd" [
	<!ENTITY ns_extend "http://ns.adobe.com/Extensibility/1.0/">
	<!ENTITY ns_ai "http://ns.adobe.com/AdobeIllustrator/10.0/">
	<!ENTITY ns_graphs "http://ns.adobe.com/Graphs/1.0/">
	<!ENTITY ns_vars "http://ns.adobe.com/Variables/1.0/">
	<!ENTITY ns_imrep "http://ns.adobe.com/ImageReplacement/1.0/">
	<!ENTITY ns_sfw "http://ns.adobe.com/SaveForWeb/1.0/">
	<!ENTITY ns_custom "http://ns.adobe.com/GenericCustomNamespace/1.0/">
	<!ENTITY ns_adobe_xpath "http://ns.adobe.com/XPath/1.0/">
]>
<svg version="1.1" id="Layer_1" xmlns:x="&ns_extend;" xmlns:i="&ns_ai;" xmlns:graph="&ns_graphs;"
	 xmlns="http://www.w3.org/2000/svg" xmlns:xlink="http://www.w3.org/1999/xlink" x="0px" y="0px" width="500px" height="137.298px"
	 viewBox="0 0 500 137.298" enable-background="new 0 0 500 137.298" xml:space="preserve">
<metadata>
	<sfw  xmlns="&ns_sfw;">
		<slices></slices>
		<sliceSourceBounds  bottomLeftOrigin="true" height="1173.064" width="4129.853" x="11.308" y="-1191.068"></sliceSourceBounds>
	</sfw>
</metadata>
<g>
	<path d="M129.013,80.318c0.011,0.009,0.022,0.019,0.033,0.028c-0.005-0.016-0.018-0.028-0.025-0.043
		C129.018,80.308,129.015,80.313,129.013,80.318z"/>
	<path d="M355.383,61.776c-3.46-12.135-13.534-19.749-24.926-23.917c-9.639-3.527-20.146-5.278-30.168-7.389
		c-10.586-2.23-21.23-4.201-31.941-5.731c-22.103-3.158-44.447-4.961-66.744-2.892c-19.078,1.77-37.34,5.916-54.931,13.469
		c-12.588,5.406-25.487,12.348-35.206,22.179c-12.035,12.175-15.895,30.586-2.074,43.274c8.034,7.375,19.38,12.468,30.044,14.325
		c13.684,2.383,27.067,0.444,40.633-1.814c2.452-0.408,4.543-1.682,6.193-3.436c29.591,1.941,59.312,1.259,88.848-2.366
		c11.951-1.466,23.863-3.251,35.686-5.535c10.446-2.018,22.342-3.452,31.739-8.773C353.687,86.857,358.898,74.104,355.383,61.776z
		 M328.587,68.686c0,0-0.001,0-0.001,0.001c0-0.009,0.001-0.023,0-0.03C328.587,68.668,328.586,68.675,328.587,68.686z
		 M128.354,81.438c0.008-0.011,0.015-0.026,0.023-0.037c0.004,0.103,0.009,0.208,0.013,0.293
		C128.039,82.103,127.789,82.238,128.354,81.438z M128.435,81.638c0.005-0.104,0.011-0.212,0.019-0.321
		c0.012,0.094,0.023,0.179,0.033,0.259C128.47,81.597,128.453,81.617,128.435,81.638z M128.488,81.579
		C128.668,83.008,128.549,82.305,128.488,81.579L128.488,81.579z M128.238,79.686c-0.004-0.027-0.006-0.046-0.01-0.074
		C128.232,79.639,128.235,79.66,128.238,79.686C128.238,79.687,128.238,79.687,128.238,79.686z M301.431,75.105
		c-8.727,1.649-17.504,3.09-26.32,4.171c-43.382,5.316-87.672,4.767-130.821-2.296c-5.389-0.882-10.85,0.523-14.312,4.299
		c-0.115-0.076-0.23-0.15-0.345-0.227c0.686,0.418,0.112-0.118-0.587-0.706c0.025,0.084,0.012,0.19-0.022,0.306
		c-0.039-0.027-0.077-0.049-0.116-0.076c0.044,0.03,0.075,0.05,0.116,0.078c-0.085,0.289-0.315,0.644-0.536,0.922
		c-0.008-0.099-0.016-0.198-0.021-0.292c0-0.008-0.001-0.018-0.002-0.027c0.193-0.3,0.377-0.624,0.548-0.939
		c-0.064-0.053-0.127-0.107-0.192-0.16c0.002,0,0.004-0.002,0.006-0.002c0.102,0.024,0.158,0.079,0.193,0.147
		c0.045-0.083,0.095-0.175,0.138-0.252c0.09-0.161,0.199-0.315,0.312-0.467c0.917-0.859,1.718-1.943,2.619-2.817
		c0.83-0.804,1.708-1.551,2.571-2.319c0.304-0.271,0.507-0.458,0.643-0.588c0.156-0.106,0.345-0.237,0.612-0.427
		c2.407-1.713,4.857-3.343,7.392-4.863c5.017-3.01,10.252-5.661,15.6-8.031c0.349-0.154,0.699-0.305,1.049-0.458
		c0.016-0.006,0.024-0.008,0.041-0.015c1.126-0.408,2.228-0.892,3.348-1.316c2.318-0.877,4.658-1.692,7.025-2.427
		c8.303-2.578,17.975-4.713,25.9-5.705c36.407-4.56,72.453,1.492,107.795,9.521c7.892,1.793,16.849,2.98,22.769,7.139
		c-0.026-0.018,0.597,0.658,0.691,0.802c0.062,0.095,0.258,0.486,0.46,0.89c-0.448,0.219-0.798,0.405-0.671,0.352
		C320.72,72.081,309.566,73.568,301.431,75.105z M328.405,70.237c0.008-0.027,0.016-0.045,0.024-0.077
		c0.012-0.045,0.027-0.134,0.042-0.243c0.065,0.117,0.078,0.119,0.009-0.061c0.031-0.229,0.063-0.531,0.084-0.783
		c0.012-0.008,0.02-0.014,0.031-0.022C328.61,70.04,328.502,70.306,328.405,70.237z"/>
</g>
</svg>
