<?xml version="1.0" encoding="iso-8859-1"?>
<!-- Generator: Adobe Illustrator 25.4.8, SVG Export Plug-In . SVG Version: 6.00 Build 0)  -->
<!DOCTYPE svg PUBLIC "-//W3C//DTD SVG 1.1//EN" "http://www.w3.org/Graphics/SVG/1.1/DTD/svg11.dtd" [
	<!ENTITY ns_extend "http://ns.adobe.com/Extensibility/1.0/">
	<!ENTITY ns_ai "http://ns.adobe.com/AdobeIllustrator/10.0/">
	<!ENTITY ns_graphs "http://ns.adobe.com/Graphs/1.0/">
	<!ENTITY ns_vars "http://ns.adobe.com/Variables/1.0/">
	<!ENTITY ns_imrep "http://ns.adobe.com/ImageReplacement/1.0/">
	<!ENTITY ns_sfw "http://ns.adobe.com/SaveForWeb/1.0/">
	<!ENTITY ns_custom "http://ns.adobe.com/GenericCustomNamespace/1.0/">
	<!ENTITY ns_adobe_xpath "http://ns.adobe.com/XPath/1.0/">
]>
<svg version="1.1" id="Layer_1" xmlns:x="&ns_extend;" xmlns:i="&ns_ai;" xmlns:graph="&ns_graphs;"
	 xmlns="http://www.w3.org/2000/svg" xmlns:xlink="http://www.w3.org/1999/xlink" x="0px" y="0px" width="500px" height="443.457px"
	 viewBox="0 0 500 443.457" enable-background="new 0 0 500 443.457" xml:space="preserve">
<metadata>
	<sfw  xmlns="&ns_sfw;">
		<slices></slices>
		<sliceSourceBounds  bottomLeftOrigin="true" height="1173.064" width="4129.853" x="11.308" y="-1191.068"></sliceSourceBounds>
	</sfw>
</metadata>
<g>
	<path d="M412.13,80.408c-45.784-34.8-105.185-43.632-161.08-46.79c-5.192-0.293-10.386-0.521-15.581-0.725
		c-0.751-4.53-4.768-8.86-10.609-7.762C123.564,44.165,45.36,148.377,56.96,251.215c8.197,72.667,52.365,133.469,120.663,160.508
		c62.04,24.561,135.38,19.135,194.286-11.531c64.356-33.503,104.671-97.491,108.158-169.854
		C482.832,172.962,458.115,115.36,412.13,80.408z M381.809,374.497c-50.777,33.439-116.308,43.848-175.105,28.66
		c-61.551-15.9-109.91-60.794-126.8-122.569c-25.053-91.63,27.034-193.401,115.089-228.979c2.995-1.21,6.024-2.323,9.078-3.356
		c1.091,0.57,2.377,0.923,3.873,0.957c53.099,1.217,109.187,2.787,158.644,24.401c50.736,22.173,85.448,66.738,94.466,121.444
		C472.501,264.51,440.211,336.037,381.809,374.497z"/>
	<path d="M281.436,273.969c-12.489-9.862-24.978-19.725-37.466-29.587c3.721-12.393,7.442-24.786,11.163-37.18
		c3.18-10.59-13.362-15.115-16.532-4.558c-3.034,10.104-6.068,20.207-9.101,30.311c-15.328-12.104-30.656-24.209-45.983-36.313
		c-8.568-6.766-20.781,5.286-12.123,12.123c17.614,13.909,35.227,27.819,52.841,41.728c-6.163,20.526-12.326,41.051-18.488,61.577
		c-3.179,10.59,13.362,15.115,16.532,4.558c5.475-18.236,10.95-36.472,16.426-54.708c10.203,8.057,20.406,16.114,30.609,24.172
		C277.881,292.858,290.093,280.806,281.436,273.969z"/>
	<path d="M416.172,208.713c-11.319-7.357-22.638-14.714-33.956-22.072c3.251-9.588,7.219-18.947,11.89-28.006
		c5.049-9.791-9.74-18.473-14.804-8.653c-4.553,8.83-8.471,17.876-11.782,27.106c-8.101-5.266-16.202-10.531-24.303-15.797
		c-9.278-6.031-17.881,8.806-8.653,14.804c9.209,5.986,18.418,11.972,27.627,17.958c-3.546,13.097-5.913,26.528-7.07,40.244
		c-0.927,10.994,16.223,10.932,17.145,0c0.869-10.309,2.54-20.486,4.964-30.469c10.097,6.563,20.193,13.126,30.29,19.688
		C416.796,229.548,425.399,214.711,416.172,208.713z"/>
</g>
</svg>
