<?xml version="1.0" encoding="iso-8859-1"?>
<!-- Generator: Adobe Illustrator 25.4.8, SVG Export Plug-In . SVG Version: 6.00 Build 0)  -->
<!DOCTYPE svg PUBLIC "-//W3C//DTD SVG 1.1//EN" "http://www.w3.org/Graphics/SVG/1.1/DTD/svg11.dtd" [
	<!ENTITY ns_extend "http://ns.adobe.com/Extensibility/1.0/">
	<!ENTITY ns_ai "http://ns.adobe.com/AdobeIllustrator/10.0/">
	<!ENTITY ns_graphs "http://ns.adobe.com/Graphs/1.0/">
	<!ENTITY ns_vars "http://ns.adobe.com/Variables/1.0/">
	<!ENTITY ns_imrep "http://ns.adobe.com/ImageReplacement/1.0/">
	<!ENTITY ns_sfw "http://ns.adobe.com/SaveForWeb/1.0/">
	<!ENTITY ns_custom "http://ns.adobe.com/GenericCustomNamespace/1.0/">
	<!ENTITY ns_adobe_xpath "http://ns.adobe.com/XPath/1.0/">
]>
<svg version="1.1" id="Layer_1" xmlns:x="&ns_extend;" xmlns:i="&ns_ai;" xmlns:graph="&ns_graphs;"
	 xmlns="http://www.w3.org/2000/svg" xmlns:xlink="http://www.w3.org/1999/xlink" x="0px" y="0px" width="500px" height="137.298px"
	 viewBox="0 0 500 137.298" enable-background="new 0 0 500 137.298" xml:space="preserve">
<metadata>
	<sfw  xmlns="&ns_sfw;">
		<slices></slices>
		<sliceSourceBounds  bottomLeftOrigin="true" height="1173.064" width="4129.853" x="11.308" y="-1191.068"></sliceSourceBounds>
	</sfw>
</metadata>
<g>
	<path d="M39.132,90.485C39.706,90.703,38.974,89.98,39.132,90.485L39.132,90.485z"/>
	<path d="M460.239,70.876c-87.177-7.906-175.1-6.932-262.071,3.03c-31.527,3.611-62.8,8.611-94.009,14.295
		c-18.144,3.304-39.217,7.411-56.979,4.869c-1.739-0.249-3.444-0.641-5.128-1.135c-1.592-0.467-1.114-0.503-2.91-1.426
		c0.023,0.068,0.05,0.142,0.108,0.255c-0.057-0.113-0.104-0.2-0.146-0.275c-0.05-0.026-0.097-0.05-0.151-0.077
		c0-0.001,0-0.001,0-0.002c0.061,0.03,0.094,0.04,0.139,0.058c-0.116-0.206-0.173-0.271-0.193-0.258
		c-0.006-0.02-0.009-0.034-0.015-0.056c0.006,0.022,0.007,0.038,0.011,0.058c-0.015,0.021-0.002,0.1,0.021,0.188
		c-0.011,0.251-0.202,0.132-0.023-0.831c-0.142,0.762-0.031-0.324,0.365-1.2c0.119-0.262,0.217-0.569,0.502-1.037
		c0.071,0.022,1.274-1.312,1.664-1.671c0.011-0.01,0.016-0.015,0.025-0.024c0.044-0.029,0.085-0.056,0.139-0.092
		c0.428-0.286,0.852-0.575,1.289-0.848c1.082-0.675,2.211-1.273,3.356-1.833c0.556-0.272,1.12-0.527,1.683-0.783
		c0.167-0.076,0.242-0.113,0.267-0.127c0.11-0.043,0.268-0.104,0.504-0.197c1.392-0.549,2.793-1.068,4.209-1.552
		c3.171-1.085,6.394-2.016,9.635-2.869c7.397-1.946,14.902-3.473,22.425-4.846c16.074-2.935,32.275-5.103,48.449-7.399
		c10.695-1.519,22.34-2.292,32.591-5.932c4.358-1.547,8.944-4.737,7.486-10.123c-1.221-4.511-6.272-6.153-10.263-7.254
		c-19.478-5.372-40.626-6.52-60.621-8.636c-8.81-0.932-17.626-1.808-26.445-2.657c-7.971-0.768-7.919,11.689,0,12.452
		c23.203,2.235,46.722,4.049,69.752,8.009c-6.507,1.029-13.088,1.752-19.491,2.655c-16.258,2.292-32.541,4.516-48.671,7.609
		c-13.22,2.534-27.399,5.221-39.361,11.702c-4.4,2.384-8.367,5.572-10.374,10.255c-3.192,7.447-0.983,15.159,6.364,19.011
		c7.764,4.07,17.654,4.029,26.182,3.786c10.711-0.306,21.391-1.664,31.978-3.258c24.897-3.751,49.547-8.865,74.499-12.383
		c86.404-12.181,174.161-15.268,261.22-9.515c10.674,0.705,21.337,1.553,31.99,2.519C468.216,84.051,468.167,71.595,460.239,70.876z
		"/>
	<path d="M39.142,90.508c-0.002-0.006-0.008-0.017-0.01-0.023c-0.012-0.005-0.027-0.011-0.04-0.017
		c0.004,0.008,0.008,0.013,0.012,0.021C39.116,90.495,39.129,90.502,39.142,90.508z"/>
	<path d="M483.191,71.111c-8.012,0-8.025,12.452,0,12.452C491.204,83.563,491.217,71.111,483.191,71.111z"/>
</g>
</svg>
