<?xml version="1.0" encoding="iso-8859-1"?>
<!-- Generator: Adobe Illustrator 25.4.8, SVG Export Plug-In . SVG Version: 6.00 Build 0)  -->
<!DOCTYPE svg PUBLIC "-//W3C//DTD SVG 1.1//EN" "http://www.w3.org/Graphics/SVG/1.1/DTD/svg11.dtd" [
	<!ENTITY ns_extend "http://ns.adobe.com/Extensibility/1.0/">
	<!ENTITY ns_ai "http://ns.adobe.com/AdobeIllustrator/10.0/">
	<!ENTITY ns_graphs "http://ns.adobe.com/Graphs/1.0/">
	<!ENTITY ns_vars "http://ns.adobe.com/Variables/1.0/">
	<!ENTITY ns_imrep "http://ns.adobe.com/ImageReplacement/1.0/">
	<!ENTITY ns_sfw "http://ns.adobe.com/SaveForWeb/1.0/">
	<!ENTITY ns_custom "http://ns.adobe.com/GenericCustomNamespace/1.0/">
	<!ENTITY ns_adobe_xpath "http://ns.adobe.com/XPath/1.0/">
]>
<svg version="1.1" id="Layer_1" xmlns:x="&ns_extend;" xmlns:i="&ns_ai;" xmlns:graph="&ns_graphs;"
	 xmlns="http://www.w3.org/2000/svg" xmlns:xlink="http://www.w3.org/1999/xlink" x="0px" y="0px" width="500px" height="137.298px"
	 viewBox="0 0 500 137.298" enable-background="new 0 0 500 137.298" xml:space="preserve">
<metadata>
	<sfw  xmlns="&ns_sfw;">
		<slices></slices>
		<sliceSourceBounds  bottomLeftOrigin="true" height="1173.064" width="4129.853" x="11.308" y="-1191.068"></sliceSourceBounds>
	</sfw>
</metadata>
<g>
	<path d="M458.959,73.736c-63.597-11.934-129.067-11.632-192.533,1.039c-8.687,1.734-17.319,3.714-25.894,5.918
		c3.757-5.866,6.146-12.351,5.937-19.327c-0.551-18.386-18.226-25.857-34.189-26.129c-20.221-0.345-40.995,2.633-61.017,5.192
		c-21.565,2.756-43.021,6.299-64.302,10.751c-23.759,4.97-47.272,11.055-70.484,18.151c-9.075,2.774-5.206,17.053,3.931,14.26
		c36.043-11.018,72.823-19.546,110.059-25.397c18.276-2.872,36.655-5.058,55.091-6.604c8.624-0.723,17.359-1.653,26.021-1.577
		c5.614,0.05,12.373,0.455,16.725,4.474c11.795,10.892-8.421,28.718-16.495,34.685c-6.249,4.618-2.932,16.251,5.698,13.515
		c59.491-18.862,122.199-26.233,184.448-21.641c17.818,1.314,35.515,3.655,53.073,6.95
		C464.329,89.742,468.315,75.492,458.959,73.736z"/>
	<path d="M481.558,79.323c-9.516,0-9.531,14.788,0,14.788C491.073,94.111,491.089,79.323,481.558,79.323z"/>
</g>
</svg>
