<?xml version="1.0" encoding="iso-8859-1"?>
<!-- Generator: Adobe Illustrator 25.4.8, SVG Export Plug-In . SVG Version: 6.00 Build 0)  -->
<!DOCTYPE svg PUBLIC "-//W3C//DTD SVG 1.1//EN" "http://www.w3.org/Graphics/SVG/1.1/DTD/svg11.dtd" [
	<!ENTITY ns_extend "http://ns.adobe.com/Extensibility/1.0/">
	<!ENTITY ns_ai "http://ns.adobe.com/AdobeIllustrator/10.0/">
	<!ENTITY ns_graphs "http://ns.adobe.com/Graphs/1.0/">
	<!ENTITY ns_vars "http://ns.adobe.com/Variables/1.0/">
	<!ENTITY ns_imrep "http://ns.adobe.com/ImageReplacement/1.0/">
	<!ENTITY ns_sfw "http://ns.adobe.com/SaveForWeb/1.0/">
	<!ENTITY ns_custom "http://ns.adobe.com/GenericCustomNamespace/1.0/">
	<!ENTITY ns_adobe_xpath "http://ns.adobe.com/XPath/1.0/">
]>
<svg version="1.1" id="Layer_1" xmlns:x="&ns_extend;" xmlns:i="&ns_ai;" xmlns:graph="&ns_graphs;"
	 xmlns="http://www.w3.org/2000/svg" xmlns:xlink="http://www.w3.org/1999/xlink" x="0px" y="0px" width="500px" height="137.298px"
	 viewBox="0 0 500 137.298" enable-background="new 0 0 500 137.298" xml:space="preserve">
<metadata>
	<sfw  xmlns="&ns_sfw;">
		<slices></slices>
		<sliceSourceBounds  bottomLeftOrigin="true" height="1173.064" width="4129.853" x="11.308" y="-1191.068"></sliceSourceBounds>
	</sfw>
</metadata>
<path d="M471.728,49.267c-13.882-4.943-28.722-6.665-43.174-9.166c-6.636-1.149-13.314-2.345-19.772-4.286
	c-2.36-0.709-4.404-1.379-6.323-2.389c-0.735-0.387-2.596-1.554-2.604-1.559c-0.383-0.241-0.727-0.719-0.821-0.86
	c-5.528-8.336-19.055-0.526-13.481,7.88c5.002,7.542,13.925,11.031,22.906,13.186c-11.728,0.737-23.461,1.034-35.246,1.011
	c-33.664-0.067-67.282-2.304-100.803-5.261C212.404,42.528,151.996,33.467,91.62,35.319c-26.988,0.828-54.665,4.029-79.807,14.395
	c-3.895,1.606-6.667,5.182-5.452,9.603c1.012,3.684,5.681,7.069,9.603,5.452c21.487-8.858,44.644-12.327,67.732-13.514
	c27.92-1.436,55.941,0.141,83.777,2.354c64.539,5.13,128.8,13.877,193.615,14.973c18.119,0.306,36.306,0.24,54.369-1.341
	c18-1.576,36.102-4.094,54.196-2.639C478.917,65.346,479.543,52.05,471.728,49.267z"/>
</svg>
