<?xml version="1.0" encoding="iso-8859-1"?>
<!-- Generator: Adobe Illustrator 25.4.8, SVG Export Plug-In . SVG Version: 6.00 Build 0)  -->
<!DOCTYPE svg PUBLIC "-//W3C//DTD SVG 1.1//EN" "http://www.w3.org/Graphics/SVG/1.1/DTD/svg11.dtd" [
	<!ENTITY ns_extend "http://ns.adobe.com/Extensibility/1.0/">
	<!ENTITY ns_ai "http://ns.adobe.com/AdobeIllustrator/10.0/">
	<!ENTITY ns_graphs "http://ns.adobe.com/Graphs/1.0/">
	<!ENTITY ns_vars "http://ns.adobe.com/Variables/1.0/">
	<!ENTITY ns_imrep "http://ns.adobe.com/ImageReplacement/1.0/">
	<!ENTITY ns_sfw "http://ns.adobe.com/SaveForWeb/1.0/">
	<!ENTITY ns_custom "http://ns.adobe.com/GenericCustomNamespace/1.0/">
	<!ENTITY ns_adobe_xpath "http://ns.adobe.com/XPath/1.0/">
]>
<svg version="1.1" id="Layer_1" xmlns:x="&ns_extend;" xmlns:i="&ns_ai;" xmlns:graph="&ns_graphs;"
	 xmlns="http://www.w3.org/2000/svg" xmlns:xlink="http://www.w3.org/1999/xlink" x="0px" y="0px" width="500px" height="443.457px"
	 viewBox="0 0 500 443.457" enable-background="new 0 0 500 443.457" xml:space="preserve">
<metadata>
	<sfw  xmlns="&ns_sfw;">
		<slices></slices>
		<sliceSourceBounds  bottomLeftOrigin="true" height="1173.064" width="4129.853" x="11.308" y="-1191.068"></sliceSourceBounds>
	</sfw>
</metadata>
<path d="M460.383,189.781c-2.461-28.007-26.275-45.826-49.729-57.006c-43.983-20.967-92.756-31.818-141.309-34.146
	c-49.096-2.354-99.547,4.159-145.26,22.724c-11.191,4.545-22.109,9.747-32.576,15.783c-10.197,5.881-20.539,12.874-26.93,23.021
	c-6.223,9.88-6.602,21.783-1.103,32.074c5.728,10.72,16.189,18.25,26.202,24.633c22.265,14.192,46.861,23.359,72.375,29.206
	c38.304,13.208,77.809,23.316,118.199,26.973c48.211,4.365,98.597-1.588,140.73-26.881
	C441.141,234.059,462.668,215.789,460.383,189.781z M373.113,154.954c15.244,4.941,37.131,13.656,46.423,28.544
	c-14.274-9.949-29.896-17.987-45.723-25.116c-7.598-3.422-15.293-6.626-23.062-9.643
	C358.291,150.519,365.757,152.569,373.113,154.954z M133.962,210.167c22.226,13.049,47.081,21.311,71.746,28.379
	c5.958,1.707,11.942,3.302,17.949,4.772c-27.021-4.462-53.415-12.037-78.19-23.804c-16.273-7.729-47.653-22.993-48.851-44.434
	C103.287,190.25,121.719,202.978,133.962,210.167z M398.972,232.082c-13,3.569-26.24,6.223-39.571,8.204
	c-3.05,0.453-6.105,0.864-9.164,1.246c-0.977-0.618-2.189-0.929-3.58-0.717c-57.783,8.789-116.396-2.335-170.781-22.241
	c-22.184-8.12-45.145-18.656-61.699-35.998c-8.687-9.1-15.228-22.735-2.924-32.037c9.922-7.501,24.403-10.222,36.374-12.36
	c27.451-4.901,55.773-3.818,83.489-2.406c15.981,0.814,31.991,1.476,47.948,2.698c3.127,0.24,6.26,0.503,9.395,0.782
	c38.414,9.605,76.556,23.346,110.812,43.159c6.828,3.949,13.479,8.202,19.814,12.905c1.723,1.279,3.425,1.152,4.733,0.282
	c0.302,2.791,0.193,5.742-0.403,8.865c-2.287,11.99-10.156,20.449-19.947,26.381C401.959,231.264,400.459,231.674,398.972,232.082z
	 M431.309,185.082c3.209,2.488,6.203,5.161,8.785,8.093c8.784,9.974,3.389,19.854-6.574,25.989c-2.3,1.416-4.708,2.675-7.186,3.822
	C433.597,211.877,436.255,197.649,431.309,185.082z M376.685,129.396c21.337,7.582,45.31,16.68,60.985,33.671
	c6.874,7.451,11.991,17.208,12.849,27.412c-6.134-9.488-17.347-16.069-26.431-22.036c-11.113-7.299-22.749-13.798-34.799-19.418
	c-46.774-21.813-98.098-29.455-149.289-31.207c-5.52-0.189-11.042-0.3-16.564-0.374c-19.291-1.732-38.642-1.738-57.66,0.696
	c24.128-6.044,49.04-9.167,73.765-9.888C285.984,106.9,332.869,113.827,376.685,129.396z M97.475,210.052
	c-9.821-6.021-21.127-13.237-26.099-24.119c-9.842-21.543,17.402-36.599,33.767-45.002c-0.013,0.01-0.026,0.019-0.039,0.029
	c-9.781,7.762-17.823,18.595-18.302,31.49c-0.501,13.512,7.877,25.18,17.769,33.537c9.876,8.344,21.098,15.244,32.957,21.05
	c-0.895,0.06-1.662,0.42-2.278,0.969c-1.743-0.622-3.481-1.259-5.213-1.923C118.73,221.743,107.803,216.385,97.475,210.052z
	 M304.991,264.447c-25.875-0.359-51.572-3.962-76.833-9.636c3.342,0.183,6.68,0.335,10.01,0.46
	c16.012,1.98,32.151,2.986,48.256,3.189c26.249,0.331,52.992-0.822,78.956-4.999c14.38-2.313,29.995-6.047,42.889-13.74
	c1.891-0.569,3.777-1.156,5.656-1.767c1.523-0.495,3.15-1.044,4.842-1.647C385.712,257.728,343.5,264.982,304.991,264.447z"/>
</svg>
