<?xml version="1.0" encoding="iso-8859-1"?>
<!-- Generator: Adobe Illustrator 25.4.8, SVG Export Plug-In . SVG Version: 6.00 Build 0)  -->
<!DOCTYPE svg PUBLIC "-//W3C//DTD SVG 1.1//EN" "http://www.w3.org/Graphics/SVG/1.1/DTD/svg11.dtd" [
	<!ENTITY ns_extend "http://ns.adobe.com/Extensibility/1.0/">
	<!ENTITY ns_ai "http://ns.adobe.com/AdobeIllustrator/10.0/">
	<!ENTITY ns_graphs "http://ns.adobe.com/Graphs/1.0/">
	<!ENTITY ns_vars "http://ns.adobe.com/Variables/1.0/">
	<!ENTITY ns_imrep "http://ns.adobe.com/ImageReplacement/1.0/">
	<!ENTITY ns_sfw "http://ns.adobe.com/SaveForWeb/1.0/">
	<!ENTITY ns_custom "http://ns.adobe.com/GenericCustomNamespace/1.0/">
	<!ENTITY ns_adobe_xpath "http://ns.adobe.com/XPath/1.0/">
]>
<svg version="1.1" id="Layer_1" xmlns:x="&ns_extend;" xmlns:i="&ns_ai;" xmlns:graph="&ns_graphs;"
	 xmlns="http://www.w3.org/2000/svg" xmlns:xlink="http://www.w3.org/1999/xlink" x="0px" y="0px" width="500px" height="137.298px"
	 viewBox="0 0 500 137.298" enable-background="new 0 0 500 137.298" xml:space="preserve">
<metadata>
	<sfw  xmlns="&ns_sfw;">
		<slices></slices>
		<sliceSourceBounds  bottomLeftOrigin="true" height="1173.064" width="4129.853" x="11.308" y="-1191.068"></sliceSourceBounds>
	</sfw>
</metadata>
<g>
	<path d="M489.75,24.046c-0.236-5.337-8.619-8.868-11.126-3.013c-5.79,13.52-20.778,22.609-33.555,28.166
		c-7.029,3.057-0.957,13.348,6.027,10.311c7.771-3.38,16.277-8.142,23.487-14.194c-7.516,21.008-26.98,36.925-47.89,45.094
		c-30.983,12.103-65.925,13.872-98.794,11.836c-70.3-4.354-137.157-28.858-205.651-43.155c-30.708-6.41-66.581-10.158-93.331,9.79
		c-6.09,4.541-0.143,14.912,6.027,10.311c24.424-18.213,56.889-14.327,84.892-8.427c35.512,7.482,70.422,17.54,105.672,26.116
		c34.532,8.4,69.605,15.543,105.17,17.467c33.412,1.807,69.435-0.335,100.763-13.049C463.086,88.455,491.363,60.505,489.75,24.046z"
		/>
	<path d="M14.595,79.377c-3.391,2.778-6.49,5.973-9.299,9.338c-1.999,2.394-2.522,6.129,0,8.444c2.207,2.026,6.306,2.56,8.444,0
		c2.809-3.365,5.908-6.56,9.299-9.338c2.426-1.987,2.215-6.41,0-8.444C20.461,77.01,17.183,77.256,14.595,79.377z"/>
</g>
</svg>
