<?xml version="1.0" encoding="iso-8859-1"?>
<!-- Generator: Adobe Illustrator 25.4.8, SVG Export Plug-In . SVG Version: 6.00 Build 0)  -->
<!DOCTYPE svg PUBLIC "-//W3C//DTD SVG 1.1//EN" "http://www.w3.org/Graphics/SVG/1.1/DTD/svg11.dtd" [
	<!ENTITY ns_extend "http://ns.adobe.com/Extensibility/1.0/">
	<!ENTITY ns_ai "http://ns.adobe.com/AdobeIllustrator/10.0/">
	<!ENTITY ns_graphs "http://ns.adobe.com/Graphs/1.0/">
	<!ENTITY ns_vars "http://ns.adobe.com/Variables/1.0/">
	<!ENTITY ns_imrep "http://ns.adobe.com/ImageReplacement/1.0/">
	<!ENTITY ns_sfw "http://ns.adobe.com/SaveForWeb/1.0/">
	<!ENTITY ns_custom "http://ns.adobe.com/GenericCustomNamespace/1.0/">
	<!ENTITY ns_adobe_xpath "http://ns.adobe.com/XPath/1.0/">
]>
<svg version="1.1" id="Layer_1" xmlns:x="&ns_extend;" xmlns:i="&ns_ai;" xmlns:graph="&ns_graphs;"
	 xmlns="http://www.w3.org/2000/svg" xmlns:xlink="http://www.w3.org/1999/xlink" x="0px" y="0px" width="500px" height="443.457px"
	 viewBox="0 0 500 443.457" enable-background="new 0 0 500 443.457" xml:space="preserve">
<metadata>
	<sfw  xmlns="&ns_sfw;">
		<slices></slices>
		<sliceSourceBounds  bottomLeftOrigin="true" height="1173.064" width="4129.853" x="11.308" y="-1191.068"></sliceSourceBounds>
	</sfw>
</metadata>
<g>
	<g>
		<path d="M91.546,379.253c116.643,9.038,233.466-6.495,343.704-45.669c45.172-16.052,25.711-88.561-19.943-72.338
			c-104.685,37.201-212.996,51.572-323.761,42.99C43.403,300.506,43.645,375.542,91.546,379.253L91.546,379.253z"/>
	</g>
	<g>
		<path d="M91.546,183.229c48.27,0,48.35-75.018,0-75.018C43.275,108.211,43.195,183.229,91.546,183.229L91.546,183.229z"/>
	</g>
	<g>
		<path d="M346.924,151.502c48.27,0,48.35-75.018,0-75.018C298.654,76.484,298.574,151.502,346.924,151.502L346.924,151.502z"/>
	</g>
</g>
</svg>
