<?xml version="1.0" encoding="iso-8859-1"?>
<!-- Generator: Adobe Illustrator 25.4.8, SVG Export Plug-In . SVG Version: 6.00 Build 0)  -->
<!DOCTYPE svg PUBLIC "-//W3C//DTD SVG 1.1//EN" "http://www.w3.org/Graphics/SVG/1.1/DTD/svg11.dtd" [
	<!ENTITY ns_extend "http://ns.adobe.com/Extensibility/1.0/">
	<!ENTITY ns_ai "http://ns.adobe.com/AdobeIllustrator/10.0/">
	<!ENTITY ns_graphs "http://ns.adobe.com/Graphs/1.0/">
	<!ENTITY ns_vars "http://ns.adobe.com/Variables/1.0/">
	<!ENTITY ns_imrep "http://ns.adobe.com/ImageReplacement/1.0/">
	<!ENTITY ns_sfw "http://ns.adobe.com/SaveForWeb/1.0/">
	<!ENTITY ns_custom "http://ns.adobe.com/GenericCustomNamespace/1.0/">
	<!ENTITY ns_adobe_xpath "http://ns.adobe.com/XPath/1.0/">
]>
<svg version="1.1" id="Layer_1" xmlns:x="&ns_extend;" xmlns:i="&ns_ai;" xmlns:graph="&ns_graphs;"
	 xmlns="http://www.w3.org/2000/svg" xmlns:xlink="http://www.w3.org/1999/xlink" x="0px" y="0px" width="500px" height="443.457px"
	 viewBox="0 0 500 443.457" enable-background="new 0 0 500 443.457" xml:space="preserve">
<metadata>
	<sfw  xmlns="&ns_sfw;">
		<slices></slices>
		<sliceSourceBounds  bottomLeftOrigin="true" height="1173.064" width="4129.853" x="11.308" y="-1191.068"></sliceSourceBounds>
	</sfw>
</metadata>
<path d="M383.253,117.473c-6.931-5.355-16.419-4.613-22.795,1.357c-29.749,27.856-59.402,55.821-89.237,83.587
	c0.978-4.849,1.982-9.692,3.026-14.527c4.646-21.531,9.936-42.923,15.858-64.139c6.694-23.985,14.22-47.731,22.5-71.216
	c2.875-8.154-2.611-17.34-10.052-20.481c-8.573-3.618-16.371,0.101-21.679,7.103c-28.208,37.213-56.417,74.426-84.625,111.639
	c0.977-19.41,1.953-38.819,2.93-58.229c0.366-7.276-5.624-15.119-12.746-16.741c-7.922-1.804-15.065,1.368-19.606,7.978
	c-27.16,39.544-54.32,79.088-81.48,118.632c-5.156,7.506-1.649,19.591,6.228,23.753c8.827,4.664,18.25,1.783,23.753-6.228
	c15.365-22.371,30.731-44.743,46.096-67.114c-0.89,17.682-1.779,35.364-2.669,53.046c-0.366,7.276,5.624,15.119,12.746,16.741
	c8.173,1.861,14.729-1.545,19.606-7.978c19.95-26.318,39.9-52.637,59.85-78.955c-4.238,16.412-8.109,32.92-11.584,49.515
	c-2.249,10.739-5.805,22.381-5.076,33.43c0.977,14.812,9.883,27.472,25.558,28.76c14.607,1.2,25.316-10.537,35.025-19.628
	c2.325-2.177,4.651-4.355,6.976-6.532c-7.265,15.262-14.059,30.751-20.378,46.435c-7.342-3.571-14.852-6.799-22.463-9.756
	c-27.408-10.65-56.271-16.401-85.334-20.253c-32.064-4.25-64.39-5.666-96.688-6.771c-9.086-0.311-17.771,8.207-17.361,17.361
	c0.433,9.672,7.627,17.028,17.361,17.361c26.273,0.899,52.565,1.973,78.728,4.655c3.274,0.336,6.546,0.696,9.814,1.085
	c1.632,0.194,3.261,0.403,4.892,0.604c0.393,0.048,0.702,0.086,0.954,0.116c0.248,0.037,0.552,0.082,0.935,0.138
	c6.469,0.944,12.924,1.948,19.353,3.137c12.713,2.351,25.326,5.293,37.705,9.033c5.616,1.697,11.184,3.556,16.684,5.599
	c2.603,0.966,5.187,1.982,7.758,3.03c0.435,0.194,2.65,1.133,2.858,1.225c1.94,0.862,3.869,1.75,5.786,2.664
	c1.343,0.641,2.68,1.295,4.01,1.962c-11.189-0.692-22.379-1.384-33.569-2.076c-35.615-2.202-71.231-4.405-106.846-6.607
	c-9.081-0.562-17.762,8.386-17.361,17.361c0.443,9.886,7.632,16.759,17.361,17.361c34.626,2.141,69.252,4.282,103.878,6.424
	c17.148,1.06,34.296,2.121,51.445,3.181c8.627,0.534,17.471,1.675,26.114,1.593c12.627-0.119,23.625-8.466,24.182-21.696
	c0.543-12.91-9.405-22.17-19.963-29.342c7.982-20.393,16.505-39.47,26.99-60.481c14.581-29.22,30.986-57.501,49.029-84.718
	C392.509,132.651,389.725,122.473,383.253,117.473z"/>
</svg>
