<?xml version="1.0" encoding="iso-8859-1"?>
<!-- Generator: Adobe Illustrator 25.4.8, SVG Export Plug-In . SVG Version: 6.00 Build 0)  -->
<!DOCTYPE svg PUBLIC "-//W3C//DTD SVG 1.1//EN" "http://www.w3.org/Graphics/SVG/1.1/DTD/svg11.dtd" [
	<!ENTITY ns_extend "http://ns.adobe.com/Extensibility/1.0/">
	<!ENTITY ns_ai "http://ns.adobe.com/AdobeIllustrator/10.0/">
	<!ENTITY ns_graphs "http://ns.adobe.com/Graphs/1.0/">
	<!ENTITY ns_vars "http://ns.adobe.com/Variables/1.0/">
	<!ENTITY ns_imrep "http://ns.adobe.com/ImageReplacement/1.0/">
	<!ENTITY ns_sfw "http://ns.adobe.com/SaveForWeb/1.0/">
	<!ENTITY ns_custom "http://ns.adobe.com/GenericCustomNamespace/1.0/">
	<!ENTITY ns_adobe_xpath "http://ns.adobe.com/XPath/1.0/">
]>
<svg version="1.1" id="Layer_1" xmlns:x="&ns_extend;" xmlns:i="&ns_ai;" xmlns:graph="&ns_graphs;"
	 xmlns="http://www.w3.org/2000/svg" xmlns:xlink="http://www.w3.org/1999/xlink" x="0px" y="0px" width="500px" height="137.298px"
	 viewBox="0 0 500 137.298" enable-background="new 0 0 500 137.298" xml:space="preserve">
<metadata>
	<sfw  xmlns="&ns_sfw;">
		<slices></slices>
		<sliceSourceBounds  bottomLeftOrigin="true" height="1173.064" width="4129.853" x="11.308" y="-1191.068"></sliceSourceBounds>
	</sfw>
</metadata>
<g>
	<g>
		<path d="M44.54,78.163c23.915-17.818,55.703-13.842,83.077-8.024c34.23,7.275,67.894,16.937,101.886,25.204
			c33.815,8.224,68.173,15.209,103.008,16.986c32.415,1.653,67.268-0.579,97.588-13.069c30.368-12.509,57.25-39.639,55.714-74.6
			c-0.326-7.427-11.914-7.467-11.586,0c1.342,30.566-22.896,53.91-49.554,64.375c-30.025,11.787-63.993,13.469-95.858,11.499
			c-67.973-4.203-132.676-27.791-198.88-41.729c-29.996-6.315-65.078-10.14-91.243,9.355C32.781,72.563,38.551,82.625,44.54,78.163
			L44.54,78.163z"/>
	</g>
	<g>
		<path d="M23.968,95.596c2.726-3.264,5.732-6.365,9.022-9.06c2.354-1.928,2.15-6.219,0-8.192c-2.501-2.296-5.681-2.057-8.192,0
			c-3.29,2.695-6.297,5.795-9.022,9.06c-1.94,2.323-2.447,5.947,0,8.192C17.917,97.562,21.894,98.079,23.968,95.596L23.968,95.596z"
			/>
	</g>
</g>
</svg>
