<?xml version="1.0" encoding="iso-8859-1"?>
<!-- Generator: Adobe Illustrator 25.4.8, SVG Export Plug-In . SVG Version: 6.00 Build 0)  -->
<!DOCTYPE svg PUBLIC "-//W3C//DTD SVG 1.1//EN" "http://www.w3.org/Graphics/SVG/1.1/DTD/svg11.dtd" [
	<!ENTITY ns_extend "http://ns.adobe.com/Extensibility/1.0/">
	<!ENTITY ns_ai "http://ns.adobe.com/AdobeIllustrator/10.0/">
	<!ENTITY ns_graphs "http://ns.adobe.com/Graphs/1.0/">
	<!ENTITY ns_vars "http://ns.adobe.com/Variables/1.0/">
	<!ENTITY ns_imrep "http://ns.adobe.com/ImageReplacement/1.0/">
	<!ENTITY ns_sfw "http://ns.adobe.com/SaveForWeb/1.0/">
	<!ENTITY ns_custom "http://ns.adobe.com/GenericCustomNamespace/1.0/">
	<!ENTITY ns_adobe_xpath "http://ns.adobe.com/XPath/1.0/">
]>
<svg version="1.1" id="Layer_1" xmlns:x="&ns_extend;" xmlns:i="&ns_ai;" xmlns:graph="&ns_graphs;"
	 xmlns="http://www.w3.org/2000/svg" xmlns:xlink="http://www.w3.org/1999/xlink" x="0px" y="0px" width="566.929px"
	 height="566.929px" viewBox="0 0 566.929 566.929" enable-background="new 0 0 566.929 566.929" xml:space="preserve">
<metadata>
	<sfw  xmlns="&ns_sfw;">
		<slices></slices>
		<sliceSourceBounds  bottomLeftOrigin="true" height="1171.67" width="16022.916" x="-7734.522" y="-1027.034">
			</sliceSourceBounds>
	</sfw>
</metadata>
<path d="M117.504,477.651c-2.847-1.551-6.238-0.758-9.171-2.251c-2.023-1.03-4.114-1.831-5.878-3.351
	c-2.367-2.039-2.688-4.464-0.884-6.732c1.427-1.794,1.03-3.107,0.487-5.034c-1.324-4.694-1.249-9.513,0.543-14.127
	c4.459-11.481,11.727-21.279,18.968-31.059c9.029-12.194,18.697-23.88,28.458-35.498c6.161-7.333,13.782-10.945,23.228-11.924
	c6.991-0.725,13.855-0.977,20.795,0.098c2.41,0.373,4.729,1.009,6.916,1.977c5.63,2.49,6.974,5.638,4.319,11.244
	c-4.467,9.431-9.268,18.704-13.886,28.065c-0.437,0.886-1.427,1.639-0.83,3.395c3.767-3.01,7.423-5.802,10.939-8.762
	c29.805-25.082,57.353-52.437,82.855-81.888c40.297-46.538,75.376-96.604,102.758-151.851
	c12.933-26.096,23.625-53.062,29.714-81.678c2.004-9.418,3.554-18.938,4.029-28.522c0.273-5.495,3.707-7.187,7.622-8.33
	c9.504-2.774,19.257-3.377,29.058-1.743c7.785,1.298,9.458,3.344,8.857,11.701c-1.123,15.61-2.977,31.123-6.753,46.367
	c-7.814,31.546-20.605,61.1-35.797,89.684c-19.743,37.146-43.146,71.878-69.138,104.929c-24.069,30.606-50.303,59.217-78.77,85.734
	c-22.08,20.568-45.328,39.76-70.601,56.373c-0.876,0.576-1.679,1.264-3.384,2.56c7.163-0.735,13.381-1.435,19.622-1.789
	c7.325-0.415,14.595-1.778,21.92-2.22c11.938-0.721,23.841-2.136,35.845-1.76c4.774,0.149,9.306,1.027,13.652,2.886
	c1.802,0.771,3.755,1.491,3.857,4.085c0.097,2.482-1.556,3.585-3.277,4.596c-4.576,2.69-9.683,3.891-14.848,4.558
	c-16.007,2.067-32.015,4.1-48.003,6.332c-18.304,2.555-36.423,6.256-54.8,8.359c-9.174,1.05-18.392,1.515-27.537,2.549
	c-5.981,0.676-11.989,1.906-17.96,3.027C126.12,477.651,121.812,477.651,117.504,477.651z"/>
</svg>
