<?xml version="1.0" encoding="iso-8859-1"?>
<!-- Generator: Adobe Illustrator 25.4.8, SVG Export Plug-In . SVG Version: 6.00 Build 0)  -->
<!DOCTYPE svg PUBLIC "-//W3C//DTD SVG 1.1//EN" "http://www.w3.org/Graphics/SVG/1.1/DTD/svg11.dtd" [
	<!ENTITY ns_extend "http://ns.adobe.com/Extensibility/1.0/">
	<!ENTITY ns_ai "http://ns.adobe.com/AdobeIllustrator/10.0/">
	<!ENTITY ns_graphs "http://ns.adobe.com/Graphs/1.0/">
	<!ENTITY ns_vars "http://ns.adobe.com/Variables/1.0/">
	<!ENTITY ns_imrep "http://ns.adobe.com/ImageReplacement/1.0/">
	<!ENTITY ns_sfw "http://ns.adobe.com/SaveForWeb/1.0/">
	<!ENTITY ns_custom "http://ns.adobe.com/GenericCustomNamespace/1.0/">
	<!ENTITY ns_adobe_xpath "http://ns.adobe.com/XPath/1.0/">
]>
<svg version="1.1" id="Layer_1" xmlns:x="&ns_extend;" xmlns:i="&ns_ai;" xmlns:graph="&ns_graphs;"
	 xmlns="http://www.w3.org/2000/svg" xmlns:xlink="http://www.w3.org/1999/xlink" x="0px" y="0px" width="566.929px"
	 height="566.929px" viewBox="0 0 566.929 566.929" enable-background="new 0 0 566.929 566.929" xml:space="preserve">
<metadata>
	<sfw  xmlns="&ns_sfw;">
		<slices></slices>
		<sliceSourceBounds  bottomLeftOrigin="true" height="1171.67" width="16022.916" x="-7734.522" y="-1027.034">
			</sliceSourceBounds>
	</sfw>
</metadata>
<g>
	<path d="M423.296,240.384c4.614,0.518,9.131,0.941,13.681,1.143c7.589,0.337,15.167,0.896,22.752,1.322
		c3.246,0.182,6.497,0.27,9.746,0.386c0.928,0.033,1.842,0.057,2.769,0.244c1.153,0.233,2.146,0.283,3.077-1.022
		c1.297-1.819,3.615-2.294,5.693-2.629c4.85-0.784,9.708-1.244,14.681-0.888c4.851,0.347,9.668,0.689,14.394,1.866
		c2.075,0.517,4.082,1.247,5.943,2.311c5.342,3.056,5.957,7.619,1.764,12.16c-3.656,3.96-8.015,7.021-12.494,9.909
		c-8.418,5.428-16.966,10.643-25.765,15.442c-3.155,1.721-6.405,2.777-10.071,2.833c-2.971,0.045-5.91,0.344-8.754-0.773
		c-0.966-0.379-2.038-0.689-2.271-1.903c-0.248-1.292,0.74-1.881,1.607-2.445c7.288-4.737,14.599-9.439,21.71-14.443
		c3.978-2.799,7.86-5.707,11.35-9.158c-0.503-0.555-1.056-0.318-1.533-0.322c-2.677-0.027-5.355-0.046-8.032-0.007
		c-7.967,0.116-15.909-0.555-23.867-0.755c-6.26-0.158-12.515-0.59-18.764-1.021c-7.393-0.51-14.796-0.986-22.16-1.787
		c-5.762-0.627-11.565-1.277-17.04-3.427c-1.466-0.575-2.843-1.296-3.952-2.458c-1.511-1.583-1.65-3.394-0.385-5.165
		c1.429-2.001,3.5-3.177,5.588-4.308c5.992-3.245,12.396-5.575,18.606-8.338c4.422-1.968,8.909-3.823,12.844-6.722
		c0.881-0.649,2.089-1.337,1.869-2.5c-0.205-1.08-1.592-1.274-2.559-1.502c-3.664-0.865-7.401-1.204-11.153-1.532
		c-8.825-0.772-17.663-0.733-26.499-0.624c-6.324,0.078-12.648,0.389-18.967,0.703c-5.138,0.256-10.272,0.62-15.401,1.027
		c-6.735,0.535-13.467,1.111-20.192,1.757c-6.609,0.635-13.214,1.32-19.808,2.093c-7.223,0.847-14.432,1.815-21.645,2.739
		c-7.33,0.939-14.67,1.81-21.985,2.852c-8.228,1.173-16.436,2.488-24.648,3.772c-9.697,1.517-19.404,2.98-29.079,4.626
		c-11.603,1.974-23.178,4.115-34.765,6.185c-10.548,1.885-21.103,3.736-31.642,5.669c-9.725,1.784-19.426,3.693-29.151,5.478
		c-6.834,1.254-13.687,2.407-20.536,3.578c-6.112,1.045-12.219,2.12-18.348,3.053c-4.716,0.718-9.469,1.186-14.192,1.853
		c-5.667,0.801-11.361,1.383-17.07,1.577c-8.087,0.276-16.231,0.953-24.142-1.589c-1.991-0.64-3.889-1.466-5.405-2.978
		c-1.826-1.822-2.228-3.839-1.113-6.17c1.661-3.471,4.572-5.819,7.561-8.024c8.92-6.58,18.81-11.448,28.868-15.963
		c14.853-6.668,30.055-12.383,45.986-15.958c5.638-1.265,11.372-2.099,17.117-2.443c2.854-0.171,5.921-0.39,8.733,0.84
		c0.875,0.383,2.049,0.509,2.122,1.757c0.08,1.36-1.218,1.68-2.073,2.036c-1.738,0.724-3.6,1.156-5.481,1.422
		c-8.675,1.226-16.883,4.123-25.024,7.173c-14.619,5.478-28.832,11.858-42.249,19.893c-3.768,2.257-7.444,4.68-10.611,7.77
		c-0.774,0.755-1.945,1.697-1.579,2.672c0.286,0.761,1.776,0.268,2.724,0.289c6.085,0.134,12.101-0.658,18.136-1.311
		c5.553-0.601,11.075-1.401,16.597-2.2c6.129-0.888,12.228-1.985,18.337-3.006c5.716-0.956,11.431-1.916,17.142-2.902
		c6.283-1.085,12.563-2.192,18.841-3.306c6.853-1.216,13.701-2.457,20.554-3.674c6.976-1.24,13.952-2.479,20.932-3.693
		c6.419-1.116,12.841-2.209,19.266-3.29c6.823-1.148,13.646-2.298,20.477-3.392c5.58-0.894,11.175-1.695,16.761-2.559
		c5.81-0.898,11.609-1.87,17.426-2.719c5.362-0.783,10.743-1.431,16.112-2.17c4.795-0.66,9.577-1.417,14.377-2.033
		c5.148-0.661,10.312-1.195,15.467-1.808c5.614-0.667,11.222-1.394,16.839-2.03c3.79-0.429,7.594-0.737,11.391-1.113
		c4.375-0.433,8.747-0.904,13.125-1.313c3.172-0.297,6.35-0.528,9.526-0.775c5.89-0.458,11.78-0.922,17.672-1.35
		c2.138-0.155,4.284-0.221,6.424-0.346c14.515-0.848,29.056-1.061,43.583-0.674c9.295,0.247,18.628,0.811,27.595,3.749
		c2.314,0.758,4.572,1.634,6.398,3.323c2.585,2.39,2.709,5.283,0.376,7.959c-3.027,3.472-6.913,5.77-10.894,7.919
		c-6.996,3.776-14.396,6.697-21.561,10.116C424.415,239.623,423.8,239.785,423.296,240.384z"/>
	<path d="M170.144,191.834c4.168,0.066,6.987-0.104,9.594,1.103c0.904,0.418,1.98,0.733,2.061,2.075
		c0.079,1.315-0.835,1.892-1.744,2.345c-4.445,2.213-9.182,3.663-13.951,4.944c-3.993,1.073-8.044,2.042-12.132,2.624
		c-3.706,0.527-7.514,0.698-11.191-0.479c-1.072-0.343-2.31-0.631-2.55-2.015c-0.284-1.643,0.21-2.955,1.784-3.768
		c4.215-2.177,8.682-3.643,13.27-4.781C160.623,192.559,166.043,191.899,170.144,191.834z"/>
</g>
</svg>
