<?xml version="1.0" encoding="iso-8859-1"?>
<!-- Generator: Adobe Illustrator 25.4.8, SVG Export Plug-In . SVG Version: 6.00 Build 0)  -->
<!DOCTYPE svg PUBLIC "-//W3C//DTD SVG 1.1//EN" "http://www.w3.org/Graphics/SVG/1.1/DTD/svg11.dtd" [
	<!ENTITY ns_extend "http://ns.adobe.com/Extensibility/1.0/">
	<!ENTITY ns_ai "http://ns.adobe.com/AdobeIllustrator/10.0/">
	<!ENTITY ns_graphs "http://ns.adobe.com/Graphs/1.0/">
	<!ENTITY ns_vars "http://ns.adobe.com/Variables/1.0/">
	<!ENTITY ns_imrep "http://ns.adobe.com/ImageReplacement/1.0/">
	<!ENTITY ns_sfw "http://ns.adobe.com/SaveForWeb/1.0/">
	<!ENTITY ns_custom "http://ns.adobe.com/GenericCustomNamespace/1.0/">
	<!ENTITY ns_adobe_xpath "http://ns.adobe.com/XPath/1.0/">
]>
<svg version="1.1" id="Layer_1" xmlns:x="&ns_extend;" xmlns:i="&ns_ai;" xmlns:graph="&ns_graphs;"
	 xmlns="http://www.w3.org/2000/svg" xmlns:xlink="http://www.w3.org/1999/xlink" x="0px" y="0px" width="566.929px"
	 height="566.929px" viewBox="0 0 566.929 566.929" enable-background="new 0 0 566.929 566.929" xml:space="preserve">
<metadata>
	<sfw  xmlns="&ns_sfw;">
		<slices></slices>
		<sliceSourceBounds  bottomLeftOrigin="true" height="1171.67" width="16022.916" x="-7734.522" y="-1027.034">
			</sliceSourceBounds>
	</sfw>
</metadata>
<g>
	<path d="M511.868,196.1c-2.127-3.109-5.001-4.534-8.132-5.514c-2.36-0.739-4.767-1.332-7.166-1.939
		c-0.655-0.166-1.219-0.448-1.779-0.798c-1.977-1.236-1.982-2.707-0.023-4.078c1.879-1.314,4.068-1.864,6.242-2.19
		c6.675-1.002,13.329-0.482,19.917,0.825c5.474,1.086,10.66,2.809,15.064,6.508c4.47,3.754,5.494,9.928,2.744,14.377
		c-4.205,6.803-9.749,12.423-17.608,14.96c-5.26,1.698-10.713,1.603-16.099,0.323c-1.004-0.239-2.005-0.666-2.887-1.204
		c-2.564-1.565-2.736-3.987-0.423-5.912c1.352-1.125,2.82-2.109,4.418-3.292c-2.092-1.454-4.384-1.786-6.609-2.179
		c-6.761-1.192-13.586-1.71-20.446-2.053c-9.456-0.473-18.91-0.867-28.374-0.709c-9.326,0.156-18.651,0.441-27.971,0.809
		c-6.668,0.263-13.33,0.71-19.989,1.158c-7.038,0.473-14.072,1.011-21.103,1.581c-5.856,0.475-11.709,0.993-17.555,1.575
		c-5.908,0.588-11.804,1.299-17.709,1.916c-5.456,0.57-10.924,1.024-16.374,1.641c-6.03,0.683-12.044,1.498-18.067,2.245
		c-4.601,0.57-9.206,1.106-13.805,1.688c-5.441,0.688-10.88,1.385-16.314,2.122c-5.238,0.71-10.47,1.471-15.703,2.218
		c-5.881,0.839-11.765,1.661-17.64,2.535c-6.52,0.97-13.033,1.983-19.547,2.992c-6.317,0.978-12.634,1.964-18.947,2.966
		c-6.113,0.971-12.224,1.958-18.334,2.956c-6.872,1.123-13.741,2.266-20.612,3.399c-5.903,0.973-11.807,1.938-17.708,2.917
		c-6.6,1.095-13.199,2.199-19.797,3.305c-5.955,0.998-11.907,2.014-17.862,3.006c-6.208,1.035-12.419,2.06-18.631,3.073
		c-3.46,0.564-6.923,1.118-10.393,1.616c-0.704,0.101-0.968,0.304-1.08,1.04c-2.309,15.193-10.407,27.847-17.919,40.758
		c-0.264,0.454-0.613,0.869-0.816,1.348c-2.25,5.314-6.839,6.489-11.916,6.621c-3.387,0.088-6.803,0.464-10.133-0.742
		c-2.802-1.015-3.294-2.099-1.785-4.636c5.436-9.137,10.808-18.309,14.791-28.207c1.657-4.118,3.047-8.316,3.669-12.828
		c-9.811,1.006-19.574,1.936-29.383,1.786c-4.489-0.068-8.961-0.678-13.213-2.315c-1.296-0.499-2.498-1.164-3.562-2.054
		c-1.725-1.444-2.136-3.909-0.95-5.838c1.573-2.558,4.066-4.077,6.586-5.462c7.413-4.075,15.391-6.474,23.695-8.005
		c5.711-1.053,11.437-1.252,17.199-1.124c5.147,0.114,10.122,1.136,14.831,3.249c2.43,1.09,4.572,2.659,6.118,4.836
		c0.726,1.022,1.558,1.095,2.535,0.948c8.596-1.292,17.195-2.573,25.781-3.933c8.71-1.38,17.401-2.88,26.111-4.265
		c7.052-1.122,14.123-2.115,21.176-3.23c7.955-1.257,15.892-2.635,23.85-3.87c7.329-1.137,14.679-2.134,22.014-3.231
		c6.694-1.001,13.375-2.096,20.073-3.071c5.995-0.872,12.009-1.614,18.008-2.455c6.193-0.869,12.374-1.833,18.571-2.674
		c5.493-0.745,11.005-1.354,16.502-2.067c5.692-0.738,11.372-1.568,17.067-2.282c4.859-0.609,9.734-1.093,14.598-1.666
		c6.358-0.748,12.708-1.568,19.069-2.284c5.394-0.607,10.801-1.103,16.2-1.663c5.987-0.622,11.97-1.289,17.96-1.886
		c4.626-0.461,9.259-0.854,13.891-1.256c6.066-0.526,12.132-1.054,18.202-1.535c4.049-0.321,8.101-0.642,12.158-0.819
		c8.186-0.356,16.355-1.009,24.548-1.288c5.895-0.2,11.78-0.655,17.685-0.721c7.164-0.08,14.322-0.402,21.49-0.427
		c6.384-0.022,12.758,0.285,19.121,0.548c6.707,0.278,13.45,0.617,20.091,1.845C510.144,196.206,510.855,196.1,511.868,196.1z
		 M43.86,242.87c2.274,0.666,4.217-0.191,6.198-0.232c2.848-0.059,5.688-0.475,8.53-0.753c0.61-0.06,1.117-0.293,0.545-0.975
		c-0.855-1.019-1.899-2.066-3.263-1.915C51.698,239.457,47.767,240.772,43.86,242.87z"/>
	<path d="M42.584,323.19c-2.096,0.17-4.179-0.117-6.136-0.93c-1.123-0.467-2.138-1.13-2.091-2.559
		c0.028-0.834-0.644-1.066-1.097-1.506c-1.349-1.313-1.315-2.865,0.144-4.051c1.77-1.439,3.903-2.141,6.076-2.59
		c4.639-0.96,9.321-1.119,13.984-0.142c1.529,0.32,3.032,0.829,4.292,1.824c1.617,1.277,1.923,3.036,0.97,4.879
		c-1.91,3.694-5.51,4.464-9.068,5.01C47.353,323.477,44.946,323.19,42.584,323.19z"/>
</g>
</svg>
