<?xml version="1.0" encoding="iso-8859-1"?>
<!-- Generator: Adobe Illustrator 25.4.8, SVG Export Plug-In . SVG Version: 6.00 Build 0)  -->
<!DOCTYPE svg PUBLIC "-//W3C//DTD SVG 1.1//EN" "http://www.w3.org/Graphics/SVG/1.1/DTD/svg11.dtd" [
	<!ENTITY ns_extend "http://ns.adobe.com/Extensibility/1.0/">
	<!ENTITY ns_ai "http://ns.adobe.com/AdobeIllustrator/10.0/">
	<!ENTITY ns_graphs "http://ns.adobe.com/Graphs/1.0/">
	<!ENTITY ns_vars "http://ns.adobe.com/Variables/1.0/">
	<!ENTITY ns_imrep "http://ns.adobe.com/ImageReplacement/1.0/">
	<!ENTITY ns_sfw "http://ns.adobe.com/SaveForWeb/1.0/">
	<!ENTITY ns_custom "http://ns.adobe.com/GenericCustomNamespace/1.0/">
	<!ENTITY ns_adobe_xpath "http://ns.adobe.com/XPath/1.0/">
]>
<svg version="1.1" id="Layer_1" xmlns:x="&ns_extend;" xmlns:i="&ns_ai;" xmlns:graph="&ns_graphs;"
	 xmlns="http://www.w3.org/2000/svg" xmlns:xlink="http://www.w3.org/1999/xlink" x="0px" y="0px" width="566.929px"
	 height="566.929px" viewBox="0 0 566.929 566.929" enable-background="new 0 0 566.929 566.929" xml:space="preserve">
<metadata>
	<sfw  xmlns="&ns_sfw;">
		<slices></slices>
		<sliceSourceBounds  bottomLeftOrigin="true" height="1171.67" width="16022.916" x="-7734.522" y="-1027.034">
			</sliceSourceBounds>
	</sfw>
</metadata>
<g>
	<path d="M348.297,237.235c9.941-12.153,18.372-24.385,26.795-36.625c15.654-22.749,30.226-46.238,46.712-68.417
		c3.134-4.217,6.414-8.325,10.151-12.044c5.893-5.865,12.952-8.854,21.26-9.721c7.124-0.744,14.191-1.254,21.209,0.157
		c9.453,1.9,12.715,4.929,12.615,14.412c-0.142,13.541-2.926,26.706-5.602,39.85c-6.481,31.835-13.272,63.607-20.05,95.38
		c-4.552,21.337-8.291,42.823-11.817,64.34c-2.206,13.459-3.509,27.063-5.465,40.566c-1.404,9.687-2.185,19.474-4.466,29.027
		c-1.769,7.409-6.037,12.533-13.151,15.605c-6.775,2.926-13.895,3.76-21.054,4.254c-10.879,0.751-21.621-0.658-32.342-2.594
		c-10.874-1.963-21.82-3.518-32.795-4.905c-22.218-2.808-44.541-3.568-66.888-4.111c-4.637-0.113-9.261-0.152-13.887,0.238
		c-1.647,0.139-3.067,0.082-2.03,2.521c1.057,2.487-0.15,4.19-2.348,5.568c-2.69,1.686-5.634,2.88-8.648,3.28
		c-9.135,1.213-18.318,2.636-27.413-0.553c-2.897-1.016-5.151-2.475-5.923-5.602c-0.521-2.113-1.611-2.985-3.984-2.836
		c-8.807,0.552-17.55,1.622-26.284,2.808c-7.741,1.052-15.466,2.235-23.22,3.176c-9.132,1.108-18.227,2.607-27.492,2.395
		c-3.771-0.086-7.419-0.628-11.022-1.588c-2.325-0.62-4.756-1.468-5.095-4.27c-0.342-2.821,2.101-3.74,4.083-4.698
		c7.366-3.56,15.422-4.564,23.338-5.958c12.079-2.127,24.189-4.095,36.32-5.9c6.996-1.041,14.051-1.708,21.094-2.394
		c4.24-0.413,4.435-0.551,2.892-4.461c-13.171-33.363-26.906-66.489-41.608-99.211c-1.515-3.371-3.91-6.061-6.036-8.97
		c-7.671-10.495-14.456-21.528-18.846-33.8c-3.426-9.578-0.94-11.78,6.498-14.703c11.274-4.431,22.769-4.532,34.381-1.399
		c4.401,1.187,7.365,4.07,9.498,7.925c4.585,8.287,8.604,16.854,12.331,25.552c3.422,7.983,9.341,14.046,15.014,20.354
		c2.489,2.768,4.006,1.725,5.835-0.585c6.293-7.951,11.464-16.594,15.909-25.674c11.883-24.274,20.222-49.86,27.835-75.706
		c13.534-45.949,24.061-92.645,34.635-139.331c1.097-4.844,2.533-9.611,3.616-14.458c0.779-3.481,2.766-5.853,5.932-7.207
		c6.99-2.99,14.29-3.983,21.902-3.763c4.769,0.138,9.414,0.527,13.913,2.055c3.705,1.259,5.838,3.306,5.768,7.903
		c-0.24,15.761-1.308,31.468-2.268,47.187c-0.656,10.73-1.163,21.472-1.586,32.214c-1.301,33.021-2.163,66.053-1.498,99.101
		C345.25,213.292,346.097,224.94,348.297,237.235z M298.935,221.811c-0.689,1.794-1.041,2.689-1.378,3.589
		c-6.859,18.317-14.206,36.39-25.378,52.638c-12.025,17.488-28.207,27.676-49.719,28.577c-2.38,0.1-2.254,0.926-1.547,2.759
		c9.412,24.383,18.773,48.786,28.07,73.213c0.708,1.861,1.709,2.427,3.58,2.264c3.85-0.336,7.712-0.712,11.572-0.745
		c18.887-0.16,37.754,0.175,56.623,1.334c8.468,0.52,16.959,0.98,25.381,1.826c13.848,1.391,27.681,3.091,41.371,5.746
		c4.785,0.928,4.927,0.683,5.589-4.139c1.721-12.535,3.611-25.048,5.165-37.603c2.346-18.958,5.58-37.762,8.994-56.551
		c5.255-28.913,11.462-57.619,18.027-86.255c1.179-5.143,2.183-10.326,3.323-15.755c-0.673,0.266-0.983,0.289-1.101,0.451
		c-0.731,1.009-1.424,2.046-2.121,3.079c-12.796,18.96-25.362,38.095-40.836,55.066c-8.022,8.798-17.088,16.05-28.917,19.12
		c-8.456,2.195-17.12,2.206-25.68,1.654c-15.522-1.001-23.181-7.729-26.983-22.74C300.77,240.654,299.687,231.787,298.935,221.811z"
		/>
	<path d="M278.606,451.79c-12.491-0.75-25.746,0.043-38.962,0.784c-13.623,0.764-27.11,3.035-40.597,5.292
		c-9.109,1.524-18.604,2.875-27.706-0.942c-2.255-0.946-4.975-1.488-5.16-4.65c-0.203-3.466,2.563-4.637,5.003-5.775
		c7.517-3.507,15.688-4.609,23.741-6.028c15.065-2.656,30.315-3.812,45.526-5.233c4.586-0.428,9.263-0.658,13.811-0.619
		c15.523,0.133,31.021-1.643,46.549-0.468c3.739,0.283,7.507,0.25,11.262,0.26c19.257,0.054,38.444,1.346,57.627,2.944
		c20.002,1.666,39.869,4.115,59.334,9.145c7.109,1.837,13.973,4.303,20.32,8.219c7.38,4.553,7.221,12.765,0.663,17.486
		c-8.781,6.322-18.804,9.583-28.971,12.52c-18.416,5.32-37.245,8.631-56.2,11.368c-14.258,2.058-28.533,3.863-42.872,5.273
		c-11.378,1.119-22.762,2.084-34.156,3.013c-24.804,2.023-49.635,3.272-74.51,2.806c-10.929-0.205-21.926-0.847-32.457-4.412
		c-2.491-0.843-4.87-1.905-6.89-3.647c-3.59-3.097-3.746-7.107-0.291-10.313c4.486-4.163,10.182-5.965,15.946-6.806
		c7.37-1.076,14.923-2.037,22.31-0.133c3.368,0.868,7.695,0.888,8.476,5.838c0.194,1.231,1.409,0.783,2.184,0.795
		c15.501,0.248,30.999-0.02,46.478-0.785c10.543-0.521,21.096-1.168,31.589-2.283c11.211-1.191,22.441-2.213,33.643-3.545
		c17.387-2.067,34.656-4.693,51.755-8.427c6.184-1.35,12.339-2.88,18.207-5.312c1.511-0.626,3.965-0.967,3.924-2.768
		c-0.035-1.508-2.416-1.86-3.896-2.409c-7.501-2.783-15.382-4.001-23.225-5.19c-14.93-2.265-29.984-3.655-45.046-4.451
		C317.159,452.341,298.289,451.155,278.606,451.79z"/>
</g>
</svg>
