<?xml version="1.0" encoding="iso-8859-1"?>
<!-- Generator: Adobe Illustrator 25.4.8, SVG Export Plug-In . SVG Version: 6.00 Build 0)  -->
<!DOCTYPE svg PUBLIC "-//W3C//DTD SVG 1.1//EN" "http://www.w3.org/Graphics/SVG/1.1/DTD/svg11.dtd" [
	<!ENTITY ns_extend "http://ns.adobe.com/Extensibility/1.0/">
	<!ENTITY ns_ai "http://ns.adobe.com/AdobeIllustrator/10.0/">
	<!ENTITY ns_graphs "http://ns.adobe.com/Graphs/1.0/">
	<!ENTITY ns_vars "http://ns.adobe.com/Variables/1.0/">
	<!ENTITY ns_imrep "http://ns.adobe.com/ImageReplacement/1.0/">
	<!ENTITY ns_sfw "http://ns.adobe.com/SaveForWeb/1.0/">
	<!ENTITY ns_custom "http://ns.adobe.com/GenericCustomNamespace/1.0/">
	<!ENTITY ns_adobe_xpath "http://ns.adobe.com/XPath/1.0/">
]>
<svg version="1.1" id="Layer_1" xmlns:x="&ns_extend;" xmlns:i="&ns_ai;" xmlns:graph="&ns_graphs;"
	 xmlns="http://www.w3.org/2000/svg" xmlns:xlink="http://www.w3.org/1999/xlink" x="0px" y="0px" width="566.929px"
	 height="566.929px" viewBox="0 0 566.929 566.929" enable-background="new 0 0 566.929 566.929" xml:space="preserve">
<metadata>
	<sfw  xmlns="&ns_sfw;">
		<slices></slices>
		<sliceSourceBounds  bottomLeftOrigin="true" height="1171.67" width="16022.916" x="-7734.522" y="-1027.034">
			</sliceSourceBounds>
	</sfw>
</metadata>
<g>
	<path d="M84.916,269.865c2.864,0.112,5.729,0.113,8.477-0.284c2.759-0.399,5.532-0.395,8.28-0.675
		c8.886-0.906,17.83-1.233,26.731-2.012c7.747-0.678,15.502-1.244,23.251-1.874c8.06-0.656,16.124-1.227,24.184-1.862
		c8.368-0.66,16.736-1.299,25.111-1.871c6.297-0.43,12.59-0.947,18.889-1.392c6.685-0.472,13.371-0.921,20.057-1.381
		c7.15-0.492,14.295-1.017,21.452-1.429c7.075-0.407,14.146-0.922,21.222-1.368c8.004-0.505,16.009-0.965,24.016-1.408
		c5.545-0.307,11.089-0.626,16.635-0.932c9.094-0.501,18.183-1.035,27.286-1.404c6.402-0.26,12.8-0.652,19.206-0.925
		c8.267-0.352,16.533-0.658,24.803-0.948c7.885-0.276,15.771-0.591,23.655-0.905c22.4-0.891,44.806-1.063,67.213-0.819
		c9.802,0.107,19.64,0.347,29.318,2.281c2.729,0.545,5.375,1.383,7.718,2.958c3.759,2.526,3.181,6.037-0.28,8.142
		c-3.369,2.049-7.121,2.981-11.108,3.352c-12.034,1.12-23.961-0.802-35.936-1.158c-21.402-0.636-42.797-0.941-64.197-0.592
		c-5.811,0.095-11.631,0.118-17.441,0.327c-16.419,0.588-32.844,0.992-49.26,1.747c-11.226,0.517-22.456,1.011-33.682,1.561
		c-12.299,0.602-24.584,1.487-36.876,2.235c-8.109,0.493-16.225,0.896-24.329,1.459c-9.868,0.686-19.727,1.517-29.592,2.245
		c-5.009,0.37-10.029,0.593-15.036,0.986c-7.075,0.554-14.14,1.23-21.214,1.802c-4.616,0.373-9.244,0.603-13.859,0.989
		c-6.681,0.559-13.354,1.224-20.034,1.798c-4.304,0.37-8.618,0.625-12.922,0.989c-6.758,0.572-13.51,1.207-20.267,1.786
		c-4.227,0.362-8.458,0.663-12.687,1.001c-7.538,0.603-15.073,1.254-22.615,1.806c-4.942,0.362-9.891,0.726-14.843,0.84
		c-9.632,0.222-19.306,1.641-28.868-0.785c-2.091-0.53-4.116-1.207-5.958-2.378c-3.717-2.363-3.976-5.909-0.564-8.711
		c4.114-3.378,9.014-5.248,13.921-7.058c18.263-6.734,37.094-11.529,55.935-16.279c20.411-5.145,40.986-9.584,61.593-13.851
		c13.19-2.731,26.454-5.111,39.699-7.571c10.3-1.913,20.602-3.826,30.939-5.521c9.593-1.573,19.23-2.881,28.855-4.26
		c8.809-1.263,17.614-2.573,26.445-3.661c6.561-0.809,13.169-1.223,19.741-1.942c12.74-1.393,25.509-2.252,38.324-2.395
		c7.906-0.089,15.822-0.108,23.695,0.622c4.503,0.417,9.062,0.744,13.418,2.211c0.817,0.275,1.61,0.54,2.27,1.089
		c1.289,1.073,1.317,2.203,0.013,3.269c-1.978,1.615-4.442,2.356-6.82,2.557c-4.986,0.42-9.972,0.576-15.033,0.263
		c-8.08-0.501-16.205-0.275-24.316,0.635c-5.344,0.6-10.726,1.042-16.087,1.572c-5.566,0.55-11.102,1.418-16.647,2.173
		c-5.846,0.796-11.691,1.599-17.531,2.444c-6.443,0.933-12.889,1.853-19.314,2.896c-6.95,1.129-13.876,2.401-20.815,3.597
		c-8.304,1.432-16.628,2.754-24.91,4.301c-10.085,1.884-20.132,3.976-30.203,5.934c-14.576,2.833-29.083,5.979-43.569,9.244
		c-20.148,4.542-40.207,9.421-60.098,14.982C88.541,268.815,86.73,269.345,84.916,269.865z"/>
	<path d="M543.547,258.125c3.556-0.177,6.727,0.375,9.747,1.684c1.133,0.491,2.211,1.071,2.355,2.572
		c0.146,1.511-0.791,2.212-1.847,2.934c-2.088,1.428-4.485,2.208-6.895,2.437c-4.436,0.422-8.9,1.088-13.379,0.121
		c-1.601-0.346-3.155-0.812-4.555-1.592c-1.872-1.042-1.94-3.472-0.228-4.799c2.193-1.701,4.827-2.521,7.47-2.8
		C538.727,258.418,541.241,257.712,543.547,258.125z"/>
</g>
</svg>
