<?xml version="1.0" encoding="iso-8859-1"?>
<!-- Generator: Adobe Illustrator 25.4.8, SVG Export Plug-In . SVG Version: 6.00 Build 0)  -->
<!DOCTYPE svg PUBLIC "-//W3C//DTD SVG 1.1//EN" "http://www.w3.org/Graphics/SVG/1.1/DTD/svg11.dtd" [
	<!ENTITY ns_extend "http://ns.adobe.com/Extensibility/1.0/">
	<!ENTITY ns_ai "http://ns.adobe.com/AdobeIllustrator/10.0/">
	<!ENTITY ns_graphs "http://ns.adobe.com/Graphs/1.0/">
	<!ENTITY ns_vars "http://ns.adobe.com/Variables/1.0/">
	<!ENTITY ns_imrep "http://ns.adobe.com/ImageReplacement/1.0/">
	<!ENTITY ns_sfw "http://ns.adobe.com/SaveForWeb/1.0/">
	<!ENTITY ns_custom "http://ns.adobe.com/GenericCustomNamespace/1.0/">
	<!ENTITY ns_adobe_xpath "http://ns.adobe.com/XPath/1.0/">
]>
<svg version="1.1" id="Layer_1" xmlns:x="&ns_extend;" xmlns:i="&ns_ai;" xmlns:graph="&ns_graphs;"
	 xmlns="http://www.w3.org/2000/svg" xmlns:xlink="http://www.w3.org/1999/xlink" x="0px" y="0px" width="566.929px"
	 height="566.929px" viewBox="0 0 566.929 566.929" enable-background="new 0 0 566.929 566.929" xml:space="preserve">
<metadata>
	<sfw  xmlns="&ns_sfw;">
		<slices></slices>
		<sliceSourceBounds  bottomLeftOrigin="true" height="1171.67" width="16022.916" x="-7734.522" y="-1027.034">
			</sliceSourceBounds>
	</sfw>
</metadata>
<path d="M21.369,308.494c0.624-3.735,1.121-7.496,1.893-11.2c3.384-16.234,10.89-30.542,20.807-43.652
	c15.555-20.565,35.148-36.645,56.778-50.346c32.839-20.8,68.49-35.052,105.949-45.026c13.632-3.63,27.411-6.604,41.334-8.799
	c27.018-4.259,54.217-6.494,81.581-5.782c26.863,0.698,53.421,3.867,79.73,9.623c15.501,3.392,31.084,6.341,46.189,11.282
	c21.98,7.189,42.585,17.082,60.92,31.369c7.858,6.123,15.078,12.939,21.933,20.149c2.021,2.126,1.552,3.906-1.772,5.172
	c-2.159,0.822-2.217,1.419-1.057,3.28c5.344,8.572,7.77,17.964,7.008,28.057c-1.261,16.7-7.069,31.461-18.265,44.181
	c-16.182,18.385-35.459,32.889-56.09,45.74c-39.551,24.636-82.147,42.429-126.617,55.944c-21.547,6.548-43.431,11.733-65.613,15.595
	c-9.199,1.602-18.45,2.914-27.756,3.855c-8.445,0.854-16.881,1.66-25.358,2.163c-3.382,0.201-6.763,0.264-10.142,0.421
	c-0.853,0.039-1.765-0.16-2.493,0.51c-11.166,0-22.333,0-33.499,0c-0.568-0.525-1.294-0.48-1.978-0.497
	c-10.351-0.266-20.59-1.568-30.816-3.126c-15.086-2.299-29.855-5.843-44.185-11.08c-20.381-7.449-39.059-17.743-54.242-33.577
	c-11.613-12.111-19.735-26.137-22.712-42.855c-0.524-2.944-1.018-5.893-1.526-8.84C21.369,316.869,21.369,312.682,21.369,308.494z
	 M201.523,386.742c26.733-0.072,50.041-2.457,73.161-6.593c21.796-3.9,43.289-9.129,64.46-15.635
	c39.692-12.198,77.992-27.674,113.902-48.702c15.816-9.261,30.905-19.53,43.458-33.09c5.605-6.054,10.207-12.768,13.103-20.567
	c0.752-2.025,0.924-4.111,0.521-6.157c-0.915-4.653-2.8-8.92-5.658-12.732c-5.473-7.301-11.811-13.726-19.284-18.996
	c-0.78-0.55-1.95-1.031-1.981-1.941c-0.064-1.864-1.419-1.93-2.586-2.307c-29.083-9.402-59.039-14.698-89.235-18.794
	c-14.636-1.986-29.36-3.247-44.098-4.132c-11.303-0.679-22.64-1.083-33.961-1.067c-12.07,0.018-24.142,0.419-36.197,1.408
	c-8.88,0.728-17.726,1.654-26.578,2.638c-11.002,1.223-21.937,2.894-32.81,4.882c-22.944,4.195-45.614,9.581-67.864,16.64
	c-19.569,6.209-38.782,13.299-56.897,23.094c-2.081,1.125-3.963,2.444-5.485,4.321c-3.514,4.336-6.901,8.76-9.924,13.456
	c-7.092,11.019-12.255,22.864-13.698,35.944c-1.727,15.665,2.333,29.956,11.797,42.629c10.292,13.78,24.086,22.935,39.605,29.735
	c16.85,7.385,34.574,11.379,52.771,13.718C180.248,386.062,192.482,386.522,201.523,386.742z M481.885,203.975
	c-0.505-0.425-0.945-0.834-1.423-1.19c-15.863-11.811-33.362-20.559-51.796-27.516c-26.175-9.878-53.092-16.486-81.193-16.916
	c-16.931-0.259-33.882-0.656-50.797,1.357c-8.054,0.958-16.167,1.615-24.179,2.837c-13.298,2.028-26.519,4.536-39.605,7.729
	c-31.202,7.613-61.124,18.55-89.241,34.186c-5.27,2.931-10.469,6.01-15.369,9.553C245.193,177.726,363.026,176.545,481.885,203.975z
	 M86.124,377.227c8.077,6.666,17.084,11.83,26.631,16.077c25.122,11.175,51.748,15.225,78.934,16.127
	c17.318,0.575,34.578-0.736,51.782-2.954c11.933-1.539,23.787-3.493,35.54-5.978c34.193-7.232,67.41-17.634,99.592-31.293
	c8.601-3.651,17.117-7.493,25.617-11.76c-1.049-0.46-1.7,0.182-2.362,0.435c-52.429,20.069-106.416,33.58-162.428,38.487
	c-9.237,0.809-18.514,1.4-27.782,1.558c-19.328,0.33-38.64,0.146-57.869-2.467c-13.649-1.855-27.115-4.435-40.351-8.25
	C104.11,384.522,95.076,381.089,86.124,377.227z"/>
</svg>
