<?xml version="1.0" encoding="iso-8859-1"?>
<!-- Generator: Adobe Illustrator 25.4.8, SVG Export Plug-In . SVG Version: 6.00 Build 0)  -->
<!DOCTYPE svg PUBLIC "-//W3C//DTD SVG 1.1//EN" "http://www.w3.org/Graphics/SVG/1.1/DTD/svg11.dtd" [
	<!ENTITY ns_extend "http://ns.adobe.com/Extensibility/1.0/">
	<!ENTITY ns_ai "http://ns.adobe.com/AdobeIllustrator/10.0/">
	<!ENTITY ns_graphs "http://ns.adobe.com/Graphs/1.0/">
	<!ENTITY ns_vars "http://ns.adobe.com/Variables/1.0/">
	<!ENTITY ns_imrep "http://ns.adobe.com/ImageReplacement/1.0/">
	<!ENTITY ns_sfw "http://ns.adobe.com/SaveForWeb/1.0/">
	<!ENTITY ns_custom "http://ns.adobe.com/GenericCustomNamespace/1.0/">
	<!ENTITY ns_adobe_xpath "http://ns.adobe.com/XPath/1.0/">
]>
<svg version="1.1" id="Layer_1" xmlns:x="&ns_extend;" xmlns:i="&ns_ai;" xmlns:graph="&ns_graphs;"
	 xmlns="http://www.w3.org/2000/svg" xmlns:xlink="http://www.w3.org/1999/xlink" x="0px" y="0px" width="566.929px"
	 height="566.929px" viewBox="0 0 566.929 566.929" enable-background="new 0 0 566.929 566.929" xml:space="preserve">
<metadata>
	<sfw  xmlns="&ns_sfw;">
		<slices></slices>
		<sliceSourceBounds  bottomLeftOrigin="true" height="1171.67" width="16022.916" x="-7734.522" y="-1027.034">
			</sliceSourceBounds>
	</sfw>
</metadata>
<path d="M335.779,293.806c11.038-17.11,19.628-34.428,28.026-51.856c12.246-25.413,23.044-51.5,35.72-76.712
	c1.05-2.089,2.26-4.097,3.315-6.183c5.534-10.94,15.069-14.883,26.656-16.003c8.263-0.798,16.435-1.439,24.637,0.142
	c3.378,0.651,6.608,1.759,9.535,3.607c5.451,3.443,4.794,9.388,4.924,14.371c0.289,11.057-0.883,22.11-2.146,33.114
	c-1.347,11.733-2.664,23.472-4.172,35.185c-1.683,13.066-3.574,26.106-5.36,39.159c-1.658,12.123-3.235,24.257-4.962,36.37
	c-1.702,11.942-3.544,23.864-5.33,35.794c-1.329,8.879-2.587,17.769-4.042,26.627c-0.464,2.821,1.492,3.083,3.189,3.498
	c6.79,1.659,13.609,3.301,19.91,6.358c3.318,1.61,8.286,2.638,7.693,7.554c-0.596,4.934-5.641,5.564-9.468,6.98
	c-6.98,2.582-14.383,2.344-21.639,2.739c-3.082,0.168-4.075,1.254-4.37,4.015c-0.545,5.096-1.337,10.166-1.912,15.259
	c-0.44,3.904-2.911,6.265-6.207,7.49c-13.969,5.192-28.274,5.965-42.674,2.133c-4.167-1.109-6.842-3.856-6.506-8.926
	c0.514-7.784-0.566-15.642,0.908-23.398c0.563-2.961-0.365-3.994-3.603-4.033c-27.689-0.337-55.348,0.518-82.98,2.102
	c-15.69,0.9-31.381,2.056-47.009,3.694c-36.638,3.84-73.15,8.689-109.442,15.071c-1.996,0.351-3.786,1.069-5.41,3.006
	c-3.607,4.302-9.465,5.787-14.39,5.677c-10.285-0.23-19.197,3.914-28.735,6.219c-15.006,3.626-30.47,3.824-45.84,1.719
	c-2.912-0.399-5.673-1.662-8.139-3.352c-3.436-2.354-3.752-6.157-0.689-9.091c3.092-2.962,6.965-4.628,10.871-6.209
	c10.534-4.262,21.477-7.201,32.517-9.731c2.944-0.675,3.494-1.925,3.593-4.664c0.843-23.242,1.764-46.482,2.854-69.714
	c0.76-16.206,1.788-32.4,2.761-48.595c1.216-20.243,2.408-40.489,3.792-60.721c0.712-10.411,1.839-20.794,2.739-31.192
	c0.421-4.857,3.163-7.841,7.364-9.967c5.819-2.945,12.119-3.84,18.434-4.415c8.251-0.751,16.509-0.705,24.637,1.452
	c6.511,1.728,10.363,5.53,11.368,12.437c2.389,16.411,4.887,32.809,7.643,49.162c4.921,29.195,10.357,58.283,20.556,86.226
	c0.515,1.411,1.118,2.79,1.97,4.905c4.419-7.98,7.359-15.764,10.299-23.526c12.838-33.885,21.594-68.992,30.97-103.912
	c2.575-9.591,5.477-19.086,8.313-28.602c2.945-9.882,9.117-15.723,19.021-17.714c11.686-2.349,23.42-2.752,35.132-0.09
	c6.508,1.479,10.515,5.567,12.577,11.879c3.812,11.666,6.047,23.697,8.471,35.682c6.385,31.571,11.624,63.414,22.547,93.893
	C334.212,290.156,334.85,291.546,335.779,293.806z M265.779,254.34c-1.288,0.35-1.301,1.333-1.574,2.231
	c-2.485,8.167-4.844,16.378-7.56,24.468c-6.741,20.078-13.701,40.061-25.027,58.194c-7.307,11.699-17.425,19.23-30.858,22.551
	c-4.655,1.151-9.352,0.414-13.936,1.183c-7.656,1.284-15.157,0.872-22.726-0.662c-10.054-2.038-17.947-7.355-24.522-16.224
	c-1.082,13.366-2.08,25.696-3.09,38.175c13.654-2.197,26.732-4.541,39.883-6.361c19.601-2.712,39.224-5.308,58.891-7.475
	c17.557-1.934,35.159-3.711,52.79-4.653c17.558-0.938,35.124-1.908,52.728-2.262c12.976-0.261,25.915-0.559,38.858,0.289
	c3.523,0.231,4.581-1.265,4.837-4.478c0.48-6.02,1.097-12.041,1.961-18.018c2.304-15.94,4.769-31.857,7.297-48.624
	c-3.917,5.563-7.239,10.448-10.731,15.208c-9.731,13.261-22.305,21.845-38.927,24.254c-5.636,0.817-11.218,0.264-16.813,0.719
	c-21.184,1.724-35.003-6.866-42.367-21.029c-2.007-3.861-3.957-7.769-5.63-11.782C273.121,285.31,269.482,269.814,265.779,254.34z"
	/>
</svg>
