<?xml version="1.0" encoding="iso-8859-1"?>
<!-- Generator: Adobe Illustrator 25.4.8, SVG Export Plug-In . SVG Version: 6.00 Build 0)  -->
<!DOCTYPE svg PUBLIC "-//W3C//DTD SVG 1.1//EN" "http://www.w3.org/Graphics/SVG/1.1/DTD/svg11.dtd" [
	<!ENTITY ns_extend "http://ns.adobe.com/Extensibility/1.0/">
	<!ENTITY ns_ai "http://ns.adobe.com/AdobeIllustrator/10.0/">
	<!ENTITY ns_graphs "http://ns.adobe.com/Graphs/1.0/">
	<!ENTITY ns_vars "http://ns.adobe.com/Variables/1.0/">
	<!ENTITY ns_imrep "http://ns.adobe.com/ImageReplacement/1.0/">
	<!ENTITY ns_sfw "http://ns.adobe.com/SaveForWeb/1.0/">
	<!ENTITY ns_custom "http://ns.adobe.com/GenericCustomNamespace/1.0/">
	<!ENTITY ns_adobe_xpath "http://ns.adobe.com/XPath/1.0/">
]>
<svg version="1.1" id="Layer_1" xmlns:x="&ns_extend;" xmlns:i="&ns_ai;" xmlns:graph="&ns_graphs;"
	 xmlns="http://www.w3.org/2000/svg" xmlns:xlink="http://www.w3.org/1999/xlink" x="0px" y="0px" width="566.929px"
	 height="566.929px" viewBox="0 0 566.929 566.929" enable-background="new 0 0 566.929 566.929" xml:space="preserve">
<metadata>
	<sfw  xmlns="&ns_sfw;">
		<slices></slices>
		<sliceSourceBounds  bottomLeftOrigin="true" height="1171.67" width="16022.916" x="-7734.522" y="-1027.034">
			</sliceSourceBounds>
	</sfw>
</metadata>
<g>
	<path d="M472.317,109.401c-2.709,3.489-5.412,6.978-8.122,10.467c3.093,59.87,9.304,120.551,7.877,180.396
		c-0.358,15.238-18.733,8.82-19.846-2.892c-4.702-49.548-8.524-100.687-8.587-151.008c-1.044,1.339-2.087,2.678-3.124,4.017
		c-19.513,25.158-39.031,50.309-58.55,75.466c19.858,53.565,39.723,107.13,59.575,160.695c6.255,16.86-19.236,18.054-28.458,12.044
		c-12.484-8.134-24.975-16.275-37.46-24.416c-24.07-15.697-48.14-31.387-72.21-47.078c-25.855,33.323-51.704,66.64-77.56,99.957
		c5.563,25.774,7.116,52.188,6.569,78.547c-0.258,12.371,3.432,54.665-17.947,49.114c-20.833-5.412-14.704-40.257-14.49-56.054
		c0.264-19.72-1.496-39.157-2.98-58.688c-10.479-4.237-18.72-14.609-11.315-24.152c7.543-9.719,15.087-19.437,22.624-29.162
		c2.483-14.578,4.96-29.162,7.443-43.74c3.728-21.895,7.455-43.784,11.177-65.672c-36.29-23.661-72.575-47.317-108.865-70.972
		c-10.102-6.582-13.471-21.769,0.629-25.893c13.792-4.042,27.59-8.084,41.389-12.126c29.954-8.769,59.914-17.545,89.874-26.314
		c6.72-39.528,13.446-79.049,20.173-118.571c3.395-19.94,32.129-12.491,37.648,2.401c5.632,15.175,11.252,30.35,16.885,45.531
		c5.431,14.66,10.863,29.325,16.3,43.985c35.234-10.316,70.462-20.631,105.691-30.947
		C459.443,80.591,483.739,94.659,472.317,109.401z M232.365,245.297c3.784-22.272,7.581-44.551,11.372-66.823
		c-26.195,7.669-52.396,15.338-78.591,23.008c3.42,2.225,6.833,4.451,10.247,6.676C194.383,220.541,213.374,232.919,232.365,245.297
		z M270.943,305.927c-2.873-1.867-5.739-3.734-8.606-5.607c-1.213,7.135-2.426,14.263-3.64,21.392
		C262.778,316.45,266.857,311.189,270.943,305.927z M285.144,166.348c-5.79,34.009-11.579,68.023-17.363,102.032
		c7.147,4.664,14.295,9.329,21.449,13.987c17.155-22.109,34.31-44.224,51.465-66.332c-7.349-19.833-14.704-39.666-22.052-59.499
		c-0.333,0.101-0.666,0.195-0.993,0.295c1.54,24.24,2.898,48.756,1.81,72.719c-0.691,15.269-18.538,8.782-19.852-2.898
		c-2.357-21.015-2.779-42.338-3.659-63.472C292.342,164.235,288.74,165.292,285.144,166.348z M291.355,129.812
		c1.075-0.314,2.156-0.629,3.231-0.949c-0.107-3.244-0.239-6.494-0.327-9.744c-0.05-1.829-0.101-3.659-0.151-5.494
		C293.19,119.025,292.273,124.418,291.355,129.812z M356.493,258.655c-11.604,14.955-23.203,29.91-34.813,44.871
		c22.618,14.735,45.229,29.482,67.847,44.224c-0.641-1.722-1.282-3.451-1.924-5.18C377.231,314.602,366.865,286.629,356.493,258.655
		z M366.149,183.22c13.591-17.513,27.175-35.027,40.76-52.534c-18.111,5.306-36.221,10.605-54.332,15.91
		C357.103,158.804,361.629,171.012,366.149,183.22z"/>
</g>
</svg>
