<?xml version="1.0" encoding="iso-8859-1"?>
<!-- Generator: Adobe Illustrator 25.4.8, SVG Export Plug-In . SVG Version: 6.00 Build 0)  -->
<!DOCTYPE svg PUBLIC "-//W3C//DTD SVG 1.1//EN" "http://www.w3.org/Graphics/SVG/1.1/DTD/svg11.dtd" [
	<!ENTITY ns_extend "http://ns.adobe.com/Extensibility/1.0/">
	<!ENTITY ns_ai "http://ns.adobe.com/AdobeIllustrator/10.0/">
	<!ENTITY ns_graphs "http://ns.adobe.com/Graphs/1.0/">
	<!ENTITY ns_vars "http://ns.adobe.com/Variables/1.0/">
	<!ENTITY ns_imrep "http://ns.adobe.com/ImageReplacement/1.0/">
	<!ENTITY ns_sfw "http://ns.adobe.com/SaveForWeb/1.0/">
	<!ENTITY ns_custom "http://ns.adobe.com/GenericCustomNamespace/1.0/">
	<!ENTITY ns_adobe_xpath "http://ns.adobe.com/XPath/1.0/">
]>
<svg version="1.1" id="Layer_1" xmlns:x="&ns_extend;" xmlns:i="&ns_ai;" xmlns:graph="&ns_graphs;"
	 xmlns="http://www.w3.org/2000/svg" xmlns:xlink="http://www.w3.org/1999/xlink" x="0px" y="0px" width="566.929px"
	 height="566.929px" viewBox="0 0 566.929 566.929" enable-background="new 0 0 566.929 566.929" xml:space="preserve">
<metadata>
	<sfw  xmlns="&ns_sfw;">
		<slices></slices>
		<sliceSourceBounds  bottomLeftOrigin="true" height="1171.67" width="16022.916" x="-7734.522" y="-1027.034">
			</sliceSourceBounds>
	</sfw>
</metadata>
<g>
	<path d="M303.146,200.742c0.221-5.391,0.45-10.782,0.621-16.175c0.238-7.494,0.939-16.207,0.399-24.534
		c-5.237,2.647-10.432,5.382-15.56,8.235c-13.438,7.477-26.268,16.123-38.697,25.173c-0.465,0.339-0.951,0.649-1.451,0.938
		c-0.287,12.242-1.153,24.227-2.097,36.355c14.572-9.816,29.749-18.842,44.794-27.618
		C294.748,201.02,298.949,200.368,303.146,200.742z"/>
	<path d="M247.679,294.47c16.97-0.882,34.486-2.307,51.859-2.79c0.689-17.87,1.378-35.74,2.082-53.609
		c-27.504,16.432-54.419,34.304-75.372,58.063C233.382,295.438,240.525,294.842,247.679,294.47z"/>
	<path d="M505.295,240.433c-0.28-0.522-0.598-1.015-0.887-1.53c1.207-9.496,1.041-19.304-0.269-28.413
		c-4.196-29.177-20.124-54.259-39.219-75.838C420.542,84.5,359.921,39.96,291.581,33.677
		c-64.026-5.886-125.555,24.442-169.877,68.628c-6.569,6.549-11.997,13.794-16.406,21.479
		c-28.303,15.605-55.843,35.613-72.64,62.373c-22.189,35.351-16.851,85.628-6.184,124.06
		c10.365,37.345,29.007,72.743,53.059,103.076c21.664,27.321,47.914,51.481,76.931,70.776
		c36.166,24.049,77.719,47.876,122.623,45.477c38.354-2.049,77.721-27.388,111.313-44.571
		c31.028-15.872,63.076-35.233,85.317-62.623c24.074-29.647,37.727-68.132,36.474-106.311
		C523.97,292.753,516.931,262.135,505.295,240.433z M434.607,272.288c-18.87,61.828-69.74,105.064-129.098,126.232
		c0.01,24.417-0.958,48.761-5.998,72.778c-3.276,15.613-18.634,0.231-19.398-8.492c-1.657-18.905-1.094-37.914,0.589-56.829
		c-26.304,6.461-53.577,8.783-79.971,6.628c-43.423-3.545-89.555-30.546-90.77-79.013c-0.758-30.266,17.706-58.041,34.132-81.985
		c19.936-29.058,43.194-56.95,71.19-78.562c0.551-0.425,1.16-0.739,1.774-1.04c0.343-0.32,0.667-0.64,1.05-0.96
		c20.457-17.098,112.463-89.877,131.253-43.396c4.799,11.871,3.559,27.498,3.24,39.914c-0.432,16.793-1.236,33.585-1.875,50.371
		c-1.181,30.997-2.437,61.992-3.662,92.988c-0.583,14.764-21.778,24.109-34.025,22.357c-21.304-3.048-39.412-8.259-61.37-7.551
		c-19.252,0.62-38.275,3.165-57.203,6.616c-12.196,2.223-33.699-7.747-25.452-22.886c14.855-27.269,36.353-48.55,60.56-66.786
		c-2.04-2.935-3.101-6.693-3.1-10.054c0.001-6.39-0.002-12.722,0.042-19.045c-16.864,20.221-34.318,39.674-48.614,62.275
		c-15.925,25.175-29.48,54.864-3.657,78.869c31.069,28.882,90.546,17.47,126.794,6.274c52.027-16.07,88.24-67.758,97.051-119.827
		c3.18-18.791,4.768-38.936,0.875-57.735c-2.032-9.813-5.377-19.216-12.209-26.763c-1.911-2.111-4.071-3.88-6.331-5.512
		c4.621,25.569,5.979,52.199,8.186,77.772c1.389,16.098-17.074,14.212-18.887,0.18c-4.149-32.131-7.833-64.35-11.836-96.493
		c-0.01-0.077-0.002-0.141-0.01-0.217c-2.89-5.178-3.628-11.146,1.988-15.278c8.219-6.047,23.657-2.77,32.582,0.472
		c19.445,7.062,33.629,21.195,41.835,39.979C449.747,192.965,445.625,236.185,434.607,272.288z"/>
</g>
</svg>
