<?xml version="1.0" encoding="iso-8859-1"?>
<!-- Generator: Adobe Illustrator 25.4.8, SVG Export Plug-In . SVG Version: 6.00 Build 0)  -->
<!DOCTYPE svg PUBLIC "-//W3C//DTD SVG 1.1//EN" "http://www.w3.org/Graphics/SVG/1.1/DTD/svg11.dtd" [
	<!ENTITY ns_extend "http://ns.adobe.com/Extensibility/1.0/">
	<!ENTITY ns_ai "http://ns.adobe.com/AdobeIllustrator/10.0/">
	<!ENTITY ns_graphs "http://ns.adobe.com/Graphs/1.0/">
	<!ENTITY ns_vars "http://ns.adobe.com/Variables/1.0/">
	<!ENTITY ns_imrep "http://ns.adobe.com/ImageReplacement/1.0/">
	<!ENTITY ns_sfw "http://ns.adobe.com/SaveForWeb/1.0/">
	<!ENTITY ns_custom "http://ns.adobe.com/GenericCustomNamespace/1.0/">
	<!ENTITY ns_adobe_xpath "http://ns.adobe.com/XPath/1.0/">
]>
<svg version="1.1" id="Layer_1" xmlns:x="&ns_extend;" xmlns:i="&ns_ai;" xmlns:graph="&ns_graphs;"
	 xmlns="http://www.w3.org/2000/svg" xmlns:xlink="http://www.w3.org/1999/xlink" x="0px" y="0px" width="566.929px"
	 height="566.929px" viewBox="0 0 566.929 566.929" enable-background="new 0 0 566.929 566.929" xml:space="preserve">
<metadata>
	<sfw  xmlns="&ns_sfw;">
		<slices></slices>
		<sliceSourceBounds  bottomLeftOrigin="true" height="1171.67" width="16022.916" x="-7734.522" y="-1027.034">
			</sliceSourceBounds>
	</sfw>
</metadata>
<path d="M525.743,259.286c-3.408,4.495-8.312,6.794-13.284,8.945c-14.831,6.417-30.329,11.01-45.469,16.582
	c-5.742,2.113-11.566,3.36-17.668,3.165c-2.268-0.073-4.549-0.335-6.578-1.543c-1.902-1.132-2.005-2.419-0.232-3.711
	c2.575-1.876,5.613-2.813,8.518-3.986c11.142-4.498,22.315-8.919,33.476-13.37c0.416-0.166,0.825-0.35,1.622-0.69
	c-4.85-0.482-9.184-1.407-13.51-2.383c-1.772-0.4-3.612-0.379-5.405-0.499c-6.576-0.441-13.169-0.619-19.755-0.9
	c-11.25-0.479-22.51-0.601-33.762-0.349c-17.045,0.381-34.094,0.624-51.127,1.485c-13.191,0.667-26.393,1.103-39.585,1.735
	c-12.115,0.581-24.222,1.326-36.336,1.924c-7.402,0.366-14.815,0.524-22.217,0.897c-9.634,0.486-19.278,0.555-28.909,0.309
	c-6.795-0.174-13.61-0.748-20.098-3.145c-1.389-0.513-2.69-1.155-3.892-2.041c-3.1-2.286-3.632-5.638-1.33-8.713
	c3.094-4.132,7.407-6.793,11.668-9.454c11.795-7.369,24.309-13.459,36.433-20.246c4.027-2.254,8.022-4.559,11.735-7.317
	c0.523-0.388,1.161-0.66,1.399-1.551c-2.805,0.148-5.532,0.213-8.244,0.455c-3.254,0.29-6.498,0.703-9.741,1.11
	c-4.757,0.598-9.515,1.2-14.262,1.869c-4.813,0.679-9.618,1.418-14.42,2.175c-6.05,0.955-12.105,1.887-18.137,2.952
	c-7.8,1.378-15.589,2.828-23.365,4.337c-10.388,2.016-20.782,4.015-31.133,6.208c-13.285,2.815-26.534,5.8-39.792,8.741
	c-20.472,4.541-40.839,9.522-61.132,14.802c-4.651,1.21-9.248,2.703-13.962,3.572c-5.075,0.936-10.263,1.254-15.356-0.189
	c-1.143-0.324-2.366-0.724-2.65-2.13c-0.322-1.597,0.845-2.32,1.972-2.922c4.402-2.35,9.233-3.549,13.976-4.907
	c23.372-6.696,46.977-12.482,70.666-17.941c13.882-3.199,27.797-6.24,41.743-9.136c10.557-2.192,21.157-4.184,31.75-6.202
	c8.626-1.643,17.257-3.264,25.908-4.762c6.291-1.09,12.617-1.976,18.931-2.932c6.251-0.947,12.486-2.039,18.764-2.748
	c5.707-0.644,11.424-1.252,17.146-1.786c6.641-0.621,13.276-0.89,19.916-0.668c5.059,0.169,10.132,0.64,14.876,2.743
	c3.301,1.463,4.385,2.917,4.292,5.784c-0.045,1.388-0.784,2.383-1.629,3.351c-4.047,4.634-9.331,7.616-14.514,10.688
	c-12.08,7.16-24.736,13.3-36.736,20.61c-2.922,1.78-5.757,3.677-8.432,5.806c-0.71,0.566-1.513,1.125-1.699,2.256
	c6.737,0.936,13.46,0.285,20.157,0.501c6.267,0.202,12.511-0.389,18.771-0.502c6.029-0.109,12.063-0.533,18.098-0.778
	c5.693-0.232,11.385-0.551,17.078-0.812c5.693-0.261,11.387-0.541,17.08-0.806c6.167-0.287,12.335-0.526,18.501-0.808
	c7.181-0.329,14.364-0.516,21.543-0.811c10.357-0.426,20.722-0.449,31.072-0.841c12.609-0.478,25.208-0.184,37.81-0.279
	c6.196-0.047,12.393,0.342,18.589,0.495c2.372,0.058,4.318-0.17,6.421-1.298c3.82-2.048,8.147-2.36,12.379-2.867
	c5.778-0.693,11.576-0.272,17.335,0.063c9.12,0.531,18.265,1.179,27.064,3.988c2.961,0.945,5.738,2.233,7.668,4.837
	C525.743,256.859,525.743,258.073,525.743,259.286z"/>
</svg>
