<?xml version="1.0" encoding="iso-8859-1"?>
<!-- Generator: Adobe Illustrator 25.4.8, SVG Export Plug-In . SVG Version: 6.00 Build 0)  -->
<!DOCTYPE svg PUBLIC "-//W3C//DTD SVG 1.1//EN" "http://www.w3.org/Graphics/SVG/1.1/DTD/svg11.dtd" [
	<!ENTITY ns_extend "http://ns.adobe.com/Extensibility/1.0/">
	<!ENTITY ns_ai "http://ns.adobe.com/AdobeIllustrator/10.0/">
	<!ENTITY ns_graphs "http://ns.adobe.com/Graphs/1.0/">
	<!ENTITY ns_vars "http://ns.adobe.com/Variables/1.0/">
	<!ENTITY ns_imrep "http://ns.adobe.com/ImageReplacement/1.0/">
	<!ENTITY ns_sfw "http://ns.adobe.com/SaveForWeb/1.0/">
	<!ENTITY ns_custom "http://ns.adobe.com/GenericCustomNamespace/1.0/">
	<!ENTITY ns_adobe_xpath "http://ns.adobe.com/XPath/1.0/">
]>
<svg version="1.1" id="Layer_1" xmlns:x="&ns_extend;" xmlns:i="&ns_ai;" xmlns:graph="&ns_graphs;"
	 xmlns="http://www.w3.org/2000/svg" xmlns:xlink="http://www.w3.org/1999/xlink" x="0px" y="0px" width="566.929px"
	 height="566.929px" viewBox="0 0 566.929 566.929" enable-background="new 0 0 566.929 566.929" xml:space="preserve">
<metadata>
	<sfw  xmlns="&ns_sfw;">
		<slices></slices>
		<sliceSourceBounds  bottomLeftOrigin="true" height="1171.67" width="16022.916" x="-7734.522" y="-1027.034">
			</sliceSourceBounds>
	</sfw>
</metadata>
<path d="M79.56,289.368c2.646-3.777,4.231-8.121,6.544-12.098c15.897-27.344,44.38-41.979,75.609-37.561
	c38.544,5.453,66.765,25.606,83.659,61.015c6.957,14.581,11.205,29.987,14.004,45.84c0.175,0.993-0.04,2.155,1.001,3.126
	c50.469-72.183,103.002-142.646,163.671-207.674c-3.03,0.343-5.413,0.484-7.748,0.899c-10.556,1.876-20.499-0.68-30.169-4.428
	c-3.537-1.371-6.904-3.489-9.401-6.568c-2.667-3.289-2.224-5.682,1.621-7.417c6.792-3.064,14.055-4.723,21.229-6.585
	c14.238-3.695,28.516-7.202,43.221-8.604c14.806-1.411,28.577,1.991,41.399,9.152c9.901,5.53,13.102,12.817,11.212,23.97
	c-1.326,7.821-3.457,15.434-5.848,23.006c-3.815,12.082-7.845,24.1-11.511,36.218c-1.675,5.537-4.14,10.819-5.224,16.574
	c-0.7,3.717-2.931,4.9-8.365,4.335c-8.861-0.92-17.161-3.683-24.511-8.923c-2.569-1.831-2.872-4.089-2.036-7.031
	c2.157-7.596,4.025-15.274,6.072-22.903c0.86-3.204,1.892-6.362,2.815-9.55c0.313-1.083,1.243-2.094,0.263-3.758
	c-5.062,5.683-10.056,11.205-14.957,16.808c-46.87,53.587-89.212,110.647-129.76,169.09c-9.446,13.615-18.547,27.48-28.959,40.419
	c-5.611,6.972-11.655,8.743-22.558,5.888c-5.492-1.438-10.991-2.866-15.93-5.944c-4.887-3.046-8.613-6.772-9.221-12.788
	c-1.131-11.197-2.034-22.42-3.346-33.595c-2.179-18.566-6.292-36.68-14.047-53.787c-5.043-11.124-11.755-21.082-20.32-29.951
	c-8.348-8.644-17.607-9.452-28.173-5.573c-16.048,5.892-28.185,16.697-36.261,31.338c-23.701,42.964-17.148,83.691,10.964,122.059
	c12.271,16.748,28.498,29.409,45.548,41.011c4.405,2.998,8.757,6.074,13.175,9.053c0.928,0.626,1.582,1.427,2.217,2.295
	c2.005,2.738,1.327,4.997-1.993,5.675c-4.138,0.845-8.232,0.285-12.357-0.714c-17.458-4.225-30.609-15.861-44.512-26.028
	c-17.664-12.917-33.183-28.114-45.165-46.61c-16.119-24.882-23.358-51.909-19.304-81.575c0.753-5.509,1.69-10.991,3.648-16.24
	c0.332-0.891,0.789-1.796,0.37-2.799C77.27,295.414,78.415,292.391,79.56,289.368z"/>
</svg>
