<?xml version="1.0" encoding="iso-8859-1"?>
<!-- Generator: Adobe Illustrator 25.4.8, SVG Export Plug-In . SVG Version: 6.00 Build 0)  -->
<!DOCTYPE svg PUBLIC "-//W3C//DTD SVG 1.1//EN" "http://www.w3.org/Graphics/SVG/1.1/DTD/svg11.dtd" [
	<!ENTITY ns_extend "http://ns.adobe.com/Extensibility/1.0/">
	<!ENTITY ns_ai "http://ns.adobe.com/AdobeIllustrator/10.0/">
	<!ENTITY ns_graphs "http://ns.adobe.com/Graphs/1.0/">
	<!ENTITY ns_vars "http://ns.adobe.com/Variables/1.0/">
	<!ENTITY ns_imrep "http://ns.adobe.com/ImageReplacement/1.0/">
	<!ENTITY ns_sfw "http://ns.adobe.com/SaveForWeb/1.0/">
	<!ENTITY ns_custom "http://ns.adobe.com/GenericCustomNamespace/1.0/">
	<!ENTITY ns_adobe_xpath "http://ns.adobe.com/XPath/1.0/">
]>
<svg version="1.1" id="Layer_1" xmlns:x="&ns_extend;" xmlns:i="&ns_ai;" xmlns:graph="&ns_graphs;"
	 xmlns="http://www.w3.org/2000/svg" xmlns:xlink="http://www.w3.org/1999/xlink" x="0px" y="0px" width="566.929px"
	 height="566.929px" viewBox="0 0 566.929 566.929" enable-background="new 0 0 566.929 566.929" xml:space="preserve">
<metadata>
	<sfw  xmlns="&ns_sfw;">
		<slices></slices>
		<sliceSourceBounds  bottomLeftOrigin="true" height="1171.67" width="16022.916" x="-7734.522" y="-1027.034">
			</sliceSourceBounds>
	</sfw>
</metadata>
<path d="M312.803,177.643c19.956-0.07,39.92,0.18,59.866-0.294c21.814-0.519,43.605-1.806,65.382-3.304
	c15.61-1.074,30.485-5.419,45.56-9.088c12.646-3.078,25.611-3.161,38.334-0.26c4.404,1.004,10.301,2.1,10.695,7.956
	c0.373,5.545-5.214,6.515-9.156,8.275c-4.794,2.141-9.876,3.48-15.021,4.471c-20.985,4.042-39.226,14.652-57.664,24.541
	c-46.395,24.883-89.666,54.613-131.622,86.304c-9.437,7.128-18.694,14.496-28.121,21.638c-2.705,2.049-3.608,4.24-3.147,7.747
	c1.021,7.755,0.305,15.626,0.396,23.428c0.188,16.113,0.815,32.213,1.629,48.281c0.99,19.518,2.202,39.044,4.333,58.499
	c1.661,15.157,2.803,30.372,4.055,45.572c0.35,4.253-1.633,7.447-5.571,9.174c-6.32,2.771-12.843,4.909-19.857,4.517
	c-7.749-0.434-15.514,0.637-23.267-1.55c-6.934-1.956-11.941-5.198-14.814-12.077c-10.98-26.292-22.199-52.484-33.363-78.699
	c-2.305-5.413-4.813-10.74-7.114-16.155c-0.972-2.288-1.647-3.514-4.119-1.127c-18.184,17.556-36.122,35.354-53.331,53.869
	c-7.827,8.422-15.45,17.038-23.028,25.686c-6.705,7.652-15.928,9.238-25.116,9.868c-9.493,0.651-19.138,0.715-28.374-2.727
	c-8.087-3.014-9.645-7.606-4.395-14.459c3.292-4.296,6.646-8.619,10.497-12.395c6.715-6.585,9.971-15.037,13.688-23.302
	c20.517-45.622,40.52-91.468,60.479-137.335c1.793-4.12,1.619-7.24-0.404-11.106c-19.228-36.76-38.357-73.565-61.491-108.107
	c-3.696-5.518-7.64-10.418-14.247-12.659c-3.317-1.125-6.198-3.262-8.731-5.727c-4.679-4.552-4.113-10.126,1.327-13.636
	c4.657-3.005,9.974-4.663,15.275-5.174c10.594-1.022,21.259-1.829,31.774,1.473c4.777,1.501,9.608,2.967,13.055,6.526
	c4.268,4.407,9.496,6.105,15.147,6.991c12.71,1.993,25.382,4.243,38.215,5.413c7.762,0.708,15.497,1.734,23.232,2.71
	c2.764,0.349,4.131-0.531,5.318-3.274c10.198-23.559,19.961-47.302,30.771-70.603c5.885-12.686,16.019-16.974,28.877-18.157
	c8.324-0.766,16.494-0.777,24.659,0.965c1.868,0.398,3.789,0.659,5.579,1.287c8.304,2.913,11.405,6.692,11.018,15.45
	c-0.456,10.331-1.692,20.633-2.753,30.93c-0.62,6.022-0.898,12.085-1.398,18.102c-0.753,9.05-1.977,18.084-2.273,27.186
	c-0.088,2.704,0.633,3.644,3.383,3.637c5.277-0.013,10.554,0.308,15.831,0.49C312.802,177.49,312.802,177.567,312.803,177.643z
	 M288.369,270.041c36.723-26.268,73.64-50.444,112.495-71.857c-1.439-0.489-2.801-0.697-4.126-0.558
	c-16.123,1.699-32.336,1.383-48.501,1.97c-17.671,0.641-35.383,0.271-53.076,0.155c-2.793-0.018-3.513,0.827-3.567,3.463
	c-0.098,4.779-0.391,9.549-0.882,14.329C288.952,234.661,289.259,251.875,288.369,270.041z M145.335,191.091
	c8.568,14.42,16.928,28.489,25.621,43.12c5.337-12.599,10.366-24.66,15.59-36.636c0.96-2.2,0.207-2.512-1.611-2.516
	c-6.24-0.011-12.324-1.535-18.579-1.736C159.548,193.105,152.77,191.924,145.335,191.091z M226.618,255.43
	c-6.516,14.71-13.022,29.425-19.563,44.124c-0.655,1.472-0.385,2.728,0.3,4.087c3.078,6.105,6.185,12.199,9.102,18.381
	c1.032,2.187,1.955,1.818,3.53,0.669c4.922-3.591,9.318-7.267,6.82-14.445c-0.543-1.561-0.159-3.486-0.035-5.232
	C227.899,287.238,226.672,271.439,226.618,255.43z"/>
</svg>
