<?xml version="1.0" encoding="iso-8859-1"?>
<!-- Generator: Adobe Illustrator 25.4.8, SVG Export Plug-In . SVG Version: 6.00 Build 0)  -->
<!DOCTYPE svg PUBLIC "-//W3C//DTD SVG 1.1//EN" "http://www.w3.org/Graphics/SVG/1.1/DTD/svg11.dtd" [
	<!ENTITY ns_extend "http://ns.adobe.com/Extensibility/1.0/">
	<!ENTITY ns_ai "http://ns.adobe.com/AdobeIllustrator/10.0/">
	<!ENTITY ns_graphs "http://ns.adobe.com/Graphs/1.0/">
	<!ENTITY ns_vars "http://ns.adobe.com/Variables/1.0/">
	<!ENTITY ns_imrep "http://ns.adobe.com/ImageReplacement/1.0/">
	<!ENTITY ns_sfw "http://ns.adobe.com/SaveForWeb/1.0/">
	<!ENTITY ns_custom "http://ns.adobe.com/GenericCustomNamespace/1.0/">
	<!ENTITY ns_adobe_xpath "http://ns.adobe.com/XPath/1.0/">
]>
<svg version="1.1" id="Layer_1" xmlns:x="&ns_extend;" xmlns:i="&ns_ai;" xmlns:graph="&ns_graphs;"
	 xmlns="http://www.w3.org/2000/svg" xmlns:xlink="http://www.w3.org/1999/xlink" x="0px" y="0px" width="566.929px"
	 height="566.929px" viewBox="0 0 566.929 566.929" enable-background="new 0 0 566.929 566.929" xml:space="preserve">
<metadata>
	<sfw  xmlns="&ns_sfw;">
		<slices></slices>
		<sliceSourceBounds  bottomLeftOrigin="true" height="1171.67" width="16022.916" x="-7734.522" y="-1027.034">
			</sliceSourceBounds>
	</sfw>
</metadata>
<g>
	<path d="M344.107,263.456c3.825,0.015,7.169-0.319,10.518-0.622c2.734-0.247,5.49-0.236,8.229-0.34
		c13.421-0.507,26.853-0.445,40.276-0.025c5.208,0.163,10.414,0.473,15.624,0.675c5.363,0.208,10.721,0.603,16.073,1.018
		c6.651,0.515,13.302,1.054,19.938,1.732c6.792,0.694,13.568,1.549,20.347,2.367c6.543,0.789,13.099,1.493,19.615,2.468
		c7.003,1.048,14.029,1.978,20.978,3.37c0.327,0.066,0.679,0.008,1.034,0.008c0.235-0.627-0.225-0.979-0.449-1.39
		c-6.806-12.479-13.203-25.162-18.967-38.159c-0.277-0.624-0.58-1.248-0.751-1.903c-0.495-1.889,0.064-3.264,1.888-4.116
		c5.956-2.782,12.071-3.098,18.282-0.91c1.369,0.482,2.253,1.502,2.788,2.858c6.846,17.348,15.839,33.597,25.498,49.493
		c1.034,1.702,2.555,3.072,2.117,5.325c-0.107,0.549,0.322,0.741,0.81,0.913c0.694,0.246,1.386,0.559,1.997,0.967
		c1.478,0.986,1.445,2.473-0.089,3.409c-1.574,0.96-3.364,1.673-5.141,1.702c-10.018,0.164-19.342,3.486-28.803,6.152
		c-8.667,2.442-16.992,5.791-25.21,9.501c-4.642,2.095-9.787,2.094-14.787,0.746c-0.998-0.269-2.264-0.486-2.449-1.822
		c-0.203-1.475,1.134-1.88,2.061-2.437c6.875-4.127,14.213-7.256,21.733-9.987c8.398-3.05,16.902-5.742,25.641-7.652
		c0.326-0.071,0.628-0.254,1.166-0.479c-3.012-0.927-5.909-1.343-8.778-1.856c-6.52-1.166-13.044-2.316-19.583-3.371
		c-4.313-0.696-8.656-1.213-12.985-1.81c-3.992-0.551-7.979-1.146-11.978-1.643c-3.444-0.428-6.903-0.741-10.354-1.112
		c-3.963-0.426-7.923-0.887-11.889-1.283c-3.01-0.301-6.025-0.547-9.041-0.778c-6.036-0.462-12.073-0.906-18.111-1.336
		c-2.283-0.163-4.57-0.153-6.86-0.322c-4.453-0.329-8.936-0.216-13.4-0.431c-8.03-0.386-16.064-0.471-24.094-0.273
		c-8.25,0.203-16.505,0.518-24.738,1.07c-6.522,0.437-13.025,1.222-19.517,2.013c-4.217,0.514-8.383,1.46-12.603,1.95
		c-4.19,0.487-8.422,0.798-12.628,0.021c-1.416-0.262-2.751-0.772-3.947-1.617c-2.344-1.655-2.37-3.893-0.038-5.558
		c1.357-0.969,2.859-1.677,4.361-2.385c7.978-3.76,15.891-7.643,23.031-12.893c2.03-1.493,4.011-3.073,5.394-5.241
		c1.108-1.737,0.702-2.364-1.303-2.585c-6.718-0.74-13.29,0.426-19.882,1.376c-26.891,3.873-53.043,10.933-79.087,18.435
		c-28.305,8.153-56.245,17.487-84.384,26.179c-18.532,5.724-37.154,11.133-56.114,15.266c-6.927,1.51-13.925,2.673-20.971,3.588
		c-9.849,1.279-19.724,1.732-29.615,1.255c-6.914-0.333-13.733-1.577-20.004-4.772c-3.43-1.747-6.431-3.991-7.685-7.903
		c-0.749-2.337-0.745-4.699-0.459-7.109c0.15-1.267,0.912-2.031,1.919-2.404c5.243-1.944,10.588-2.157,15.973-0.608
		c1.074,0.309,1.595,1.002,1.597,2.272c0.015,7.127,3.469,10.872,10.685,12.001c5.357,0.838,10.668,0.586,16.031,0.034
		c20.282-2.089,39.767-7.685,59.232-13.345c24.867-7.231,49.455-15.366,74.198-23.002c23.236-7.17,46.573-13.975,70.186-19.79
		c10.222-2.517,20.519-4.74,30.893-6.539c6.586-1.142,13.214-2.053,19.855-2.891c7.467-0.942,14.941-1.146,22.421-0.899
		c4.981,0.165,9.911,0.919,14.608,2.932c6.331,2.713,6.286,7.824,2.247,12.299c-3.245,3.595-7.065,6.494-11.081,9.156
		C345.204,262.657,344.849,262.927,344.107,263.456z"/>
	<path d="M39.604,254.191c2.125-0.216,4.087,0.166,5.988,0.783c1.888,0.613,2.221,1.655,1.05,3.207
		c-5.097,6.754-9.366,13.941-11.796,22.116c-0.303,1.018-1.137,1.651-2.042,1.959c-4.916,1.67-9.928,2.053-14.991,0.736
		c-1.735-0.451-2.201-1.428-1.775-3.25c2.02-8.659,6.215-16.148,12.191-22.683c1.486-1.625,3.492-2.246,5.506-2.479
		C35.704,254.352,37.681,253.78,39.604,254.191z"/>
</g>
</svg>
