<?xml version="1.0" encoding="iso-8859-1"?>
<!-- Generator: Adobe Illustrator 25.4.8, SVG Export Plug-In . SVG Version: 6.00 Build 0)  -->
<!DOCTYPE svg PUBLIC "-//W3C//DTD SVG 1.1//EN" "http://www.w3.org/Graphics/SVG/1.1/DTD/svg11.dtd" [
	<!ENTITY ns_extend "http://ns.adobe.com/Extensibility/1.0/">
	<!ENTITY ns_ai "http://ns.adobe.com/AdobeIllustrator/10.0/">
	<!ENTITY ns_graphs "http://ns.adobe.com/Graphs/1.0/">
	<!ENTITY ns_vars "http://ns.adobe.com/Variables/1.0/">
	<!ENTITY ns_imrep "http://ns.adobe.com/ImageReplacement/1.0/">
	<!ENTITY ns_sfw "http://ns.adobe.com/SaveForWeb/1.0/">
	<!ENTITY ns_custom "http://ns.adobe.com/GenericCustomNamespace/1.0/">
	<!ENTITY ns_adobe_xpath "http://ns.adobe.com/XPath/1.0/">
]>
<svg version="1.1" id="Layer_1" xmlns:x="&ns_extend;" xmlns:i="&ns_ai;" xmlns:graph="&ns_graphs;"
	 xmlns="http://www.w3.org/2000/svg" xmlns:xlink="http://www.w3.org/1999/xlink" x="0px" y="0px" width="566.929px"
	 height="566.929px" viewBox="0 0 566.929 566.929" enable-background="new 0 0 566.929 566.929" xml:space="preserve">
<metadata>
	<sfw  xmlns="&ns_sfw;">
		<slices></slices>
		<sliceSourceBounds  bottomLeftOrigin="true" height="1171.67" width="16022.916" x="-7734.522" y="-1027.034">
			</sliceSourceBounds>
	</sfw>
</metadata>
<path d="M164.205,403.615c-4.164,0.774-9.005-0.5-13.825-1.297c-10.4-1.721-15.845-8.417-16.019-19.478
	c-0.149-9.457-2.042-18.898-0.239-28.38c0.843-4.435-3.208-3.97-5.183-4.066c-7.554-0.365-15.005-1.444-22.429-2.639
	c-25.109-4.039-49.879-9.262-71.356-24.029c-9.584-6.59-17.519-14.791-19.202-26.855c-1.794-12.861,1.557-24.676,9.202-35.289
	c17.487-24.276,41.113-40.93,67.633-53.632c25.293-12.115,52.294-19.275,79.59-25.332c21.221-4.709,42.672-8.201,64.178-11.126
	c15.83-2.153,31.785-3.579,47.726-5.017c31.346-2.828,62.733-4.049,94.131-3.066c41.244,1.292,82.39,4.216,122.081,16.963
	c14.044,4.511,27.455,10.3,38.791,20.181c16.738,14.589,15.187,33.591,1.582,48.935c-16.824,18.975-38.552,30.751-61.038,41.198
	c-36.144,16.793-74.141,28.23-112.756,37.735c-24.569,6.048-49.394,10.928-74.402,14.602c-18.387,2.702-36.848,5.191-55.471,6.058
	c-10.203,0.475-20.377,1.587-30.58,2.068c-3.448,0.163-4.04,1.636-4.011,4.576c0.108,10.822-0.321,21.663,0.194,32.462
	c0.294,6.156-2.714,8.802-7.666,10.899c-8.387,3.552-17.308,3.65-26.123,4.511C167.695,403.726,166.355,403.615,164.205,403.615z
	 M206.482,318.846c5.186,1.688,10.346-0.286,15.546-0.655c9.772-0.693,19.597-1.099,29.282-2.458
	c19.654-2.756,39.26-5.816,58.7-9.959c38.931-8.297,77.124-18.888,113.407-35.529c15.644-7.175,30.779-15.267,42.765-28.091
	c8.071-8.636,9.132-16.875,2.827-23.899c-3.477-3.874-8.141-6.111-12.806-8.145c-15.652-6.823-32.381-9.55-49.112-11.38
	c-23.315-2.549-46.757-3.808-70.254-3.643c-18.025,0.127-35.997,1.327-53.956,2.548c-13.869,0.942-27.693,2.684-41.497,4.393
	c-10.035,1.242-20.013,2.962-29.994,4.605c-1.393,0.229-4.014,0.359-2.505,3.043c6.577,11.689,5.485,24.432,5.221,37.057
	C213.601,270.951,208.72,294.703,206.482,318.846z M141.863,251.135c-4.598,0.645-8.882,2.116-13.456,2.405
	c-4.524,0.286-9.077,1.293-13.578,0.73c-4.946-0.618-8.294,1.315-11.114,5.027c-4.34,5.713-8.43,11.512-10.67,18.48
	c-3.745,11.651-0.564,20.963,9.579,27.815c9.571,6.466,20.584,8.787,31.54,11.308c2.871,0.66,2.271-1.574,2.452-3.174
	c1.456-12.923,3.353-25.813,4.258-38.773C141.419,267.119,143.523,259.273,141.863,251.135z"/>
</svg>
