<?xml version="1.0" encoding="iso-8859-1"?>
<!-- Generator: Adobe Illustrator 25.4.8, SVG Export Plug-In . SVG Version: 6.00 Build 0)  -->
<!DOCTYPE svg PUBLIC "-//W3C//DTD SVG 1.1//EN" "http://www.w3.org/Graphics/SVG/1.1/DTD/svg11.dtd" [
	<!ENTITY ns_extend "http://ns.adobe.com/Extensibility/1.0/">
	<!ENTITY ns_ai "http://ns.adobe.com/AdobeIllustrator/10.0/">
	<!ENTITY ns_graphs "http://ns.adobe.com/Graphs/1.0/">
	<!ENTITY ns_vars "http://ns.adobe.com/Variables/1.0/">
	<!ENTITY ns_imrep "http://ns.adobe.com/ImageReplacement/1.0/">
	<!ENTITY ns_sfw "http://ns.adobe.com/SaveForWeb/1.0/">
	<!ENTITY ns_custom "http://ns.adobe.com/GenericCustomNamespace/1.0/">
	<!ENTITY ns_adobe_xpath "http://ns.adobe.com/XPath/1.0/">
]>
<svg version="1.1" id="Layer_1" xmlns:x="&ns_extend;" xmlns:i="&ns_ai;" xmlns:graph="&ns_graphs;"
	 xmlns="http://www.w3.org/2000/svg" xmlns:xlink="http://www.w3.org/1999/xlink" x="0px" y="0px" width="566.929px"
	 height="566.929px" viewBox="0 0 566.929 566.929" enable-background="new 0 0 566.929 566.929" xml:space="preserve">
<metadata>
	<sfw  xmlns="&ns_sfw;">
		<slices></slices>
		<sliceSourceBounds  bottomLeftOrigin="true" height="1171.67" width="16022.916" x="-7734.522" y="-1027.034">
			</sliceSourceBounds>
	</sfw>
</metadata>
<path d="M511.021,254.523c-5.674-2.969-11.607-2.733-17.366-3.259c-8.23-0.751-16.485-1.227-24.73-1.798
	c-3.318-0.23-6.652-0.368-9.966-0.47c-9.671-0.297-19.338-0.748-29.004-1.112c-37.564-1.416-75.139-1.39-112.716-1.282
	c-12.007,0.034-24.016,0.33-36.02,0.564c-6.499,0.127-13.01,0.068-19.503,0.373c-10.433,0.49-20.875,0.587-31.307,0.976
	c-8.028,0.299-16.059,0.567-24.084,0.916c-7.408,0.322-14.819,0.587-22.224,0.941c-6.167,0.295-12.336,0.584-18.502,0.902
	c-8.623,0.445-17.244,0.947-25.866,1.415c-7.3,0.397-14.595,0.941-21.896,1.367c-7.361,0.429-14.701,1.22-22.055,1.79
	c-4.832,0.375-9.68,0.559-14.507,0.976c-5.887,0.509-11.753,1.257-17.641,1.743c-4.596,0.379-9.163,0.974-13.745,1.447
	c-6.112,0.632-12.13,1.952-18.231,2.503c-5.252,0.474-10.614,1.464-15.809-0.565c-1.267-0.495-2.769-0.779-2.814-2.603
	c-0.044-1.788,1.444-2.344,2.634-2.878c3.599-1.615,7.492-2.201,11.344-2.91c9.362-1.724,18.803-2.924,28.244-4.082
	c8.049-0.988,16.137-1.668,24.213-2.433c8.237-0.78,16.477-1.543,24.722-2.226c6.779-0.562,13.566-1.017,20.353-1.48
	c9.247-0.632,18.495-1.259,27.746-1.818c3.006-0.182,6.017-0.258,9.027-0.452c7.863-0.507,15.752-0.619,23.618-1.082
	c6.788-0.399,13.581-0.619,20.371-0.935c8.419-0.393,16.841-0.603,25.259-0.934c10.595-0.417,21.193-0.61,31.788-0.936
	c17.034-0.524,34.075-0.552,51.107-0.96c23.249-0.557,46.495-0.242,69.741-0.279c12.083-0.02,24.17,0.315,36.253,0.519
	c10.909,0.184,21.82,0.575,32.731,0.872c10.432,0.284,20.855,0.891,31.282,1.375c0.69,0.032,1.371,0.232,2.058,0.338
	c1.118,0.173,1.885,0.078,2.588-1.185c1.846-3.322,5.352-4.351,8.691-5.149c6.831-1.634,13.736-2.112,20.828-1.588
	c8.224,0.608,16.329,1.572,24.242,3.877c3.166,0.922,6.18,2.231,8.91,4.177c3.641,2.596,4.292,7.006,0.872,10.514
	c-3.414,3.502-7.583,5.863-11.921,7.875c-14.102,6.538-28.492,12.422-43.428,16.735c-5.587,1.613-11.567,1.801-17.395,0.214
	c-0.851-0.232-1.596-0.608-2.297-1.053c-1.639-1.042-1.663-2.737-0.096-3.961c1.164-0.909,2.523-1.465,3.887-1.999
	c9.379-3.672,18.702-7.479,27.876-11.64C509.114,255.485,509.926,255.06,511.021,254.523z"/>
</svg>
