<?xml version="1.0" encoding="iso-8859-1"?>
<!-- Generator: Adobe Illustrator 25.4.8, SVG Export Plug-In . SVG Version: 6.00 Build 0)  -->
<!DOCTYPE svg PUBLIC "-//W3C//DTD SVG 1.1//EN" "http://www.w3.org/Graphics/SVG/1.1/DTD/svg11.dtd" [
	<!ENTITY ns_extend "http://ns.adobe.com/Extensibility/1.0/">
	<!ENTITY ns_ai "http://ns.adobe.com/AdobeIllustrator/10.0/">
	<!ENTITY ns_graphs "http://ns.adobe.com/Graphs/1.0/">
	<!ENTITY ns_vars "http://ns.adobe.com/Variables/1.0/">
	<!ENTITY ns_imrep "http://ns.adobe.com/ImageReplacement/1.0/">
	<!ENTITY ns_sfw "http://ns.adobe.com/SaveForWeb/1.0/">
	<!ENTITY ns_custom "http://ns.adobe.com/GenericCustomNamespace/1.0/">
	<!ENTITY ns_adobe_xpath "http://ns.adobe.com/XPath/1.0/">
]>
<svg version="1.1" id="Layer_1" xmlns:x="&ns_extend;" xmlns:i="&ns_ai;" xmlns:graph="&ns_graphs;"
	 xmlns="http://www.w3.org/2000/svg" xmlns:xlink="http://www.w3.org/1999/xlink" x="0px" y="0px" width="566.929px"
	 height="566.929px" viewBox="0 0 566.929 566.929" enable-background="new 0 0 566.929 566.929" xml:space="preserve">
<metadata>
	<sfw  xmlns="&ns_sfw;">
		<slices></slices>
		<sliceSourceBounds  bottomLeftOrigin="true" height="1171.67" width="16022.916" x="-7734.522" y="-1027.034">
			</sliceSourceBounds>
	</sfw>
</metadata>
<path d="M53.037,299.175c-8.523-5.863-8.209-9.083,1.27-14.517c36.872-21.136,76.1-36.559,116.913-48.13
	c29.58-8.386,59.649-14.568,90.018-19.146c16.129-2.431,32.399-3.996,48.628-5.792c33.65-3.722,67.389-4.093,101.092-2.796
	c28.011,1.078,55.933,4.196,82.397,14.662c6.283,2.485,12.244,5.519,17.655,9.691c12.673,9.77,12.66,23.682,2.409,35.204
	c-12.635,14.201-29.01,22.774-45.944,30.235c-33.26,14.652-68.204,23.925-103.687,31.389c-17.82,3.749-35.782,6.634-53.763,9.379
	c-10.666,1.628-21.493,2.169-32.212,3.489c-27.661,3.408-55.5,3.86-83.285,5.152c-17.154,0.797-34.26-0.803-51.38-1.747
	c-16.698-0.921-33.191-3.101-49.5-6.683c-13.357-2.934-26.498-6.533-38.032-14.352c-2.844-1.928-5.37-4.237-7.266-7.055
	C44.239,312.051,45.719,306.132,53.037,299.175z M111.065,292.835c3.765,1.425,6.61,2.398,9.089,4.192
	c2.702,1.956,4.346,4.549,3.348,7.793c-1.041,3.379,0.486,4,3.249,4.832c13.35,4.018,27.162,5.717,40.894,6.122
	c28.36,0.838,56.736,0.942,85.093-1.746c20.834-1.975,41.585-4.213,62.246-7.581c26.518-4.323,52.678-10.094,78.198-18.47
	c17.308-5.68,34.583-11.661,49.052-23.387c11.35-9.199,10.209-16.505-3.428-21.711c-13.069-4.989-26.81-6.213-40.597-7.718
	c-27.666-3.019-55.288-2.222-82.837,0.431c-19.409,1.869-38.727,4.766-57.958,8.247c-35.177,6.366-69.635,15.205-102.882,28.416
	C139.834,278.094,125.426,284.629,111.065,292.835z"/>
</svg>
