<?xml version="1.0" encoding="iso-8859-1"?>
<!-- Generator: Adobe Illustrator 25.4.1, SVG Export Plug-In . SVG Version: 6.00 Build 0)  -->
<svg version="1.1" id="Layer_1" xmlns="http://www.w3.org/2000/svg" xmlns:xlink="http://www.w3.org/1999/xlink" x="0px" y="0px"
	 width="425.197px" height="425.197px" viewBox="0 0 425.197 425.197" enable-background="new 0 0 425.197 425.197"
	 xml:space="preserve">
<g>
	<path fill="#231F20" d="M376.864,297.368c0.023-0.011,0.045-0.023,0.068-0.034c-8.596-9.518-19.432-17.426-29.148-25.792
		c-9.825-8.461-19.651-16.921-29.476-25.382c-19.147-16.487-38.294-32.975-57.441-49.462c-6.462-5.565-12.924-11.129-19.386-16.694
		c23.494-25.044,46.988-50.088,70.482-75.133c0.213-0.227,0.426-0.455,0.64-0.682c0.187,0.497,0.381,1.002,0.588,1.522
		c2.157,5.421,7.803,10.936,14.05,9.581c2.368-0.514,4.523-1.967,5.666-4.21c0.637-1.249,2.611-10.011,1.242-9.889
		c1.364-0.122-1.371-13.543-1.599-14.923c-0.148-0.895-0.346-1.806-0.588-2.717c9.984-10.644,19.968-21.288,29.954-31.931
		c-0.15,0.116-0.318,0.243-0.526,0.396c-0.117-0.073-0.235-0.145-0.352-0.218c0.347-0.332,0.702-0.653,1.035-1
		c-0.317,0.331,0.35,0.053,0.534,0.086c1.322-1.409,2.643-2.818,3.965-4.227c8.138-8.672,7.872-23.621-2.492-30.033
		c-12.112-7.493-26.421-1.883-36.968,5.598c-3.312,2.349-6.301,5.681-8.692,8.94c-0.169,0.23-0.335,0.462-0.5,0.695
		c-37.004,39.458-74.009,78.916-111.02,118.368c-20.557-17.702-41.114-35.403-61.671-53.105
		C123.841,78.705,102.278,60.5,80.696,42.31c-10.95-9.229-28.695-6.414-39.184,2.36c-8.955,7.491-17.833,23.224-6.557,33.135
		c3.392,2.982,6.796,5.95,10.191,8.927c0.457,10.921,0.829,21.836,1.176,32.767c0.516,16.248,0.739,33.002,4.737,48.757
		c1.431,5.637,5.818,11.75,11.836,13.067c5.335,1.167,10.235-2.539,11.124-7.867c2.539-15.216-0.518-31.242-1.97-46.554
		c-0.581-6.128-1.265-12.247-1.972-18.366c32.261,28.127,64.659,56.099,97.104,84.016c-16.188,17.249-32.37,34.504-48.564,51.748
		c-9.453,10.066-18.904,20.133-28.354,30.201c-4.279,4.559-8.783,8.988-12.87,13.72c-5.607,6.492-9.043,13.965-4.809,22.244
		c6.032,11.795,24.816,11.87,35.061,7.69c9.606-3.92,17.252-13.83,24.315-21.363c4.372-4.663,8.744-9.326,13.115-13.989
		c7.823-8.345,15.645-16.691,23.466-25.037c11.078-11.822,22.166-23.636,33.252-35.451c5.163,4.436,10.324,8.873,15.487,13.309
		c2.146,24.328,4.485,48.536,7.395,72.794c3.191,26.599,6.035,53.228,8.418,79.912c0.562,6.298,6.727,13.876,13.45,13.661
		c7.491-0.239,9.054-8.288,8.448-14.169c-2.592-25.181-4.901-50.377-7.119-75.594c-1.633-18.566-3.685-37.034-6.025-55.49
		c8.284,7.123,16.568,14.247,24.847,21.375c10.581,9.111,21.162,18.223,31.744,27.334c12.28,10.574,24.15,22.184,37.807,30.918
		c5.642,3.608,14.042,2.542,20.222,1.136c8.628-1.962,16.394-7.68,21.24-14.933C383.384,314.068,383.07,303.646,376.864,297.368z
		 M332.391,89.822c-0.061-0.021-0.122-0.042-0.183-0.063c-0.009-0.121-0.014-0.244-0.024-0.365
		C332.253,89.537,332.322,89.679,332.391,89.822z"/>
	<path fill="#231F20" d="M362.607,50.887c-0.23,0.245-0.46,0.491-0.69,0.736C362.631,51.071,362.728,50.909,362.607,50.887z"/>
</g>
</svg>
