<?xml version="1.0" encoding="iso-8859-1"?>
<!-- Generator: Adobe Illustrator 25.4.1, SVG Export Plug-In . SVG Version: 6.00 Build 0)  -->
<svg version="1.1" id="Layer_1" xmlns="http://www.w3.org/2000/svg" xmlns:xlink="http://www.w3.org/1999/xlink" x="0px" y="0px"
	 width="425.197px" height="425.197px" viewBox="0 0 425.197 425.197" enable-background="new 0 0 425.197 425.197"
	 xml:space="preserve">
<g>
	<path d="M237.265,198.703c0.905,0.516,1.905,0.399,2.876,0.397c12.662-0.03,25.279,0.716,37.837,2.317
		c7.245,0.924,14.455,2.101,21.312,4.788c2.164,0.848,4.251,1.85,5.97,3.47c2.511,2.367,2.746,5.124,0.615,7.857
		c-1.724,2.211-3.97,3.825-6.333,5.28c-5.792,3.566-12.047,6.143-18.374,8.558c-10.155,3.877-20.55,7.021-30.971,10.082
		c-0.416,0.122-0.892,0.106-1.38,0.915c2.976-0.435,5.731-0.201,8.479-0.343c12.023-0.622,24.056-0.516,36.088-0.579
		c10.521-0.054,21.036,0.26,31.544,0.654c16.11,0.603,32.202,1.569,48.192,3.75c1.85,0.252,3.692,0.609,5.512,1.033
		c1.119,0.26,2.243,0.627,3.266,1.142c2.607,1.312,2.68,3.194,0.191,4.808c-2.211,1.435-4.731,2.051-7.311,2.335
		c-5.074,0.559-10.126,0.297-15.181-0.414c-10.946-1.539-21.964-2.24-32.999-2.811c-19.061-0.986-38.132-1.102-57.204-0.749
		c-11.31,0.209-22.612,0.803-33.911,1.423c-11.646,0.639-23.26,1.836-34.931,2.032c-2.237,0.038-4.447-0.21-6.611-0.778
		c-0.77-0.202-1.544-0.453-2.254-0.808c-1.194-0.597-2.486-1.201-2.537-2.808c-0.051-1.598,1.185-2.307,2.33-2.991
		c2.165-1.293,4.587-1.924,6.998-2.559c12.997-3.424,26.088-6.483,39.024-10.142c12.077-3.416,24.123-6.932,35.709-11.828
		c2.956-1.249,5.864-2.616,8.51-4.449c1.441-0.998,3.352-1.945,3.175-3.968c-0.195-2.221-2.416-2.659-4.117-3.307
		c-4.605-1.754-9.443-2.568-14.303-3.189c-19.407-2.483-38.902-2.627-58.426-2.214c-8.912,0.189-17.809,0.628-26.696,1.2
		c-9.586,0.618-19.16,1.492-28.719,2.457c-39.193,3.956-77.932,10.627-116.276,19.626c-5.22,1.225-10.466,2.106-15.857,1.969
		c-1.984-0.051-3.901-0.341-5.75-1.021c-0.842-0.309-1.68-0.753-1.656-1.85c0.021-0.959,0.818-1.316,1.513-1.701
		c1.096-0.607,2.26-1.082,3.491-1.305c9.466-1.712,18.75-4.24,28.151-6.247c19.331-4.126,38.767-7.633,58.328-10.486
		c13.914-2.029,27.864-3.748,41.85-5.155c10.177-1.024,20.377-1.833,30.588-2.485c13.063-0.835,26.126-1.556,39.222-1.509
		c0.612,0.002,1.261,0.094,1.769-0.397C224.427,198.703,230.846,198.703,237.265,198.703z"/>
	<path d="M399.254,257.357c-2.193,0.287-4.601-0.273-6.99-1.004c-1.424-0.436-2.211-1.389-2.416-2.853
		c-0.221-1.569,0.873-2.22,1.997-2.793c3.163-1.613,6.627-1.924,10.074-1.995c2.375-0.049,4.802,0.076,7.107,0.82
		c1.339,0.432,2.798,0.843,3.044,2.57c0.216,1.518-0.645,2.678-2.597,3.56C406.327,257.086,402.976,257.325,399.254,257.357z"/>
</g>
</svg>
