<?xml version="1.0" encoding="iso-8859-1"?>
<!-- Generator: Adobe Illustrator 25.4.1, SVG Export Plug-In . SVG Version: 6.00 Build 0)  -->
<svg version="1.1" id="Layer_1" xmlns="http://www.w3.org/2000/svg" xmlns:xlink="http://www.w3.org/1999/xlink" x="0px" y="0px"
	 width="425.197px" height="425.197px" viewBox="0 0 425.197 425.197" enable-background="new 0 0 425.197 425.197"
	 xml:space="preserve">
<path fill="#231F20" d="M413.266,285.927c-1.22-14.874-13.611-27.416-24.729-36.479c2.584-2.707,5.055-5.521,7.383-8.46
	c18.385-23.214,21.706-55.118,1.89-78.646c-10.559-12.537-25.737-20.191-40.754-26.071c-16.919-6.625-34.636-11.339-52.53-14.44
	c-35.231-6.105-71.479-5.454-106.638,0.82c-33.351,5.951-65.765,16.784-96.715,30.447c-15.158,6.692-30.018,14.029-44.598,21.901
	c-13.165,7.108-28.09,14.949-36.833,27.557c-13.793,19.891-4.311,41.563,10.753,57.646c-5.109,7.42-8.767,15.691-8.255,24.431
	c1.654,28.255,39.487,37.529,61.868,40.013c2.386,0.265,4.777,0.481,7.171,0.668c6.921,4.79,15.117,8.011,23.001,9.967
	c17.487,4.337,35.731,3.47,53.481,1.517c17.391-1.913,34.699-4.69,51.805-8.369c9.727-2.092,19.395-4.484,28.984-7.167
	c3.066,0.556,6.135,1.065,9.201,1.518c29.626,4.375,59.951,4.466,89.671,0.963c14.307-1.686,29.081-3.776,42.528-9.174
	C402.102,309.69,414.467,300.572,413.266,285.927z M92.447,312.023c-4.312-4.016-6.865-9.276-5.305-16.078
	c0.194-0.845,0.424-1.68,0.684-2.506c17.879,5.596,36.677,8.555,55.178,9.656c12.347,0.735,24.696,0.678,37.023,0.049
	c-6.875,1.575-13.791,2.976-20.747,4.161C137.67,310.982,114.752,313.457,92.447,312.023z M42.327,206.596
	c5.235-4.368,12.299-6.775,18.591-9.176c14.291-5.453,29.179-9.297,44.202-12.106c14.395-2.692,28.951-4.659,43.564-6.156
	c-6.354,3.427-12.549,7.182-18.567,11.238c-17.359,7.697-34.318,16.322-50.37,26.244c-5.69,3.517-11.266,7.261-16.648,11.262
	c-6.778-2.998-13.369-6.376-19.138-10.53C39.087,213.862,36.912,211.114,42.327,206.596z M263.802,175.024
	c8.497,0.378,16.989,0.972,25.445,1.818c7.269,2.561,14.313,5.933,20.442,10.344c-16.998,2.11-33.873,5.573-50.414,9.423
	c-4.819,1.121-9.627,2.286-14.429,3.475c-11.696,2.078-23.3,4.962-34.607,8.72c-11.759,1.245-23.446,3.167-34.96,5.781
	c16.143-9.578,32.976-18.019,50.19-25.417C237.97,183.795,250.764,178.986,263.802,175.024z M341.252,236.443
	c0.061,0.023,0.122,0.048,0.184,0.071c-0.241,0.142-0.484,0.28-0.724,0.422c0.053-0.21,0.11-0.42,0.16-0.63
	C340.998,236.353,341.126,236.396,341.252,236.443z M299.623,258.341c-12.806,5.314-26.595,7.796-40.574,8.702
	c13.565-4.071,26.918-8.841,39.965-14.368c7.981-3.381,15.827-7.062,23.532-11.02C316.867,249.347,308.451,254.678,299.623,258.341z
	 M328.908,216.735c0.12,0.874,0.203,1.751,0.258,2.629c-1.136-0.352-2.27-0.708-3.411-1.044
	C326.809,217.798,327.858,217.265,328.908,216.735z M303.875,212.916c-6.638-1.346-13.326-2.457-20.045-3.326
	c6.621-0.298,13.252-0.356,19.862-0.167c2.377,0.068,4.753,0.18,7.127,0.313C308.514,210.818,306.196,211.871,303.875,212.916z
	 M219.788,221.45c20.606-1.915,41.516-1.705,62.047,0.77c-39.207,15.505-80.248,26.587-121.927,33.329
	c3.179-8.455,16.553-15.246,22.898-18.815c8.626-4.851,17.688-8.969,27.015-12.437C213.139,223.331,216.462,222.383,219.788,221.45z
	 M146.319,255.552c-5.579-1.284-11.134-2.667-16.659-4.151c6.666-2.581,13.359-5.09,20.081-7.522
	c-0.209,0.334-0.416,0.67-0.61,1.014C147.198,248.331,146.318,251.936,146.319,255.552z M270.87,241.644
	c12.543-4.532,24.942-9.517,37.132-14.97c2.521,0.558,5.031,1.151,7.529,1.783c-1.4,0.717-2.804,1.426-4.213,2.125
	c-12.969,6.43-26.339,12.041-39.972,16.901c-21.806,7.775-44.266,13.637-67.056,17.658c-3.943-0.401-7.882-0.853-11.815-1.354
	C219.092,258.23,245.321,250.877,270.87,241.644z M340.666,213.846c-0.007-0.028-0.014-0.056-0.021-0.084
	c0.032,0.009,0.064,0.019,0.096,0.028C340.716,213.809,340.691,213.828,340.666,213.846z M151.43,270.905
	c0.06,0.093,0.116,0.188,0.177,0.281c-1.206,0.066-2.413,0.127-3.62,0.183C149.135,271.216,150.283,271.064,151.43,270.905z
	 M380.618,211.075c-3.007,2.18-6.075,4.281-9.144,6.373c-5.675,3.867-11.43,7.613-17.243,11.265
	c-1.629-0.726-3.267-1.426-4.911-2.105c3.861-2.519,7.263-5.652,7.647-10.105c0.425-4.921-2.365-8.817-6.102-11.585
	c2.284-1.31,4.56-2.633,6.82-3.984c0.974-0.582,1.942-1.176,2.912-1.767c2.295,0.165,4.588,0.361,6.875,0.612
	c3.515,0.385,7.041,0.826,10.484,1.648c1.754,0.419,6.469,1.159,7.294,3.115c0.428,1.016-0.305,2.646-1.194,4.106
	C382.762,209.657,381.38,210.523,380.618,211.075z M324.978,185.682c-1.489-1.555-3.037-3.037-4.642-4.447
	c5.994,1.118,11.946,2.397,17.845,3.857C333.778,185.169,329.376,185.37,324.978,185.682z M213.718,174.904
	c3.577-0.119,7.165-0.215,10.762-0.287c-21.485,8.806-42.274,19.453-61.966,31.582c-12.23,7.533-24.082,15.716-35.407,24.559
	c-4.956,2.72-9.541,5.975-13.4,10.022c-0.68,0.713-1.299,1.447-1.87,2.193c-1.49,0.6-2.975,1.211-4.462,1.818
	c-4.166-1.358-8.31-2.782-12.43-4.272c6.552-8.13,15.003-15.356,22.554-21.96c6.283-5.496,12.863-10.638,19.706-15.384
	C161.852,191.874,187.512,182.209,213.718,174.904z M80.894,235.158c-0.518-0.206-1.037-0.412-1.559-0.618
	c1.333-0.909,2.674-1.806,4.027-2.686C82.503,232.936,81.676,234.037,80.894,235.158z M90.221,252.001
	c-0.941,0.407-1.888,0.801-2.828,1.211c0.176-0.676,0.41-1.352,0.684-2.024C88.792,251.459,89.505,251.735,90.221,252.001z
	 M379.765,169.209c-0.008,0-0.034,0.022-0.059,0.042C379.712,169.225,379.728,169.209,379.765,169.209z M377.759,171.132
	c-1.019,0.81-2.142,1.517-3.207,2.251c-2.996,2.063-6.02,4.086-9.07,6.068c-0.272,0.177-0.551,0.344-0.823,0.521
	c-1.358-0.437-2.68-0.862-3.95-1.28c-18.19-5.994-36.899-10.099-55.821-12.862c2.711-0.378,5.427-0.725,8.154-1.006
	c15.209-1.569,30.615-1.5,45.716,1.06c3.638,0.617,7.256,1.374,10.833,2.278c1.688,0.426,3.371,0.876,5.026,1.418
	C375.499,169.869,376.651,170.56,377.759,171.132z M67.913,242.964c2.465,1.084,4.944,2.136,7.431,3.171
	c-1.208,4.054-1.454,8.258-0.251,12.547c-3.583,1.624-7.158,3.266-10.721,4.935c-2.74,1.284-3.449,3.883-2.888,6.443
	c-4.582-2.406-9.011-5.088-13.212-8.101C54.086,254.981,60.743,248.694,67.913,242.964z M81.024,276.677
	c-0.303,0.516-0.596,1.036-0.883,1.559c-1.27-0.463-2.529-0.959-3.789-1.453C77.91,276.753,79.467,276.719,81.024,276.677z
	 M95.844,278.9c4.521,1.841,9.287,3.131,13.868,4.059c10.196,2.066,20.556,2.599,30.92,2.489c4.617,1.091,9.271,1.874,13.7,2.53
	c5.407,0.801,10.838,1.438,16.283,1.937c0.184,0.133,0.367,0.27,0.552,0.402c-1.966,0.071-3.933,0.13-5.9,0.168
	c-24.143,0.463-48.66-1.544-71.97-8.051C94.103,281.234,94.949,280.053,95.844,278.9z M264.367,291.941
	c16.054-3.005,32.078-6.255,48.033-9.815c-21.628,10.391-44.333,18.929-67.577,25.609c-4.906-0.953-9.769-2.058-14.573-3.336
	C241.736,300.644,253.116,296.472,264.367,291.941z M364.299,251.726c-1.411,0.353-2.621,1.176-3.372,2.482
	c-1.211,0.868-2.433,1.72-3.661,2.558c-1.012,0.266-2.022,0.539-3.034,0.805c-4.001,1.051-8.007,2.084-12.017,3.098
	c-3.208,0.811-6.421,1.6-9.634,2.388c10.536-4.874,20.735-10.452,30.439-16.778c1.615,0.879,3.214,1.785,4.791,2.726
	C366.655,249.929,365.482,250.833,364.299,251.726z M373.709,238.924c5.243-3.711,11.197-8.024,15.888-13.058
	c-3.565,5.455-7.88,10.475-12.667,15.122C375.862,240.292,374.795,239.593,373.709,238.924z M396.472,179.913
	c3.006,7.102,3.644,14.73,2.552,22.183c-0.035-0.081-0.061-0.161-0.098-0.241c-3.329-7.358-10.184-12.209-17.85-15.789
	c4.574-2.933,9.393-6.48,10.026-11.747c0.144-1.2,0.119-2.325-0.026-3.392C393.238,173.638,395.077,176.617,396.472,179.913z
	 M177.689,140.646c61.589-15.267,130.709-14.914,189.019,12.552c1.829,0.861,3.652,1.783,5.455,2.759
	c-1.37-0.387-2.749-0.736-4.117-1.047c-0.24-0.106-0.487-0.2-0.747-0.264c-44.393-11.003-90.321-8.581-134.719,1.201
	c-13.878,0.439-27.441,2.518-40.576,6.009c-10.641,0.552-21.271,1.302-31.88,2.2c-24.205,2.047-48.714,4.67-72.515,10.071
	c1.399-0.676,2.799-1.35,4.2-2.018C119.368,158.968,148.029,147.999,177.689,140.646z M24.476,220.851
	c0.523-2.186,1.348-4.244,2.4-6.189c3.99,10.159,16.431,16.709,26.063,21.364c-3.152,2.724-6.207,5.559-9.12,8.541
	c-2.302,2.357-4.711,4.902-7.053,7.606C28.661,243.838,21.681,232.526,24.476,220.851z M39.868,296.429
	c-8.025-7.629-3.449-17.869,1.94-25.912c2.635,2.058,5.305,3.935,7.941,5.6c8.226,5.195,16.95,9.51,25.996,13.068
	c-1.66,6.63-1.49,13.555,1.686,20.374c0.146,0.314,0.32,0.607,0.475,0.915c-2.813-0.421-5.614-0.892-8.389-1.466
	C59.387,306.908,47.587,303.766,39.868,296.429z M156.067,324.086c-6.81,0.579-13.75,0.953-20.664,0.797
	c17.439-1.558,34.776-4.579,51.664-8.455c7.507-1.723,14.985-3.644,22.429-5.732c3.357,1.264,6.752,2.432,10.177,3.511
	C198.615,318.988,177.284,322.283,156.067,324.086z M399.926,285.983c-2.074,10.924-16.936,15.701-26.054,18.352
	c-12.788,3.717-26.256,5.293-39.483,6.529c-18.21,1.702-37.291,2.294-56.31,1.068c13.421-4.744,26.618-10.115,39.502-16.165
	c16.218-7.615,32.888-16.162,47.912-26.738c0.169-0.046,0.338-0.089,0.506-0.135c3.298-0.899,6.97-1.762,8.519-5.123
	c0.295-0.639,0.474-1.302,0.559-1.972c1.746-1.416,3.458-2.868,5.137-4.354c3.746,2.9,7.321,6.028,10.548,9.494
	C395.351,271.868,401.311,278.693,399.926,285.983z"/>
</svg>
