<?xml version="1.0" encoding="iso-8859-1"?>
<!-- Generator: Adobe Illustrator 25.4.1, SVG Export Plug-In . SVG Version: 6.00 Build 0)  -->
<svg version="1.1" id="Layer_1" xmlns="http://www.w3.org/2000/svg" xmlns:xlink="http://www.w3.org/1999/xlink" x="0px" y="0px"
	 width="425.197px" height="425.197px" viewBox="0 0 425.197 425.197" enable-background="new 0 0 425.197 425.197"
	 xml:space="preserve">
<path d="M216.016,163.491c-3.46,0.191-6.77,0.314-10.07,0.57c-5.537,0.429-10.896-0.451-16.186-1.983
	c-1.646-0.477-3.221-1.11-4.552-2.196c-2.517-2.052-2.675-4.416-0.375-6.761c2.008-2.047,4.62-3.241,7.088-4.607
	c20.46-11.327,41.624-21.225,62.878-30.941c9.012-4.12,8.764-4.142,9.239-14.008c0.38-7.898,0.989-15.785,1.105-23.697
	c0.043-2.922,1.515-4.847,4.102-6.236c5.131-2.753,10.775-3.429,16.364-4.075c7.162-0.828,14.318-0.381,21.219,1.98
	c4.003,1.37,4.795,2.315,4.617,6.59c-0.392,9.405-0.971,18.804-1.572,28.199c-0.66,10.327-1.446,20.646-2.149,30.97
	c-1.036,15.208-2.077,30.416-3.038,45.629c-0.153,2.422-1.504,3.764-3.415,4.772c-3.214,1.696-6.719,2.444-10.276,2.95
	c-7.498,1.066-15.006,1.488-22.49-0.07c-7.58-1.579-8.444-2.783-7.748-10.265c0.098-1.057,0.776-2.136-0.009-3.2
	c-1.43,0.141-1.694,1.446-2.247,2.349c-38.522,62.864-76.687,125.941-112.55,190.376c-1.849,3.323-4.683,6.387-3.281,10.861
	c0.504,1.609-1.107,2.648-2.404,3.479c-2.74,1.757-5.785,2.735-8.941,3.369c-8.743,1.756-17.533,2.342-26.375,0.804
	c-1.481-0.258-2.965-0.623-4.374-1.137c-5.011-1.828-6.186-4.066-4.289-9.095c1.459-3.867,3.237-7.641,5.179-11.294
	c22.306-41.946,43.84-84.329,68.896-124.744c14.907-24.045,29.405-48.32,43.28-72.97
	C214.54,167.516,215.878,166.085,216.016,163.491z"/>
</svg>
