<?xml version="1.0" encoding="iso-8859-1"?>
<!-- Generator: Adobe Illustrator 25.4.1, SVG Export Plug-In . SVG Version: 6.00 Build 0)  -->
<svg version="1.1" id="Layer_1" xmlns="http://www.w3.org/2000/svg" xmlns:xlink="http://www.w3.org/1999/xlink" x="0px" y="0px"
	 width="425.197px" height="425.197px" viewBox="0 0 425.197 425.197" enable-background="new 0 0 425.197 425.197"
	 xml:space="preserve">
<g>
	<path d="M55.496,96.124c-0.774,0.537-1.701,0.549-2.609,0.679c-0.903,0.133-1.766,0.404-2.325,1.509
		C53.212,101.061,55.463,96.229,55.496,96.124z"/>
	<path d="M69.491,85.653c-2.02-2.004-3.111-0.321-4.312,0.898C67.292,88.722,67.89,85.309,69.491,85.653z"/>
	<path d="M74.043,345.611c-1.617,1.49-1.328,2.522-0.153,3.338C75.489,347.436,75.205,346.412,74.043,345.611z"/>
	<path d="M44.235,95.589c-0.789,1.017-1.582,2.031-2.356,3.06C44.452,100.771,45.262,96.517,44.235,95.589z"/>
	<path d="M61.635,85.437c0.704-1.153,1.556-1.766,2.425-2.284c0.871-0.518,1.75-0.951,2.587-1.698
		c-1.079-1.354-1.755-0.87-2.358-0.16c-0.595,0.718-1.136,1.631-2.051,1.08C64.104,83.785,59.757,84.042,61.635,85.437z"/>
	<path d="M21.268,140.368c0.591-1.122,0.977-2.197,0.321-3.081c-0.16,1.041-0.965,2.202-1.551,3.335
		c-0.55,1.147-0.895,2.255-0.201,3.116C19.962,142.694,20.681,141.49,21.268,140.368z"/>
	<path d="M61.664,78.032c0.875-0.316,1.661-1.025,2.421-1.877c0.759-0.851,1.492-1.847,2.251-2.729
		c0.379-0.441,0.765-0.853,1.162-1.205c0.394-0.355,0.807-0.639,1.247-0.818c-2.335-2.073-3.407,1.136-5.109,2.538
		c-1.709,1.428-3.058,3.76-4.892,3.648C59.855,78.307,60.797,78.356,61.664,78.032z"/>
	<path d="M67.62,81.671c1.824,2.558,2.348-0.425,4.087,1.851c1.009-0.642,1.248-1.472,0.313-2.602
		C70.833,82.346,68.879,80.455,67.62,81.671z"/>
	<path d="M334.581,56.741c0.747,0.424,1.372,0.887,1.902,2.119c1.452-1.203,0.155-3.167-0.477-3.752
		c-0.388-0.346-1.167-0.69-2.003-0.764c-0.828-0.085-1.67,0.045-2.133,0.555c0.542,0.522,1.035,0.872,1.488,1.142
		C333.802,56.327,334.207,56.529,334.581,56.741z"/>
	<path d="M181.343,19.834c1.421,0.065,2.805-0.124,3.015-1.907c-0.641-0.076-1.497,0.283-1.687-0.682
		c-0.617,1.644-6.674,0.254-4.494,2.942C178.461,19.449,179.923,19.768,181.343,19.834z"/>
	<path d="M93.033,62.694c-1.311-1.941-2.453-1.208-3.591-0.505C90.81,64.414,91.929,63.681,93.033,62.694z"/>
	<path d="M98.409,356.345c0.456-1.468,2.595-3.645,1.189-4.302C98.025,353.49,96.441,355.272,98.409,356.345z"/>
	<path d="M413.628,276.161c-2.11-1.831-4.003,0.951-4.133-0.851c2.988,0.215,1.492-2.69-1.308-3.642
		c-0.417,2.556-2.78,2.274-4.593,2.748c-2.562-0.638-2.719-2.446-4.118-0.905c1.678,1.036-0.494,3.039,3.067,3.641
		c1.978,0.133-0.29-3.24,3.395-1.869c-0.727,1-0.673,1.999-0.927,2.87c-0.13,0.434-0.324,0.839-0.751,1.181
		c-0.43,0.341-1.073,0.627-2.061,0.831c0.295-1.322-2.169-1.6-2.631-2.307c-0.442-0.683,1.385-1.957-0.913-2.207
		c-1.565,0.448-1.551,0.975-1.108,1.539c0.45,0.564,1.351,1.166,1.559,1.729c0.344,0.905-0.99,1.136,0.088,1.909
		c-0.085-0.054,2.218-1.098,1.772,0.102c-1.087,0.399-1.973,1.088-3.236,1.168c0.248-1.498-0.021-2.88-0.939-4.109
		c-1.708,2.729-0.492,4.857,0.536,7.083c-1.36,0.291-1.255,0.978-1.018,1.824c0.224,0.836,0.59,1.837-0.204,2.717
		c-1.487-0.558-1.377-1.366-2.766-1.93c-0.595,2.517,4.387,3.115,3.234,4.733c-1-0.482-2.004-0.966-3.004-1.449
		c-0.295,2.082-2.105,1.425-2.556,3.214c1.042,2.115,3.187,1.857,3.922,3.312c-1.659-0.046-3.552-0.562-4.821,0.098
		c-0.522-0.96,0.355-1.497,0.731-2.037c0.38-0.538,0.217-1.084-2.318-1.997c3.116-0.227,1.176-2.472,1.783-3.534
		c0.335-0.584,2.96,0.312,1.769-1.669c-0.788-1.349-0.757-2.362-0.392-3.552c0.327-1.206,0.975-2.599,1.436-4.651
		c-2.199-1.083-3.749,0.822-3.844-1.619c1.76,0.99,2.081-0.227,4.069,1.103c2.38-3.564,2.927-8.598,4.009-12.303
		c0.257-0.837,1.467-1.534,1.715-2.396c0.189-0.661-0.993-2.022-0.891-2.645c0.163-1.03,1.638-1.985,1.826-2.967
		c0.134-0.69,0.236-1.389,0.314-2.094c0.079-0.704,0.092-1.426,0.114-2.144c0.033-1.439,0.01-2.887,0.002-4.325
		c-0.014-1.439,0.014-2.863,0.081-4.273c0.044-1.415,0.177-2.807,0.473-4.169c0.034-0.139,1.059-0.621,1.169-1.472
		c0.128-0.962,0.185-1.925,0.196-2.882c0.012-0.478-0.006-0.956-0.044-1.435c-0.032-0.478-0.073-0.954-0.119-1.427
		c-0.183-1.895-0.448-3.75-0.589-5.55c-0.14-2.327,0.396-4.549-0.84-6.699c-1.551-1.052-1.061-0.049-3.319-0.31
		c0.357-1.194,0.013-2.021-1.44-2.265c1.491,1.231-1.703,1.195-1.94,2.48c-0.03,0.171,1.282,0.824,0.66,1.654
		c-0.404,0.53-1.834-0.464-1.775,0.866c0.019,0.827,2.046,0.644,1.459,1.754c-1.162-0.424-4.368,0.088-4.062-1.005l0.457-4.099
		c-1.587-0.031-1.776-0.741-3.268-0.807c-0.494,3.056-0.584,4.794-0.813,6.526c-0.197,1.733-0.396,3.472-1.057,6.489
		c1.3,0.852,1.351,1.564,1.082,2.22c-0.277,0.657-0.91,1.253-1.079,1.897c-0.161,0.613,0.532,1.15,0.389,2.151
		c-0.139,0.959-1.1,0.921-1.251,1.818c-0.077,0.459-0.132,0.926-0.192,1.395c-0.071,0.467-0.131,0.94-0.185,1.417
		c-0.108,0.955-0.19,1.93-0.273,2.917c-0.083,0.987-0.168,1.987-0.282,2.991c-0.057,0.502-0.12,1.004-0.195,1.506
		c-0.094,0.497-0.199,0.993-0.318,1.487c-0.381,1.579-1.016,3.06-1.615,4.554c-0.3,0.747-0.591,1.498-0.838,2.269
		c-0.271,0.764-0.512,1.544-0.668,2.366c-0.293,1.535,0.318,3.233-0.083,4.878c-0.168,0.672-0.353,1.374-0.602,2.077
		c-0.256,0.7-0.541,1.413-0.845,2.132c-0.609,1.438-1.296,2.896-1.987,4.308c-0.666,1.424-1.449,2.75-2.118,3.991
		c-0.676,1.238-1.277,2.372-1.727,3.348c-0.402,0.865-0.185,2.282-0.685,3.105c-1.022,1.762-2.338,3.351-3.558,4.925
		c-0.608,0.789-1.191,1.576-1.754,2.354c-0.55,0.786-1.03,1.594-1.395,2.451c-0.421,0.99-1.014,1.928-1.65,2.846
		c-0.321,0.457-0.64,0.918-0.978,1.362c-0.342,0.442-0.68,0.884-0.996,1.331c0.424,0.873,0.822,1.752,1.199,2.638
		c-0.903-0.568-1.342-0.109-2.372-0.976c-0.405,0.753-0.959,1.598-1.605,2.503c-0.323,0.453-0.668,0.921-1.029,1.4
		c-0.375,0.469-0.774,0.943-1.176,1.428c-0.807,0.968-1.648,1.967-2.462,2.972c-0.407,0.503-0.807,1.007-1.194,1.509
		c-0.385,0.504-0.756,1.007-1.132,1.483c1.357,1.427,1.37,0.887,1.365,0.199c-0.017-0.699-0.067-1.549,1.232-0.74
		c0.204,0.434,0.161,0.922-0.032,1.363c-0.197,0.438-0.563,0.813-0.969,1.049c-0.819,0.471-1.829,0.348-2.254-1.099
		c-0.759,1.793-2.331,3.316-3.715,4.853c-0.343,0.387-0.681,0.77-1.012,1.144c-0.324,0.38-0.621,0.767-0.876,1.168
		c-0.512,0.801-0.859,1.655-0.924,2.611c-1.166-0.905-1.997-0.661-2.622,0.327c1.379,0.373,2.087,1.345,2.141,2.145
		c0.053,0.797-0.538,1.426-1.733,1.045c0.328-0.518,1.108-0.948,0.456-1.678c-0.371,0.403-0.787,0.748-1.255,1.027
		c-0.47,0.277-0.968,0.511-1.469,0.727c-1.001,0.434-2.008,0.799-2.81,1.323c-1.363,0.895-1.586,1.965-1.813,2.998
		c-0.218,1.038-0.49,1.985-1.863,2.652c1.692,2.639,2.406,0.074,3.807,1.096c-2.326,2.884-5.176,2.964-8.018,2.553
		c-0.923,1.132-2.507,2.003-3.869,2.96c-1.369,0.951-2.542,1.962-2.75,3.349c0.426-0.096,0.802-0.6,1.315,0.032
		c-0.633,0.768-1.336,1.192-2.058,1.354c-0.721,0.164-1.466,0.061-2.228-0.271c2.063,1.372-0.406,3.125-1.146,1.844
		c0.534,0.115,1.091-1.462,0.738-1.55c-0.764-0.192-1.944,0.56-2.841,1.592c-0.449,0.516-0.827,1.103-1.047,1.678
		c-0.222,0.57-0.297,1.112-0.105,1.577c-2.777-2.156-3.559,1.045-5.156,2.333c-0.748,0.606-1.416-0.135-2.153,0.388
		c-1.384,0.945-3.01,1.971-4.553,2.896c-0.773,0.46-1.529,0.889-2.23,1.257c-0.351,0.184-0.687,0.353-1.007,0.502
		c-0.326,0.138-0.633,0.258-0.916,0.357c-1.843,0.639-3.497,1.332-5.033,2.061c-0.769,0.362-1.504,0.742-2.226,1.11
		c-0.732,0.35-1.442,0.707-2.138,1.066c-2.792,1.423-5.34,2.977-8.256,4.113c-1.053,0.431-3.239-1.353-2.464,1.886
		c0.598-0.099,1.266-0.657,1.722,0.208c-1.504,1.193-2.484-0.949-3.897-0.236c0.211,2.865-1.022,1.046-2.517,1.8
		c-1.639,0.81-2.045,1.093-3.598,0.366c-0.576,0.295,0.002,1.434-0.386,1.897c-0.467,0.549-1.58,1.429-2.704,2.086
		c-1.116,0.679-2.204,1.24-2.549,1.308c-0.843,0.157-1.683-1.222-2.434-1.023c-0.771,0.198-1.432,1.225-2.179,1.498
		c-1.322,0.471-2.635-0.231-4.128,0.18c-0.868,0.232-1.844,0.595-2.823,0.996c-0.489,0.2-0.98,0.41-1.456,0.617
		c-0.476,0.211-0.94,0.412-1.382,0.578c-1.69,0.663-3.664,1.135-5.726,1.382c-1.033,0.113-2.08,0.214-3.14,0.176
		c-1.058-0.032-2.114-0.123-3.144-0.276c-0.717,0.465-0.001,2.647-1.722,1.927c0.689-2.036-0.271-0.898-0.875-2.399
		c-2.931,0.774-5.562,1.229-8.245,1.441c-1.343,0.091-2.698,0.135-4.116,0.007c-1.419-0.15-2.898-0.413-4.475-0.824
		c-0.374,0.715-0.969,2.094-1.723,2.939c-0.752,0.842-1.665,1.164-2.605-0.268c0.923-0.394,3.057,1.02,2.404-1.759
		c-0.486-0.223-1-0.388-1.538-0.509c-0.269-0.06-0.543-0.109-0.823-0.148c-0.28-0.05-0.565-0.091-0.854-0.123
		c-1.158-0.129-2.388-0.127-3.644-0.084c-1.256,0.044-2.537,0.128-3.792,0.164c-0.314,0.008-0.625,0.016-0.934,0.015
		c-0.309-0.011-0.616-0.027-0.919-0.048c-0.606-0.043-1.197-0.108-1.767-0.207c-0.648-0.02-0.488,1.443-1.031,1.617
		c-1.343-0.562-1.98-2.186-3.333-2.695c-0.762,0.19-1.511,0.33-2.242,0.38c-0.731,0.037-1.446,0.014-2.139-0.064
		c-1.386-0.156-2.687-0.529-3.876-1.076c0.031,2.124-2.62,3.624-3.087,1.337c0.775,0.018,1.682,0.299,1.633-1.491
		c-0.436-0.98-0.948-0.809-1.581-0.57c-0.632,0.241-1.39,0.592-2.286,0.038c0.535,1.442,0.042,2.502-0.693,2.933
		c-0.734,0.432-1.701,0.235-2.055-0.825c0.075-2.009,2.159,0.8,1.786-2.256c-2.631-0.169-2.663,0.303-4.21-1.497
		c-1.133,1.726-2.997,1.472-3.7,4.394c1.004-0.053,0.785,1.303,1.202,1.943c-0.126-2.701,0.065-2.366,1.505-3.115
		c-0.811,3.197,0.54,3.817,1.848,4.506c0.662,0.091,0.661-1.374,1.227-1.497c1.237,0.614,2.557,0.844,3.958,0.963
		c0.35,0.03,0.706,0.053,1.067,0.073c0.361,0.016,0.73,0.012,1.103,0.019c0.747,0.009,1.517,0.024,2.314,0.08
		c-0.305,1.164-0.735,1.333-0.229,2.485c1.459,0.355,2.831,0.63,4.135,0.847c0.652,0.108,1.287,0.202,1.907,0.283
		c0.621,0.057,1.227,0.102,1.823,0.138c2.382,0.144,4.582,0.141,6.799,0.14l0.833,0c0.278-0.01,0.557-0.019,0.837-0.029
		c0.56-0.017,1.125-0.033,1.698-0.05c1.146-0.026,2.324-0.035,3.561-0.01c1.238,0.017,2.536,0.102,3.924,0.175
		c1.388,0.055,2.866,0.156,4.467,0.319c0.045-1.645-0.794-1.622-1.17-2.454c0.508-0.02,0.56-0.701,0.957-0.874
		c1.307-0.309,1.733,1.075,1.748,3.254c0.63,0.227,1.54-0.078,2.355-0.208c0.816-0.116,1.536-0.126,1.814,0.803
		c-0.021,1.379-0.483,1.73-1.087,1.679c-0.604-0.061-1.345-0.504-1.931-0.655c0.02,1.014-0.005,1.974-0.914,1.709
		c-1.34-0.025-2.515-0.358-3.214-1.528c-1.849-0.372-1.127,3.008-2.998,2.632c-1.4-0.964-3.263-0.98-5.027-0.736
		c-1.762,0.239-3.426,0.719-4.358,0.709c0.401,0.189,1.026,0.028,1.039,0.837c-0.989-0.334-1.87-0.523-2.696-0.634
		c-0.827-0.098-1.599-0.07-2.366,0.06c-1.535,0.26-3.053,0.927-4.95,1.797c-0.011-1.113,1.908-3.004,0.692-3.301
		c-0.235,2.134-0.83-1.197-2.068-0.122c0.253,0.621,0.364,1.134,0.272,1.546c-0.092,0.414-0.388,0.721-0.947,0.894
		c-1.255-2.126-2.553-2.004-4.009-1.63c-1.45,0.375-3.063,1.001-4.782-0.11c-1.112,3.542,1.84,1.981,1.057,5.147
		c-0.736,0.051-1.382,0.078-1.992,0.056c-0.61-0.028-1.184-0.075-1.782-0.126c-1.195-0.101-2.478-0.215-4.315-0.22
		c-0.802,2.757,2.031,1.379,1.044,4.377c-1.015-3.027-3.365-1.545-3.385,0.323c-0.635-0.441-0.947-1.235-0.705-2.639
		c-0.919-0.364-1.362,0.282-1.814,0.948c-0.45,0.663-0.906,1.325-1.828,0.913c0.375-3.905-2.701-0.836-3.791-0.759
		c-1.798,0.14-3.765-2.487-3.956,0.03c2.079,0.811,4.268,1.647,6.445,2.407c1.089,0.378,2.174,0.734,3.241,1.048
		c1.069,0.289,2.122,0.515,3.138,0.697c1.062,0.186,1.904-0.824,2.871-0.41c1.083,0.463,1.549,1.784,2.559,2.061
		c0.506,0.142,1.099,0.018,1.696-0.126c0.598-0.163,1.199-0.342,1.728-0.283c1.744,0.197,3.482,0.705,5.235,1.144
		c0.876,0.219,1.755,0.421,2.636,0.558c0.882,0.152,1.764,0.158,2.646,0.096c1.211-0.1,2.129-1.29,3.415-1.486
		c2.407-0.392,4.872-0.027,7.462,0.165c2.586,0.232,5.297,0.491,8.105,0.102c1.048-0.135,0.277-2.77,1.555-2.566
		c1.891,0.145,4.424-0.847,5.575,0.58c0.394-1.24,0.629-2.681,2.008-2.606c0.327,1.909-1.512,1-1.454,2.575
		c0.991-0.238,1.948-0.246,2.857-0.246c0.909,0.004,1.772,0.08,2.573,0.104c1.601,0.049,2.957-0.111,3.879-1.466
		c1.741,1.118,3.18,0.883,4.39,0.197c1.216-0.663,2.217-1.668,3.178-1.982c0.68-0.222,0.916,0.933,1.78,0.583
		c0.901-0.366,1.871-0.63,2.889-0.831c0.51-0.095,1.029-0.191,1.553-0.289c0.526-0.093,1.061-0.174,1.602-0.25
		c2.162-0.302,4.419-0.508,6.546-0.907c1.036-0.194,1.001-1.116,1.976-1.3c0.622-0.115,1.557,0.552,1.824,0.42
		c0.593-0.297,1.063-1.946,1.741-2.147c0.888-0.253,2.003,0.452,2.913,0.142c0.649-0.222,0.605-0.871,1.388-1.206
		c3.011-1.425,6.319-0.837,9.305-1.885c0.66-0.22,1.294-0.831,1.905-1.443c0.611-0.614,1.195-1.242,1.749-1.558
		c0.598-0.338,1.055,0.619,1.86,0.234c0.887-0.429,0.714-1.748,1.497-2.301c0.795,0.531,1.522,0.664,2.21,0.553
		c0.688-0.112,1.322-0.508,1.958-0.978c1.271-0.951,2.507-2.276,4.054-2.788c0.822-0.27,1.685-0.554,2.576-0.847
		c0.887-0.306,1.782-0.671,2.691-1.051c1.814-0.77,3.648-1.684,5.324-2.847c0.892-0.591,1.311-2.187,2.197-2.958
		c0.654-0.568,2.706-2.4,3.981-3.011c2.123-0.977,4.526-1.719,6.118-1.5c0.71-0.507-0.722-2.042,0.565-2.262
		c2.321,1.355,2.106-1.031,4.676-0.819c-0.241-0.609-0.871-1.397-0.436-1.705c2.432-0.426,4.422-1.829,6.452-4.177
		c0.637,0.755,1.275,1.994,1.895,1.742c-0.749-1.129,0.663-2.473,1.305-2.949c1.34-0.98,3.148-1.699,4.925-2.303
		c0.883-0.308,1.78-0.559,2.564-0.846c0.79-0.279,1.507-0.541,2.086-0.798c0.711-0.319,0.424-1.522,0.793-1.688
		c0.314-0.145,2.039,1.484,2.373,0.237c-0.244-1.205,0.052-1.967,0.632-2.51c0.581-0.542,1.449-0.861,2.309-1.217
		c1.733-0.689,3.567-1.388,3.268-3.675c1.265,1.13,2.395,1.248,3.477,0.983c0.541-0.133,1.069-0.361,1.595-0.605
		c0.528-0.243,1.03-0.529,1.555-0.737c-0.654-0.29-1.141-1.699-1.038-2.939c0.105-1.242,0.798-2.315,2.579-2.002
		c-1.35,0.287,0.382,3.449,0.943,2.565c0.465-1.752,1.735-2.703,3.008-3.621c1.251-0.937,2.476-1.87,2.853-3.449
		c1.11-0.807,2.864,1.185,3.818-0.41c0.29-2.437,1.922-2.017,3.122-3.431c1.566-1.835,2.171-3.884,4.154-4.855
		c0.806-0.405,2.016-0.148,2.797-0.756c1.971-1.516,3.869-3.178,5.714-4.932c0.461-0.439,0.919-0.883,1.374-1.332
		c0.455-0.45,0.878-0.926,1.315-1.395c0.866-0.943,1.721-1.904,2.57-2.875c0.849-0.971,1.691-1.953,2.529-2.94l0.628-0.741
		l0.601-0.761l1.202-1.524c1.599-2.035,3.217-4.058,4.844-6.057c1.056-1.356,2.404-2.112,3.12-3.805
		c0.412-0.979,0.945-1.973,1.547-2.975c0.301-0.501,0.62-1.004,0.949-1.508c0.32-0.51,0.644-1.025,0.967-1.541
		c1.311-2.057,2.699-4.111,3.756-6.041c0.19-0.35,0.134-0.706,0.098-1.113c-0.035-0.407-0.051-0.866,0.194-1.44
		c1.238-2.814,3.92-5.237,5.218-7.786c0.517-1.004-0.082-2.048,0.132-2.592C412.598,278.838,415.101,278.058,413.628,276.161z
		 M211.515,384.845c0.911-2.879,2.003,1.033,3.013,0.844C213.629,388.576,212.495,384.664,211.515,384.845z M191.874,399.689
		c-0.444,0.75-3.421-1.495-2.805-4.483c1.137,0.729,2.615,1.019,3.542,2.041C192.805,398.474,190.367,399.068,191.874,399.689z
		 M195.975,406.863c-0.419-0.099-0.783-0.269-1.113-0.481c-0.66-0.424-1.185-1.016-1.751-1.548c0.422-0.75,1.523-0.795,2.508-0.371
		c0.984,0.422,1.858,1.258,1.797,2.405C196.868,406.958,196.394,406.946,195.975,406.863z M211.28,405.684
		c0.304-2.989,3.661-1.378,4.941-0.83C214.645,406.999,213.145,404.281,211.28,405.684z M224.75,387.802
		c-0.527-0.378,0.117-1.243,0.98-1.877c0.865-0.621,1.958-0.941,2.396-0.082C228.008,387.836,225.019,386.012,224.75,387.802z
		 M262.517,395.208c0.283-0.946,0.745-1.492,1.342-1.744c0.597-0.252,1.332-0.205,2.145-0.015
		C266.531,396.296,263.788,395.352,262.517,395.208z M283.6,387.735l-1.164,0.414l-2.331,0.824c-0.1-0.753,0.101-3.899,0.957-2.106
		c0.619,0.048,1.392-0.575,2.076-0.855c0.679-0.295,1.286-0.226,1.608,1.269L283.6,387.735z M329.937,343.308
		c-1.486-0.117-3.313-0.425-3.11,1.09c0.181,1.403,1.505,1.166-0.682,1.592c-1.102-1.848-0.171-2.558,1.162-3.055
		c1.326-0.501,3.087-0.77,3.508-1.724C332.546,343.365,331.423,343.432,329.937,343.308z M333.152,352.148
		c-0.535-1.439-1.057-2.857,0.501-3.59C335.221,350.306,334.167,351.223,333.152,352.148z M337.561,336.449
		c-1.924-1.933-1.26-4.318,0.49-3.912C338.206,333.906,339.51,335.609,337.561,336.449z M339.958,333.022
		c-0.91-1.592,1.87-3.368,3.412-0.961C342.43,333.265,340.886,331.835,339.958,333.022z M368.56,330.547
		c0.49-0.577,0.983-1.156,1.476-1.736C372.734,330.1,370.966,333.701,368.56,330.547z M376.226,326.338
		c-2.588-1.057,0.635-1.858-1.964-2.909c-1.731-0.176-2.881,1.328-5.059-0.276c1.08-2.607,4.46,1.465,5.432-1.57
		C375.58,323.168,377.485,324.809,376.226,326.338z M393.964,239.291c-0.208,1.037,2.094,1.095,1.194,2.413
		c-2.634,0.156-3.265-0.255-4.799-1.495C390.401,238.814,392.35,239.215,393.964,239.291z M387.81,231.385
		c0.56-0.713,0.865,0.094,0.741,0.628c0.77-0.113,1.546-0.222,1.815-0.773c1.347,0.54,0.321,1.256-0.993,0.897
		c0.393,1.283,1.358,3.548-2.148,2.77C386.845,232.999,389.488,232.758,387.81,231.385z M388.394,307.225
		c-0.776-0.159-1.549-0.327-2.046,0.132c-0.968-1.202-0.615-2.453,0.373-3.778C388.539,304.7,389.097,305.918,388.394,307.225z
		 M392.07,310.788c-2.994-1.262-1.267-4.033,1.26-2.028L392.07,310.788z M398.213,301.888c-2.361-1.163-1.782-2.672-1.522-4.156
		C399.079,298.856,398.503,300.385,398.213,301.888z M399.377,286.618c2.165-1.913,1.208-3.439,3.131-5.057
		c1.431,0.656-0.246,2.011,1.6,2.587c-1.496-0.044-1.659,0.872-1.962,1.658C401.843,286.591,401.402,287.242,399.377,286.618z
		 M403.959,290.632c-0.25,1.308,1.818,2.5,0.173,3.419c-1.51-0.644-1.82-2.137-1.556-3.522c0.065-0.347,0.172-0.686,0.295-1.009
		c0.119-0.325,0.265-0.63,0.429-0.9c0.328-0.539,0.731-0.937,1.136-1.072C407.894,288.82,404.082,290.015,403.959,290.632z
		 M405.685,286.78c0.403-0.924,0.805-1.847,1.207-2.769C409.639,284.133,407.664,288.654,405.685,286.78z M406.217,279.21
		c-0.552,0.918-0.387,3.063-2.469,1.579c0.792-0.541,0.829-1.391,1.695-1.883c-0.15,0.084,1.353-0.825,1.201-0.811
		c0.339-0.036,1.285,0.7,1.561,0.596c0.962-0.37,1.56-3.03,3.984-1.095C410.798,279.092,408.198,278.696,406.217,279.21z"/>
	<path d="M126.917,391.107c-2.097,0.546-3.801-0.193-5.446-1.321c-0.823-0.564-1.633-1.227-2.479-1.879
		c-0.849-0.645-1.703-1.349-2.667-1.901c-1.365,0.441-2.545,3.322-3.239,0.18c1.263-1.21,2.48-2.721,3.863-2.679
		c0.799,0.341,1.647,0.994,2.197-0.72c-1.684-1.092-3.63-1.472-5.293-2.1c-0.83-0.313-1.588-0.688-2.195-1.237
		c-0.595-0.574-1.039-1.324-1.254-2.36c-0.658,1.437-1.427,1.295-2.096,2.631c0.444,0.343,0.996,0.63,1.548,0.917
		c0.55,0.29,1.103,0.574,1.559,0.891c0.905,0.649,1.382,1.532,0.566,3.12c-2.355,0.202-2.007-1.554-4.333-1.442
		c-0.404,3.941-2.625,0.835-4.32,4.228c-0.381,1.42,0.843,2.088,0.798,3.357c1.475,0.662,2.931,1.181,4.292,1.68
		c1.366,0.488,2.662,0.904,3.889,1.21c1.229,0.301,2.379,0.515,3.478,0.538c1.102,0.017,2.134-0.112,3.094-0.425
		c1.955-0.643,0.399,1.041,2.084,0.981c1.141-0.044,2.422-0.47,3.692-0.822c0.635-0.176,1.268-0.333,1.883-0.414
		c0.619-0.092,1.224-0.118,1.793-0.004C127.403,393.031,126.807,392.3,126.917,391.107z M119.581,392.282
		c-0.8-0.441-1.875-0.724-2.528-1.253c-0.647-0.542-0.86-1.339,0.032-2.743c0.044,0.426,0.333,0.718,0.564,1.041
		c0.236,0.313,0.414,0.661,0.23,1.221C119.544,390.799,123.187,393.716,119.581,392.282z"/>
	<path d="M117.304,365.682c-0.948,1.413-1.983,0.726-2.943,2.129c1.356,1.171,2.599-0.131,3.867-0.626
		C117.597,366.867,117.445,366.277,117.304,365.682z"/>
	<path d="M129.547,385.793c-0.76-0.33-1.692-0.553-1.49-1.506c-0.539,1.17-0.414,1.914,0.033,2.454
		c0.224,0.27,0.527,0.488,0.868,0.683c0.341,0.193,0.726,0.343,1.101,0.507C130.92,386.517,130.311,386.112,129.547,385.793z"/>
	<path d="M90.199,359.652c0.573-0.726,1.437-1.416,1.506-2.053c0.044-0.419-0.357-0.91-0.325-1.324
		c0.176-2.343-1.556-1.104-2.052-1.645c-0.21-0.228,0.492-1.032-0.303-1.323c-0.891-0.312-2.185,0.467-2.67-0.013
		c-0.041-0.038,1.028-1.181,1.043-1.301c0.074-0.624-0.561-0.877-1.203-1.097c-0.634-0.23-1.264-0.441-1.199-0.922
		c-0.537,0.143-3.374,1.543-2.11-0.75c1.218-1.22,1.871,1.385,3.173-0.535c-0.242-1.981-4.054-1.105-6.383,1.025
		c0.179-0.978,0.258-2.79-0.137-4.083c-0.204-0.64-0.507-1.18-0.989-1.424c-0.483-0.243-1.145-0.195-2.043,0.309
		c0.133,0.822,0.58,1.564,0.591,2.424c0.009,0.861-0.396,1.823-2.031,3.13c1.871,0.829,3.934,0.088,5.526,2.688
		c-0.539,0.639-0.969,0.468-1.479,0.911c0.944,2.025,2.481-0.56,3.498,0.859c0.854,1.753,1.991,3.406,3.32,4.741
		c0.666,0.665,1.384,1.244,2.146,1.703c0.381,0.229,0.772,0.428,1.173,0.593c0.405,0.159,0.828,0.272,1.255,0.352
		C89.341,361.161,89.63,360.374,90.199,359.652z M85.942,357.244c3.787-4.788,2.04,0.405,4.349,1.362
		C88.646,360.604,87.353,358.059,85.942,357.244z"/>
	<path d="M132.143,380.045c-0.294-0.216-0.524-0.538-0.726-0.866c-0.404-0.656-0.692-1.331-1.173-1.228
		c-0.453,0.099-0.518,1.68-1.148,1.306c-0.426-0.258,0.687-3.836-1.093-1.436c1.291,1.443-0.394,1.527-1.229,4.028
		c-0.94-0.234-2.077-1.918-2.641,0.593c1.189,1.635,3.453-0.975,3.953-0.903c0.673,0.105,0.19,1.453,1.124,1.446
		c0.127,0.003,0.755-1.244,1.142-1.302c1.085-0.162,1.63,1.837,2.762,0.293c-0.314-0.326-0.303-0.877,0.15-1.742
		C132.805,380.346,132.441,380.25,132.143,380.045z"/>
	<path d="M97.484,364.412c-0.069-0.463,0.185-0.896,0.568-1.344c0.768-0.896,2.042-1.861,2.336-3.222
		c-1.592-1.932-2.387,2.203-3.156,1.828c-0.995-0.727-1.992-1.455-2.985-2.181c-0.473,0.452-0.972,1.324-1.405,1.039
		c1.548-3.258,2.72-0.769,4.124-2.146c-1.327-0.814-1.524-4.127-3.855-1.8c1.86,1.196-0.811,1.719-1.488,2.01
		c-0.858,3.062,2.685,2.241,0.139,5.276c2.014,0.927,4.071,0.172,2.797-2.081c1.512,0.591,1.629,2.065,1.857,3.18
		c0.227,1.108,0.549,1.879,2.452,0.93C97.936,365.38,97.555,364.871,97.484,364.412z"/>
	<path d="M115.356,370.524c-0.703,0.499-1.396,1.263-2.122,1.459c0.534-1.013,1.098-1.472,1.66-1.918
		c-3.003-1.946-5.909-1.466-8.863,0.545c-0.757-0.377-1.499-1.105-2.223,0.549c0.415,0.679,3.791,1.415,3.22,1.991
		c0.196-0.199-1.645-0.168-1.356,0.159c1.151,1.309,1.09,2.25,3.213,0.947c-2.393-0.979-0.324-1.037,0.744-3.438
		c-0.263-0.372-0.887-0.56-0.49-1.267c0.558,0.898,3.166,0.719,2.317,2.353c-0.546,0.956-1.179,0.188-1.743,0.904
		c0.986,1.689,1.767-0.472,2.66-0.365c-0.043,1.901-0.556,0.906-1.623,2.911c1.168,0.002,2.113,0.806,3.153,1.038
		c1.037,0.236,2.126-0.033,3.491-2.086c-1.349-0.434-0.989-1.837,0.168-3.693C116.766,369.796,116.059,370.027,115.356,370.524z"/>
	<path d="M125.753,373.984c1.451,1.04,2.609-0.361,3.847-0.943C128.269,372.878,126.823,371.691,125.753,373.984z"/>
	<path d="M106.441,368.9c0.439-0.496,0.859-1.391,1.308-1.146c0.865-1.061,0.861-1.635,0.651-2.044
		c-0.211-0.408-0.644-0.634-0.671-0.95c-0.037-0.443,1.306-0.863,1.301-1.137c-0.008-0.754-2.466-0.742-0.401-3.257
		c1.378,0.946,1.375,2.624,3.443,3.17c-1.126,1.347-2.641,1.558-2.567,3.321c0.941,0.673,4.147,2.975,3.519,0.161
		c-1.022,1.451-2.206-1.106-0.936-2.501c1.308-0.188,3.328,1.716,5.583-0.553c-1.622,0.086-3.21-1.402-4.872-2.814
		c-0.841-0.692-1.671-1.423-2.557-1.932c-0.887-0.507-1.828-0.796-2.864-0.671c0.985,0.761-1.386,2.382-1.773,1.82
		c-0.812-0.668-1.107-1.579-1.407-2.478c-0.149-0.452-0.304-0.894-0.519-1.316c-0.211-0.428-0.488-0.824-0.899-1.159
		c-2.302,4.343,2.736,7.647,4.951,8.357c-1.646,0.811-1.151,1.746-2.186,3.543c-0.162-3.411-2.667-5.098-5.755-2.804
		c0.648,0.534,1.592,0.926,0.413,2.284C102.292,369.533,104.375,367.221,106.441,368.9z"/>
	<path d="M166.216,391.21c-0.37,0.96,0.262,2.159,1.045,2.717c0.786,0.536,1.711,0.41,1.875-1.194
		C167.004,393.782,167.969,391.929,166.216,391.21z"/>
	<path d="M262.03,376.367c1.769-1.07,5.45-0.471,5.973-2.627C266.231,374.396,262.798,373.868,262.03,376.367z"/>
	<path d="M297.751,329.513c-0.571,0.825-0.919,2.132-1.112,2.583c1.213-0.777,2.426-1.554,3.641-2.332
		C299.128,328.337,298.323,328.688,297.751,329.513z"/>
	<path d="M304.028,326.11c-0.652,0.036-1.367-0.354-2.214-1.508c-1.291,0.749-2.076,1.745-1.795,3.313
		C301.975,327.856,303.708,328.453,304.028,326.11z"/>
	<path d="M250.564,376.616c-0.94,0.057-1.897-0.01-2.839-0.264c0.489,1.554,1.203,1.77,1.967,1.598
		c0.765-0.17,1.573-0.725,2.262-0.762c1.021-0.037,2.588,0.322,3.853,0.116c1.264-0.205,2.214-0.97,1.949-3.233
		c-1.181,0.578-2.734,1.396-4.473,1.962C252.412,376.31,251.502,376.548,250.564,376.616z"/>
	<path d="M198.264,377.101c-0.258-0.022-0.515-0.045-0.775-0.067c-0.26-0.032-0.521-0.064-0.788-0.097
		c-0.533-0.068-1.084-0.138-1.672-0.213c-1.175-0.154-2.496-0.34-4.105-0.604c-0.586,0.031-1.148,0.127-1.117,1.559
		c1.931,0.135,4.279,0.432,6.591,0.71c1.155,0.162,2.303,0.206,3.382,0.282c1.079,0.064,2.089,0.105,2.971,0.104
		c1.15,0.003,4.392,0.616,2.897-0.676C202.383,377.52,200.326,377.284,198.264,377.101z"/>
	<path d="M183.618,376.787c1.819-0.246,4.751,2.113,5.412-0.873c-1.044,0.901-2.051,0.239-2.957-0.184
		C185.164,375.301,184.353,375.082,183.618,376.787z"/>
	<path d="M217.73,379.772c1.583-0.406,3.034-0.45,4.401-0.351c0.683,0.049,1.345,0.134,1.989,0.227
		c0.644,0.09,1.267,0.149,1.876,0.212c2.433,0.229,4.648,0.157,6.665-1.969c-2.202,0.229-5.46,0.483-8.208,0.753
		C222.425,378.768,216.69,378.427,217.73,379.772z"/>
	<path d="M163.846,389.754c0.352,0.278,1,0.276,0.836,1.072c-1.344,0.318-3.936,0.698-4.601-1.173
		c-0.529,2.75,1.767,2.864,3.526,3.476c0.74-2.381,2.23-2.569,3.474-3.429C166.563,388.109,164.644,388.304,163.846,389.754z"/>
	<path d="M209.489,378.999c0.762-0.014,2.006,0.525,3.352,0.801c1.344,0.276,2.789,0.305,3.884-0.823
		c-0.369-0.287-0.921-0.5-1.562-0.664c-0.641-0.177-1.371-0.286-2.097-0.311C211.616,377.953,210.178,378.241,209.489,378.999z"/>
	<path d="M135.482,368.444c-0.19-2.589-3.421-0.608-4.817-1.359c0.943-1.923,2.237-0.248,3.159-2.19
		c-1.034-0.573-2.039-0.869-3.035-1.002c-0.496-0.069-0.996-0.084-1.484-0.097c-0.487-0.015-0.973-0.002-1.46,0.024
		c0.368-0.862,1.197-0.829,0.736-1.496c-1.889-0.007-3.7-0.605-5.481-1.495c-0.445-0.223-0.889-0.462-1.331-0.719
		c-0.433-0.272-0.866-0.559-1.299-0.854c-0.866-0.591-1.733-1.22-2.612-1.85c-0.879-0.63-1.771-1.262-2.687-1.861
		c-0.914-0.603-1.82-1.232-2.786-1.763c-0.961-0.539-1.964-1.011-3.025-1.387c-1.056-0.384-2.197-0.63-3.363-0.833
		c0.393,0.301-0.315,1.582-0.937,1.383c0.38-1.442-1.518-1.841-0.576-3.513c-1.403,0.915-1.986,0.306-2.351-0.669
		c-0.366-0.977-0.512-2.319-1.095-2.907c-0.703-0.742-1.87-0.545-2.789-1.16c-0.667-0.461-0.736-1.716-1.383-2.199
		c-1.189-0.902-2.457-1.801-3.66-2.853c-1.222-1.029-2.467-2.097-3.723-3.192c-0.623-0.554-1.271-1.089-1.88-1.675
		c-0.608-0.587-1.22-1.178-1.834-1.77c-1.223-1.189-2.445-2.393-3.655-3.598c-1.176-1.242-2.317-2.51-3.449-3.752
		c-1.119-1.255-2.26-2.455-3.265-3.731c-1.02-1.258-2.016-2.486-2.978-3.671c-0.476-0.596-0.95-1.174-1.398-1.754
		c-0.433-0.592-0.857-1.172-1.27-1.738c-2.756,1.264,0.621,1.631-1.039,2.748c-0.81-0.594-0.564-2.021-0.604-3.063
		c-0.041-1.044-0.371-1.708-2.387-0.846c0.257,1.63,0.131,2.232,0.191,2.996c-1.659,0.259-0.43-1.783-2.106-2.761
		c2.861-1.12,1.424-1.521,3.669-3.444c1.088,0.464,1.933,1.313,2.752,2.325c0.409,0.506,0.811,1.052,1.232,1.608
		c0.426,0.552,0.846,1.135,1.361,1.653c1.395,1.467,2.048,4.281,4.64,2.939c-0.804-0.697-2.078-2.025-3.232-3.541
		c-0.59-0.747-1.1-1.584-1.515-2.402c-0.416-0.817-0.73-1.621-0.874-2.353c-2.791,1.298-2.322-1.7-2.663-2.131
		c-0.494-0.591-0.93-1.24-1.391-1.876c-0.454-0.64-0.911-1.284-1.368-1.927c-0.904-1.292-1.847-2.55-2.738-3.788
		c-0.877-1.249-1.769-2.431-2.69-3.49c-0.46-0.53-0.928-1.028-1.405-1.49c-0.477-0.461-0.969-0.881-1.437-1.28
		c-0.304,0.398,0.144,2.657-0.943,1.706c-0.976-1.399,1.622-2.843,1.443-4.233c-2.338-0.026-1.038,1.79-4.065,2.977
		c0.947-1.795,0.028-3.554,3.377-4.224c-0.8-1.175,0.505-4.108-2.562-2.923c0.808,1.119,0.978,2.226-0.068,3.339
		c-1.123,0.265-2.5-0.195-3.051-0.971c-0.564-0.77-0.233-1.869,1.951-2.819c-0.038-1.723-2.348,0.134-3.064-0.55
		c1.877-2.84,3.135-0.4,4.526-0.244c0.964-1.789,0.371-3.591-0.809-5.434c-2.96,1.087,0.589,2.512-2.876,3.601
		c0.105-1.889-0.799-2.556-2.03-3.008c-0.307-0.113-0.637-0.21-0.97-0.312c-0.328-0.104-0.664-0.21-0.998-0.331
		c-0.667-0.243-1.324-0.552-1.877-1.044c4.734-1.235-1.064-3.53,3.406-4.742c-0.336,1.042,0.305,1.647,0.847,2.272
		c0.543,0.628,0.987,1.278,0.285,2.469c-0.346-0.463-0.413-1.309-1.326-0.965c0.27,0.411-0.481,0.858-0.372,1.245
		c0.312,1.092,1.186-0.037,1.887,0.16c1.124,0.292,1.541,1.403,2.661-0.243c2.038-1.454-2.063,0.225-1.539-1.354
		c0.224-2.796-0.23-6.1-3.567-6.21c-0.15,0.823,1.858,1.871,0.171,2.526c-0.926,0.33-2.13,1.036-2.482,0.569
		c1.424-0.473,1.865-1.056,1.876-1.683c0.006-0.313-0.096-0.639-0.237-0.968c-0.141-0.33-0.29-0.678-0.433-1.012
		c0.992-0.388,1.278,0.126,2.474-0.525c-1.199-2.323-1.856-4.578-2.296-6.184c-0.131-0.476-0.264-0.835-0.379-1.137
		c-0.109-0.304-0.215-0.546-0.315-0.776c-0.199-0.46-0.374-0.877-0.495-1.661c-0.189-1.234-1.723-2.355-1.779-2.885
		c-0.011-0.113,1.089-1.22,1.167-1.855c0.033-0.277,0.04-0.538,0.026-0.783c-0.007-0.248-0.029-0.482-0.07-0.703
		c-0.08-0.442-0.222-0.833-0.38-1.189c-0.317-0.713-0.702-1.288-0.792-1.842c-0.177-1.096,0.498-1.98,0.108-2.93
		c-0.226-0.573-1.64-0.797-2.057-1.398c-0.324-0.453,0.795-0.913,0.523-1.577c-0.216-0.527-1.96-0.461-1.907-0.992
		c0.015-0.183,1.347-1.444,2.252-1.479c1.219,1.66-0.466,3.191,3.174,3.028c-0.659,1.937,0.209,3.072,1.027,4.137
		c0.828,1.069,1.642,2.063,1.011,3.846c0.997-0.075,1.943-0.096,2.652,0.122c-1.67,1.419-1.304,3.1-0.45,4.74
		c0.428,0.82,0.974,1.631,1.46,2.404c0.519,0.759,0.968,1.484,1.156,2.16c0.295,1.051-0.584,2.618-0.438,3.612
		c0.125,0.826,0.4,1.589,0.769,2.291c0.385,0.695,0.834,1.342,1.249,1.97c0.831,1.257,1.523,2.432,1.313,3.806
		c0.717,0.361,2.928-1.319,3.369-0.607c1.155,1.514-1.326,2.876,0.27,4.413c1.611,0.045,2.627-2.093,3.548-0.325
		c-2.518,0.893-2.623,1.824-3.284,2.764c0.76,0.725,1.019,1.16,1.263,1.552c0.253,0.386,0.476,0.737,1.145,1.288
		c-1.129,1.91-0.498,2.83,0.531,3.595c1.043,0.762,2.43,1.402,3.041,2.76c0.869-0.46,1.968-1.323,2.357-0.946
		c-1.458,0.759-1.08,1.402-1.641,2.113c0.706,1.187,1.586,2.058,2.498,2.851c0.462,0.392,0.908,0.783,1.391,1.153
		c0.478,0.374,0.947,0.76,1.394,1.19c-0.071,0.889-0.995,1.179-0.593,2.09c0.401,0.902,1.33,1.671,2.406,2.496
		c0.529,0.42,1.128,0.829,1.722,1.275c0.591,0.449,1.175,0.938,1.706,1.497c0.398,0.415-0.335,1.064,0.171,1.604
		c0.579,0.607,1.213,1.226,1.87,1.845c0.665,0.612,1.391,1.193,2.089,1.783c1.406,1.172,2.781,2.308,3.883,3.351
		c0.632,0.576-0.022,1.376,0.601,1.905c0.797,0.669,2.727,0.433,3.337,1.169c0.856,1.004,1.559,2.882,3.361,2.335
		c0.091,0.659,0.1,1.352-0.201,2.145c0.819,0.519,1.998,0.019,2.743,0.363c0.848,0.386,1.576,1.351,2.282,2.384
		c0.726,1.009,1.407,2.114,2.068,2.834c0.358,0.391,1.435,0.039,1.539,0.262c0.2,0.415-0.69,1.482-0.06,2.178
		c0.587,0.638,1.29-0.005,1.884,0.545c0.147,0.133,0.124,1.381,0.879,1.788c0.919,0.503,2.454,0.849,3.932,1.123
		c0.742,0.134,1.46,0.266,2.105,0.368c0.648,0.097,1.202,0.195,1.582,0.31c-0.824,2.968,1.278,0.71,1.781,1.321
		c0.115,0.143-0.252,1.575,0.125,2.163c0.357,0.559,0.805,0.92,1.29,1.154c0.242,0.117,0.494,0.202,0.747,0.264
		c0.26,0.053,0.521,0.084,0.779,0.102c1.031,0.07,1.992-0.074,2.496,0.164c0.647,0.304,0.718,1.521,1.406,1.944
		c1.469,0.894,2.837,0.324,3.384,2.176c1.302,0.217,2.639-0.836,3.911-0.564c-0.461,0.314-2.848,2.9-2.049,3.633
		c1.179,0.156,2.426-3.493,3.537-1.766c-0.658,0.989-1.303,0.855-1.969,1.73c1.604,1.279,3.217,1.744,4.673,2.295
		c1.464,0.542,2.795,1.129,4.014,2.47c0.82-1.412,0.175-1.772,0.289-2.671c0.377,1.263,1.07,1.858,1.955,2.188
		c0.889,0.321,1.986,0.338,3.235,0.338c0.677,2.041,1.88,2.797,3.192,2.972c1.305,0.201,2.673-0.068,3.72,0.081
		c0.899,0.126,1.928,0.396,2.995,0.75c1.083,0.307,2.205,0.696,3.273,1.112c1.068,0.416,2.081,0.86,2.943,1.278
		c0.431,0.208,0.824,0.413,1.168,0.596c0.348,0.172,0.645,0.333,0.879,0.476c1.403,0.856,3.075,0.061,4.48,0.523
		c0.637,0.209,1.279,0.455,1.906,0.716c0.626,0.269,1.252,0.49,1.836,0.742c1.171,0.502,2.207,0.947,2.919,1.252
		c0.532,0.214,0.799-0.739,1.479-0.48c0.823,0.305,1.612,0.592,2.401,0.769c0.788,0.184,1.563,0.334,2.34,0.47
		c1.554,0.273,3.115,0.496,4.82,0.848c10.123,1.858,20.626,3.267,31.295,3.242c10.648-0.016,21.481-1.507,31.551-5.288
		c-0.417-1.92-1.274-2.254-1.511-4.8c1.274-0.222,2.577-0.56,3.135,1.95c-1.634-0.347-1.967,0.845-1.001,3.58
		c0.924,0.279,1.126-0.285,1.274-0.901c0.148-0.622,0.252-1.27,0.978-1.243c1.174,2.264,3.366,0.704,5.204,0.473
		c-0.193-0.964-0.699-2.264-0.229-2.516c1.263,0.48,1.879-1.054,2.212-2.083c0.34-1.011,0.452-1.443,0.794,1.314
		c0.752,0.524,0.807-1.931,1.458-1.288c0.101,0.097,0.414,1.587,0.492,1.593c1.211,0.063,2.688-0.271,4.248-0.783
		c0.785-0.24,1.567-0.595,2.356-0.944c0.787-0.353,1.573-0.723,2.338-1.083c0.917-0.427,1.993-0.928,3.063-1.427
		c1.053-0.535,2.075-1.121,2.908-1.658c0.572-0.376,0.554-1.799,0.992-2.191c0.494-0.434,1.062-0.688,1.656-0.87
		c0.595-0.178,1.214-0.289,1.79-0.465c1.159-0.332,2.212-0.795,2.675-2.203c-1.431-1.689-1.626,1.581-2.354,0.151
		c-1.463-2.088,0.246-1.734,0.866-2.223c-0.701-1.326-0.463-1.931,0.443-2.03c-0.974-1.846-1.882-2.013-1.091-3.163
		c0.698-0.227,1.401-0.618,2.098-0.665c0.687-0.064,1.384,0.237,2.094,1.444c-0.701-0.126-1.259-0.065-1.705,0.113
		c-0.444,0.18-0.755,0.515-0.931,0.993c-0.35,0.955-0.164,2.481,0.612,4.451c0.946,0.738,1.624,0.44,2.221-0.118
		c0.297-0.281,0.58-0.618,0.859-0.942c0.276-0.329,0.559-0.628,0.877-0.802c0.672-0.367,1.459,0.515,1.955-0.063
		c0.587-0.694,0.161-2.686,0.742-3.192c0.038-0.026,1.411,1.212,1.979,0.858c0.974-0.593-0.204-2.829,1.883-1.981
		c-0.629-0.255-1.44,1.08-1.101,1.582c1.494-0.063,1.846-1.736,2.993-2.666c1.015-0.834,2.535-1.334,3.567-2.082
		c1.015-0.773,1.562-1.736,0.667-3.369c-2.229-1.304-0.932,1.315-1.728,2.084c-0.591-0.912-1.064-0.262-1.639-0.97
		c0.044-2.232-1.314-3.494-3.123-4.924c0.132-0.132,0.338-0.217,0.546-0.302c0.204-0.091,0.408-0.185,0.543-0.318
		c0.195-0.192,0.239-0.473-0.067-0.964c0.348-0.231,0.695-0.463,1.041-0.697c1.153,1.471,2.278,2.692,3.398,3.78
		c0.779-0.276,0.26-1.278,0.957-1.597c-1.174-1.548-2.254-2.421-3.274-2.919c0.836-0.576,1.664-1.161,2.487-1.753
		c0.463,0.604,0.894,1.449,1.251,2.4c0.756-0.205,0.933-0.748,0.909-1.39c-0.023-0.64-0.246-1.383-0.314-2.038
		c1.006,1.497,1.416-0.54,2.176-0.516c-0.259-0.463-0.484-0.748-0.69-0.923c0.699-0.533,1.392-1.073,2.081-1.618
		c0.465,1.082,1.471,2.367,2.508,2.846c-1.141,0.523-1.058,0.997,0.333,1.808c1.667,1.773-0.241-1.398,0.528-1.391
		c1.059,1.482,1.91,1.876,2.557,1.18c-0.927-1.115-1.538-2.086-1.746-2.865c-0.586,0.272-1.037,1.188-1.84,0.373
		c-0.187-1.037-0.556-2.634-0.306-3.587c0.321-0.263,0.64-0.528,0.959-0.794c0.204,0.001,0.442,0.044,0.724,0.143
		c-0.117-0.166-0.23-0.318-0.342-0.462c1.239-1.04,2.46-2.1,3.662-3.179c0.171,0.16,0.347,0.339,0.534,0.556
		c-0.12,0.346-0.605,0.544-0.079,1.162c-0.091-2.664,2.248,0.046,3.389-1.81c-0.859-1.077-1.512-1.435-2.084-1.513
		c0.117-0.109,0.234-0.218,0.35-0.327c0.016,0,0.033,0.002,0.048,0.001c1.51-0.117,2.371-1.316,3.927-1.238
		c-0.721-1.046-1.146-1.155-1.47-0.96c-0.163,0.098-0.301,0.272-0.44,0.445c-0.144,0.168-0.293,0.33-0.464,0.414
		c-0.029-0.037-0.054-0.066-0.081-0.1c1.189-1.142,2.359-2.302,3.508-3.482c2.01,1.766,2.569,3.043,3.108,4.337
		c0.53-0.874,1.645-1.553,2.578-2.299c0.908-0.768,1.607-1.622,1.346-2.732c-0.303,0.302-1.438-0.614-1.223-1.129
		c0.2-1.973,2.802,2.457,3.015,0.47c-1.627-1.997-2.79-2.801-3.153-4.811c2.694-3.102,5.254-6.316,7.674-9.634
		c0.145,0.387,0.4,0.797,1.338,1.339l0.514-0.653c0.37,0.275,0.975,0.296,0.259-0.325c-0.609,0.05-1.249-0.318-1.771-0.83
		c0.291-0.402,0.579-0.805,0.865-1.21c0.476,0.585,0.784,1.14,2.095,1.877c0.424-1.262-0.445-1.686-1.567-2.624
		c0.825-1.182,1.631-2.378,2.42-3.585c0.307,0.318,0.632,0.624,0.971,0.903c0.59-0.515,0.21-1.155-0.375-1.819
		c0.166-0.258,0.331-0.518,0.495-0.778c0.841,0.175,1.344-0.234,1.456-0.885c0.069-0.363,0.018-0.791-0.145-1.219
		c0.152-0.249,0.302-0.5,0.452-0.75c-0.009,0.356-0.023,0.546,0.658,0.226c-1.442-1.376,2.509-0.684,0.662-2.461
		c11.414-19.776,18.139-42.428,18.721-66.55c0.072,0.415,0.295,0.595,0.816,0.29c-0.406-0.842,0.322-1.613,0.712-2.264
		c0.39-0.648,0.443-1.169-1.316-1.448c0.095,0.444-0.094,1.418-0.19,2.277c0.012-0.758,0.02-1.517,0.02-2.277
		c0-6.101-0.395-12.114-1.157-18.015c1.911-0.733,3.737-1.513,6.894-1.82c0.11,1.142,0.22,2.284,0.33,3.424
		c-1.982,0.993-2.807,2.459-3.489,3.955c-0.683,1.495-1.241,3.026-2.789,4.099c0.981,0.015,2.36-0.191,2.515,0.29
		c-0.164,0.665,0.185,1.017,0.53,1.391c0.339,0.373,0.645,0.768,0.303,1.505c2.523,0.445,3.404,0.785,4.155,1.613
		c0.32,0.363-0.999,0.585-0.846,0.869c0.36,0.653,2.864-0.034,4.167,0.404c0.264,0.091-0.242,0.757-0.008,0.88
		c1.054,0.561,2.799,0.307,3.327,0.9c0.096-0.549,0.258-1.065,1.677-0.898c1.516,1.176,2.075,0.275,4.156,1.403
		c0.151-0.698-0.283-1.72,0.85-1.867c0.043,0.599,1.064,0.652,0.821,1.413c1.679-0.077,2.955-0.865,4.321-1.43
		c1.365-0.56,2.821-0.902,4.864,0.008c0.867-1.454,1.136-2.517,4.18-1.529c1.697-2.551,7.127-2.933,8.335-5.947
		c2.42-0.332,2.528-2.021,5.773-1.883c0.079-1.484,0.601-3.079,0.882-4.7c0.141-0.81,0.221-1.624,0.157-2.427
		c-0.069-0.802-0.257-1.594-0.74-2.348c-0.668-1.085-2.263-1.44-2.758-2.494c-0.796-1.694-1.138-3.966-1.667-5.918
		c-0.597-1.942-1.384-3.555-2.92-3.904c1.421-2.23-0.853-2.814-1.584-4.655c-0.859-2.049-0.651-4.759-1.182-5.816
		c-0.2-0.398-2.113-0.852-1.956-1.196c1.227-2.647,5.95-3.444,8.801-2.688c0.392-0.928-0.303-1.496-0.853-1.949
		c-0.56-0.452-0.951-0.8,0.083-1.338c0.537,1.499,4.045-0.312,3.892,1.943c1.91-0.451,2.171-1.56,4.732-1.762
		c-0.845-0.906-1.289-1.894-1.569-2.926c-0.288-1.03-0.449-2.094-0.836-3.1c-0.674-1.744-2.587-2.637-3.78-4.336
		c-1.9-2.611-2.549-6.176-3.437-7.967c-0.254-0.536-0.501-1.103-0.734-1.69c-0.23-0.588-0.464-1.189-0.698-1.789
		c-0.486-1.191-1.054-2.344-1.936-3.219c-0.303-0.305-1.822-0.426-2.153-0.969c-0.236-0.381-0.225-1.013-0.244-1.663
		c-0.021-0.648-0.043-1.328-0.287-1.82c-0.72-1.451-2.75-2.055-2.573-3.834c-1.774,0.79-2.683,0.181-3.196-0.939
		c-0.13-0.28-0.23-0.594-0.322-0.923c-0.097-0.325-0.178-0.669-0.248-1.017c-0.141-0.697-0.242-1.413-0.357-2.035
		c-1.908-0.445-2.686-2.183-3.395-4.288c-0.339-1.061-0.725-2.171-1.202-3.255c-0.479-1.082-1.066-2.126-1.877-2.996
		c-0.768,0.362-1.242,0.637-1.709,0.358c-1.131-0.666-2.332-2.222-3.374-3.846c-1.016-1.642-1.758-3.442-1.79-4.712
		c2.108,0.069,1.837-1.545,4.172-2.754c-0.272-0.6-0.505-1.2-0.733-1.8c-0.114-0.3-0.228-0.6-0.343-0.901
		c-0.125-0.294-0.253-0.588-0.388-0.882c-0.543-1.176-1.213-2.357-2.29-3.528c-1.763,2.185-1.99-0.8-2.652-0.888
		c-0.642-0.078-2.346,1.637-2.658,0.568c0.225-1.8,2.754-0.676,1.352-2.422c-1.036-1.042-0.685,1.485-2.663,2.008
		c0.039-2.239-3.833,0.083-2.341-1.707c2.544,0.811,1.192-1.856,3.634-2.104c-1.032-0.919-3.4-5.58-3.757-3.518
		c0.406,0.757,1.508,1.464,0.725,2.309c-0.753-1.498-1.929-1.456-2.707-2.14c-0.077-0.065-0.64-0.418-1.211-0.772
		c-0.577-0.349-1.144-0.715-1.186-0.861c-0.11-0.354,1.042-1.463,0.547-1.935c-0.25-0.239-1.672,0.591-2.341-0.195
		c-0.631-0.725-0.155-2.059-1.191-2.674c-0.971-0.017-1.936-0.203-2.848-0.517c-0.932-0.294-1.814-0.714-2.596-1.227
		c-1.564-1.026-2.732-2.425-3.12-3.93c-0.756,0.629-1.616,1.735-2.149,1.363c-0.522-1.239-2.061-2.449-3.807-3.745
		c-0.881-0.636-1.806-1.305-2.728-1.971c-0.457-0.336-0.908-0.675-1.342-1.019c-0.439-0.339-0.876-0.665-1.278-1.006
		c-0.772-0.652-0.256-1.559-1.073-2.077c-0.466-0.294-1.417,0.346-2.713-0.176c-0.173-0.072-0.701-1.157-1.624-1.432
		c-3.492-1.017,1.912,1.324-0.794,2.634c-1.805-0.714-1.262-2.163-0.435-3.694c-1.576-0.758-0.539-2.383-2.425-3.043
		c-0.567-0.442-1.287,0.841-1.869,0.636c-0.617-0.59,0.967-1.946-0.251-2.338c-1.542,0.809-2.284,0.209-3.052-0.617
		c-0.778-0.806-1.571-1.861-3.109-1.972c0.507-1.832,2.092-4.094,1.109-5.375c-0.791,1.045-1.59,2.414-2.31,1.41
		c2.904-3.782,3.15-4.322,6.583-6.55c-0.893-0.639-1.608-1.202-2.236-1.716c-0.627-0.516-1.165-0.982-1.724-1.394
		c-1.106-0.839-2.216-1.583-4.048-2.389c-0.898,1.271-1.803,2.149-2.726,2.2c0.898-1.589-0.248-2.302-1.493-2.962
		c-1.681,1.966,0.464,2.214-1.23,4.172c-0.209-0.59-0.414-1.185-0.371-1.895c0.042-0.707,0.327-1.523,1.119-2.578
		c-1.185-1.567-2.077,1.964-3.215,0.994c-1.317-0.415-2.583-0.923-3.848-1.436c-0.633-0.253-1.267-0.507-1.901-0.761
		c-0.635-0.251-1.278-0.485-1.944-0.672c-2.648-0.777-5.466-1.212-8.703-0.54c0.193-1.004,0.31-1.984,0.103-2.75
		c-1.831-0.305-3.666-0.69-5.508-1.142c-1.846-0.443-3.679-1-5.573-1.476c-3.769-0.996-7.545-2.276-11.441-3.363
		c-0.778,0.625-1.558,1.232-2.337,1.816c-0.282-3.04-0.944-0.282-2.543-0.903c-0.727-0.274-0.386-1.783-1.037-2.119
		c0.147,0.076-1.706,0.29-2.321,0.161c-3.099-0.674-4.35-0.669-6.442-1.088c-0.852,2.18-1.881,2.124-2.736,1.514
		c-0.853-0.612-1.54-1.782-1.638-1.8c0,0-0.817,1.45-0.91,1.492c-0.896,0.375-1.751-0.814-1.886-1.335
		c-0.622-2.443-2.312-0.542-3.646-0.887c-0.98-0.244-2.676-0.723-3.675-0.754c-2.261-0.067-4.496-0.866-5.787-1.136
		c-0.167-0.03-0.514,0.876-1.184,0.664c-0.41-0.134-0.611-1.019-0.933-0.995c-2.066,0.18-3.935,2.548-5.597,1.683
		c0.105-1.306,0.414-2.857-0.767-2.634c-1.119-0.372-1.351,0.195-1.418,0.826c-0.067,0.639,0.026,1.376-0.44,1.457
		c-0.559-0.788-2.928-2.981-3.608-1.219c0.823,0.166,1.842,0.082,1.426,1.83c-2.034,0.683-1.312-2.22-3.014-1.988
		c-0.516,2.156-1.612,1.727-2.785,1.111c-0.293-0.154-0.59-0.32-0.883-0.46c-0.293-0.135-0.58-0.234-0.854-0.276
		c-0.547-0.082-1.036,0.087-1.385,0.801c0.292,0.015,0.561,0.71-0.04,0.832c-0.107-1.131-0.672-1.634-0.366-3.36
		c-1.119,0.435-3.465-1.216-3.751,0.634c1.864-0.333,1.449,0.955,0.515,1.982c-0.935,1.026-2.375,1.795-2.684,0.418
		c0.034-1.379,1.465-0.4,1.616-1.594c-0.715,0.226-1.372,0.463-2.003,0.667c-0.316,0.102-0.625,0.196-0.932,0.277
		c-0.307,0.088-0.612,0.17-0.919,0.229c-1.229,0.24-2.488,0.178-4.068-0.517c-0.071,0.981,0.119,2.366-0.489,2.498
		c-0.807-2.471-2.01,1.092-3.648-0.005c-0.008-1.067,0.632-1.155,0.442-2.5c-1.402,1.595-1.892,0.636-2.339-0.465
		c-0.442-1.096-0.835-2.302-1.974-1.076c-0.514,2.723,1.747,0.56,1.223,3.282c-0.694,0.038-0.407,1.484-0.96,1.716
		c-0.578-0.503-2.113,0.784-2.599,0.112c-0.096-0.131-0.012-1.63-0.111-1.667c-0.733-0.231-1.489-0.099-2.338,0.057
		c-0.849,0.158-1.79,0.321-2.906,0.244c-0.057,0.656,0.138,1.641-0.365,1.709c-1.467-0.292-2.957-0.073-4.513,0.117
		c-1.556,0.203-3.184,0.315-4.957,0.008c0.059,0.985,0.425,2.33-0.156,2.547c-1.927-0.233-1.126,2.732-2.677,2.906
		c-0.049,1.489,1.391,4.748,0.316,5.005c-0.764-0.036-1.772,0.557-2.122-0.535c1.604-1.542,0.71-2.223,0.653-5.144
		c-0.917,0.512-1.859,1.31-2.713,1.776c-0.851,0.489-1.614,0.663-2.209-0.135c0.154-1.53,1.151-2.696-0.29-4.186
		c-1.342,1.395-3.865,1.877-5.667,1.094c-0.422,2.266,1.399,3.802-0.408,5.169c-0.189-1.067-0.586-1.424-0.999-1.601
		c-0.411-0.164-0.836-0.148-1.088-0.495c-0.412-0.56,0.601-2.209-0.9-1.496c-2.119-0.82,0.375,2.821-0.912,2.793
		c-2.236,0.917-4.298-1.508-6.208-1.052c-0.71,0.155-1.197,0.887-1.771,1.548c-0.574,0.669-1.225,1.298-2.267,1.342
		c-0.11,2.015,2.202,2.62,0.993,3.184c-2.094-0.175-1.371-3.082-2.242-5.419c-0.96,0.238-0.872,0.925-0.004,1.738
		c-0.691,0.753-0.049,2.642-0.465,3.614c-1.044,0.055-0.621,1.361-0.944,2.025c-1.148-0.889-1.962-0.806-2.851-0.625
		c-0.891,0.182-1.853,0.472-3.324,0.073c-0.822,0.645,0.743,3.158-1.059,3.015c-1.38,1.769-1.757-1.819-3.018-0.691
		c-1.029,2.017-2.763,1.622-4.504,1.153c-1.733-0.473-3.468-1.021-4.306,0.606c1.11,0.993,2.951,1.642,2.661,3.411
		c-0.471-0.61-1.029-0.995-1.622-1.196c-0.586-0.186-1.204-0.182-1.802-0.036c-1.194,0.293-2.299,1.158-2.877,2.231
		c-0.795-1.367-0.276-1.9-0.984-3.219c-1.568-1.05-5.64,0.242-3.796,1.76c0.522-0.533,0.372-1.486,1.528-1.631
		c0.594,1.461,1.351,1.406,1.948,2.77c-0.47,0.219-0.255,0.866-0.562,1.184c-0.623,0.289-1.173-0.181-1.728-0.632
		c-0.556-0.452-1.117-0.884-1.74-0.484c0.136,1.762,1.161,2.152,2.384,2.263c1.233,0.127,2.662-0.049,3.584,0.454
		c-1.711,1.099-3.25-0.185-4.958,1.459c-0.836-3.031-4.211-2.441-3.918-0.795c0.46-0.239,0.918-0.476,1.378-0.715
		c-0.322,2.035,2.441,2.748,1.067,4.142c-0.563-1.061-1.731-0.59-2.606-0.524c-1.35,0.101-1.627,0.347-1.714,0.71
		c-0.084,0.368,0.007,0.835-0.574,1.452c-0.836-1.31-1.684-2.246-2.564-2.373c0.326,1.497,0.639,2.971-0.948,3.441
		c-1.291-2.139-2.615-2.537-3.959-2.521c2.053,2.634,4.105,3.24,6.116,5.124c-0.44,0.246-0.168,0.878-0.438,1.213
		c-2.011-0.822-4.086-4.249-6.13-1.229c-0.541-1.071-0.036-1.628-0.462-2.644c-0.991,0.948-2.464,1.136-3.522,1.561
		c-1.05,0.432-1.654,1.134-0.789,3.164c1.403-0.645,1.353-3.653,3.481-1.252c-0.606,0.831-3.225,0.729-1.221,2.769
		c0.775,1.136,1.441-0.373,2.199,0.566c0.405,0.988,0.402,1.771-0.336,2.201c-1.946,0.467-1.657-2.399-3.183-2.903
		c-0.791,0.376-1.568,1.07-2.352,1.585c-0.783,0.517-1.543,0.899-2.375,0.575c0.517,1.541,2.866,1.387,1.951,2.705
		c-2.326-1.782-1.162,0.66-2.459,1.756c-1.73-1.376,0.017-3.985-1.996-2.672c-1.778,1.547,1.683,3.414,1.772,4.877
		c1.003-0.151,1.948-0.863,3.026-0.108c0.166,1.336-1.559,2.565-2.818,2.015c-0.599-3.579-3.505-2.457-5.309-4.379
		c0.61-0.386,1.478-1.302,0.318-1.268c-0.788,0.31-0.626,0.994-0.524,1.654c0.099,0.658,0.136,1.287-0.892,1.529
		c-2.318-3.347-3.866-0.075-5.765,0.299c0.238,0.619,0.302,1.329,0.225,2.038c-0.039,0.355-0.113,0.71-0.22,1.053
		c-0.099,0.352-0.23,0.695-0.389,1.016c-0.638,1.283-1.733,2.223-3.119,2.124c-1.949-1.785,1.373-2.017,0.292-3.565
		c-1.599,0.901-1.988,2.167-2.586,3.355c1.344,0.763,2.948,2.943,4.15,3.017c-0.731-0.812,0.353-1.713,1.145-0.996
		c1.363,2.254,0.761,2.41-0.364,2.07c-1.123-0.342-2.771-1.179-3.443-0.965c-1.281,0.417,0.32,1.972-1.322,2.315
		c-0.641-0.832-0.592-1.778-1.522-0.848c1.499,2.087,2.482,1.831,3.83,3.258c-0.527,0.446-0.521,1.041-0.504,1.633
		c-0.983,0.207-2.357-1.235-3.426-1.34c0.697,1.656,0.793,3.139,0.189,4.439c-2.018-0.359-0.254,0.529-0.478,1.613
		c-2.057-0.263-4.494,2.025-4.735,3.753c0.04-0.282,1.007,0.104,0.62,0.558c-2.499-0.807-2.889,1.007-3.651,2.764
		c-0.791-0.71-0.457-1.237-1.567-2.005c-1.364,0.946-0.028,2.319-1.682,3.215c-1.142-1.091-1.797-0.736-2.91-1.733
		c-1.369,0.98,1.23,2.493-0.699,3.382c-1.024,1.029-3.517-1.951-4.23-0.034c1.246,1.788,2.229,1.385,2.329,2.438
		c-0.573,0.724-0.027,3.676-2.202,2.819c-1.927-1.065-2.709-2.44-3.327-3.645c-0.62-1.203-1.079-2.234-2.408-2.559
		c-0.735,1.506-1.842,2-3.092,2.158c-1.255,0.153-2.604,0-3.867,0.147c-0.785,1.746-2.04,2.321-3.218,3.122
		c0.468,0.461,1.356,0.925,1.074,1.375c-1.103,0.34-1.498,1.173-1.709,2.123c-0.191,0.965-0.207,2.04-0.611,2.868
		c-0.575,1.157-2.293,1.631-2.756,2.799c-0.216,0.545-0.165,1.2-0.121,1.842c0.043,0.642,0.074,1.269-0.153,1.786
		c-0.731,1.596-2.566,2.59-3.424,4.336c-0.397,0.81-0.718,1.67-0.999,2.543c-0.288,0.87-0.474,1.786-0.695,2.66
		c-0.425,1.758-0.85,3.421-1.601,4.728c-0.354,0.62-1.122,0.294-1.481,1.119c-0.184,0.4-0.194,0.837-0.151,1.271
		c0.039,0.433,0.122,0.857,0.131,1.237c0.017,0.761-0.26,1.341-1.782,1.475c0.912,1.55,0.561,2.804-0.159,4.03
		c-0.355,0.614-0.821,1.213-1.229,1.846c-0.403,0.635-0.782,1.289-1.023,1.986c-0.466,1.358-1.028,2.845-1.625,4.4
		c-0.294,0.779-0.618,1.568-0.905,2.38c-0.276,0.816-0.555,1.64-0.833,2.463c-0.392,1.177-0.408,2.554-0.428,3.975
		c-0.02,1.423-0.061,2.885-0.404,4.299c-0.48,1.844-1.649,3.62-2.312,5.201c-0.331,0.789-0.535,1.526-0.46,2.185
		c0.094,0.663,0.469,1.247,1.261,1.725c-0.776,1.825-2.052,4.104-2.828,6.4c-0.407,1.144-0.615,2.298-0.585,3.384
		c0.028,1.085,0.302,2.102,0.943,2.978c-1.779,1.368-2.228,3.134-2.373,5.122c-0.113,1.995,0.007,4.201-0.8,6.57
		c0.735,0.475,1.239,1.05,1.547,1.687c0.154,0.319,0.259,0.653,0.32,0.999c0.075,0.346,0.105,0.703,0.097,1.068
		c-0.034,1.458-0.695,3.036-1.708,4.451c-0.41,0.846,1.329,1.457,1.523,2.755c-0.004-0.085-0.913,0.952-0.902,1.604
		c0.047,1.322,1.285,3.985-1.687,3.263c-0.965-1.108-0.588-2.266-0.256-3.376c0.375-1.114,0.705-2.182-0.401-3.206
		c-0.675,1.094-1.122,2.215-1.393,3.375c-0.24,1.16-0.327,2.36-0.35,3.619c-0.023,1.259,0.019,2.578,0.036,3.981
		c0.009,0.702,0.011,1.425-0.003,2.174c0.009,0.749,0.011,1.523-0.018,2.327c0.113,0.871,2.141,0.317,1.74,1.563
		c-2.998,0.96-0.633,2.731-0.626,3.926c-0.001,0.767-0.001,1.558-0.002,2.364c0.017,0.807,0.033,1.628,0.05,2.454
		c0.032,1.653,0.071,3.327,0.165,4.928c0.048,0.8,0.106,1.583,0.19,2.335c0.109,0.748,0.236,1.466,0.388,2.142
		c0.302,1.351,0.7,2.532,1.234,3.444c0.502,0.862,0.114,2.283,0.44,2.75c0.299,0.422,1.266,0.637,2.068,0.98
		c0.807,0.343,1.426,0.815,1.002,1.787c0.656,0.64,3.159-0.585,3.482,0.369c1.47,1.528,0.146,2.899,1.588,3.51
		c-0.041-0.666-0.02-1.305,1.399-1.433c0.088,0.915-0.141,1.719-0.469,2.493c-0.329,0.774-0.759,1.519-1.029,2.298
		c2.889,1.759,2.657,3.536,1.653,6.281c0.988-0.23,1.932-0.404,1.874,0.564c0.157,0.836-1.943,1.032-1.148,2.043
		c3.204-1.319,1.326,1.567,1.439,1.807c0.046,0.093,1.948,0.846,2.068,1.014c0.591,0.824-0.785,2.094,0.65,2.037
		c1.621-0.034,2.156-2.421,3.148-1.1c0.162,0.5,0.83,0.37,1.111,0.716c-1.442,1.838-4.021-0.267-4.55,2.188
		c-0.155-1.243-0.808-1.853-2.231-1.503c0.995,0.724-0.027,3.004,1.184,3.603c0.54,0.266,1.334-0.71,1.747-0.07
		c0.532,0.815-0.118,2.015-0.03,2.31c0.273,0.926,1.509,1.391,1.721,2.214c0.288,1.12,0.22,2.468,0.351,3.758
		c0.161,1.273,0.5,2.497,1.519,3.357c-0.26-0.496,0.124-1.728,0.326-1.633c1.588,0.774,0.615,2.706,1.17,4.79
		c0.14,0.543,0.968,0.243,1.184,0.631c0.327,0.58-0.788,1.239-0.07,1.827c0.688,0.571,2.901,0.28,3.182,0.814
		c0,0-0.23,0.385-0.443,0.849c-0.213,0.464-0.408,1.012-0.335,1.342c0.188,0.885,0.913,1.561,1.195,2.407
		c0.052,0.156,0.351,0.759,0.639,1.322c0.142,0.282,0.284,0.553,0.4,0.747c0.112,0.196,0.185,0.323,0.185,0.323
		c0.161,0.755-2.969,2.878,0.054,1.817c-0.15-0.258,0.29-0.864,0.726-0.409c-0.515,1.133,0.261,1.692,0.977,2.26
		c0.718,0.57,1.376,1.151,0.66,2.389c-0.487-0.698-0.82-1.686-2.234-0.568c1.484,0.736,2.112,3.149,4.289,2.468
		c0.177,2.98,1.876,5.573,4.784,4.549c-1.561,0.921-1.97,1.841-1.213,2.751c1.503,0.661,2.674,2.155,3.755,3.862
		c0.534,0.859,1.082,1.741,1.617,2.603c0.275,0.425,0.546,0.848,0.843,1.233c0.3,0.383,0.609,0.743,0.93,1.07
		c-1.233,0.857-1.223,1.619-0.341,2.31c3.724-0.497,1.177-3.909,3.308-3.922c1.206,1.532-1.315,3.434-1.338,5.118
		c1.036,1.087,2.163,1.912,2.985,2.844c0.842,0.915,1.351,1.963,1.12,3.577c2.091-2.308,2.785,0.076,4.239-0.151
		c-0.3,1.017,0.108,2.216,0.797,3.182c0.714,0.941,1.697,1.655,2.484,1.761c-0.295-0.039,0.156-1.047,0.608-0.575
		c0.27,0.647,0.059,1.984,0.154,3.082c0.093,1.096,0.493,1.952,1.938,1.594c-0.263-0.565,0.093-1.898,0.815-1.563
		c0.039,2.308,0.922,4.223,2.393,4.95c1.476,0.725,3.542,0.22,6.089-2.37l-1.862-1.818c-0.925,0.84-1.986,2.357-2.678,2.04
		c1.756-1.352,1.303-2.158,0.556-2.89c-0.372-0.368-0.827-0.711-1.102-1.107c-0.271-0.401-0.379-0.837-0.084-1.361
		c0.744-0.907,1.105-0.272,1.482,0.351c0.388,0.612,0.778,1.225,1.504,0.313c-0.769-0.46,1.365-1.353,1.528-0.838
		c0.19,0.593-1.733,2.004-1.738,1.796c0.046,1.694,2.582-0.764,2.787,1.569c1.229-1.086,0.637-1.692,0.984-2.54
		c2.939,1.02-1.085,3.943-0.255,5.571c1.628-0.086,0.902-1.954,2.052-1.486c-0.025,0.901,0.025,1.764,0.366,2.399
		c0.34,0.636,0.974,1.042,2.13,0.99c-0.406-0.489-0.744-1.003,0.331-1.942c0.585,0.858,1.499-0.176,2.235-0.241
		c2.08,1.155,0.972,3.378,2.751,4.646c1.06-0.986,0.767-2.13,1.58-1.939c1.362,1.652,0.151,4.26,1.888,5.822
		c0.845-0.426,1.608-0.141,2.367,0.178c0.758,0.32,1.51,0.68,2.34,0.364c-0.349-0.322-0.602-0.693-0.713-1.124
		c-0.114-0.428-0.091-0.907,0.116-1.456c1.606-0.561,2.991,1.518,4.497,2.344c1.004-0.049,2.125-1.717,3.041-0.868
		c-0.801,1.361-1.498,1.176-2.306,2.446c0.817,0.553,1.66,0.713,2.508,0.726c0.424,0.006,0.848-0.022,1.273-0.059
		c0.431-0.046,0.86-0.097,1.288-0.121c0.52,1.875,3.275,2.536,5.842,1.874c0.319,0.352,0.644,0.71,0.971,1.07
		c0.328,0.361,0.673,0.7,1.014,1.044c0.685,0.682,1.384,1.332,2.094,1.867c1.42,1.069,2.887,1.673,4.351,1.13
		c-1.188,1.872-0.121,2.404,0.561,3.16c2.441-1.383,2.807,0.993,5.523,0.11c-3.185,2.026,2.422,1.05,0.302,3.932
		c-1.373,0.861-2.136,0.214-2.728-0.736c-0.594-0.952-1.016-2.208-1.775-2.598c-1.142,1.37-1.749,0.804-2.346,0.22
		c-0.3-0.292-0.598-0.589-0.968-0.654c-0.365-0.075-0.801,0.079-1.389,0.705c1.023,0.098,1.099,0.712,1.112,1.378
		c0.013,0.664-0.031,1.366,0.774,1.568c0.766-1.656,1.597-2.15,2.497-1.499c-0.664,1.377-3.606,1.27-2.818,3.221
		c0.959-1.49,2.232,0.987,1.067,2.456c-1.381-0.181-3.617,3.915-3.497,5.694c1.171,0.281,2.162,0.73,3.067,1.137
		c0.905,0.405,1.717,0.783,2.547,0.851c0.267,0.02,0.633-1.383,1.199-1.282c0.432,0.073,1.444,2.666,2.273,0.154
		c-0.142-1.044-1.061-1.053-1.88-1.217c-0.409-0.081-0.793-0.2-1.035-0.503c-0.241-0.305-0.335-0.808-0.177-1.627
		c0.635-1.018,2.486-4.148,4.369-4.348c-0.721-0.57-0.427-1.796,0.518-3.451c0.453,0.219,0.826-0.355,1.257-0.322
		c1.836,0.137,1.211,1.951,2.81,2.259C133.968,366.697,134.018,371.781,135.482,368.444z M400.465,151.602
		c0.362,0.956-0.678,1.436-0.222,2.417c-1.817,0.688-3.111,0.764-4.159,0.575C395.317,152.882,399.319,152.714,400.465,151.602z
		 M397.6,136.938c-0.34,1.215-1.662,2.154-0.443,3.801c-1.692,0.705-2.642,0.45-2.88-0.762c-0.535,0.51-1.094,1.016-2.179,1.382
		c-0.836-2.058,1.506-2.124,3.551-2.485C396.319,138.237,396.003,137.354,397.6,136.938z M390.151,131.379
		c-0.83,1.634-0.019,2.222,1.139,2.659c1.157,0.434,2.659,0.714,3.176,1.659c-1.972,1.545-4.17,0.099-4.866-1.081
		C389.105,133.758,387.762,131.845,390.151,131.379z M386.178,128.36c1.355,0.125,2.7,0.96,2.775,2.319
		c-2.813,1.206-3.698-0.503-5.668-0.511C383.453,128.804,384.822,128.233,386.178,128.36z M83.966,75.842
		c1.134,1.434,0.217,2.173-0.802,2.891C80.981,76.808,82.533,75.329,83.966,75.842z M152.089,73.561
		c0.381-0.155,0.73-0.197,1.053-0.198c-0.341,0.126-0.681,0.254-1.021,0.382C152.111,73.685,152.1,73.627,152.089,73.561z
		 M271.405,336.941c-0.016,0-0.033-0.001-0.049-0.001c0.013-0.006,0.027-0.013,0.04-0.019
		C271.399,336.927,271.402,336.934,271.405,336.941z M263.632,341.773c-0.653-0.357-1.037-0.667-1.242-0.957
		c0.254-0.1,0.508-0.203,0.761-0.304C263.217,340.823,263.366,341.23,263.632,341.773z M249.032,346.183
		c-0.524,0.134-0.946-0.223-1.4-0.418c0.481-0.134,0.962-0.27,1.441-0.409C249.089,345.555,249.078,345.811,249.032,346.183z
		 M223.566,358.059c-0.98,0.001-1.457-0.55,0.649-1.162c0.735-0.213,0.818-0.903,1.607-0.978
		C226.012,357.506,224.546,358.058,223.566,358.059z M214.295,351.181c-0.37,0.692-0.477,0.87-0.612,0.686
		c-0.077-0.105-0.169-0.33-0.326-0.642C213.67,351.211,213.983,351.197,214.295,351.181z M245.903,346.236
		c0.175-0.047,0.351-0.094,0.526-0.141c0.222,2.478,1.451,0.21,1.644,2.882c-0.975,0.345-1.934,0.591-2.645-0.234
		C245.339,347.945,246.532,346.523,245.903,346.236z M171.769,357.372c-1.132-0.372-1.167,1.132-1.684-0.438
		C170.502,353.726,172.801,354.324,171.769,357.372z M171.605,348.713c0.988-1.335,2.93,1.111,3.824,1.863
		C173.805,352.72,172.353,349.572,171.605,348.713z M180.427,353.356c0.406-2.245,2.251-1.546,2.6-0.304
		C182.687,354.858,181.226,353.035,180.427,353.356z M190.744,351.762c-0.044-0.58-0.008-0.931,0.073-1.155
		c0.305,0.031,0.61,0.06,0.916,0.089C191.608,352.027,190.56,353.507,190.744,351.762z M204.648,357.183l-2.121-0.123
		c-0.731,3.132,1.901,0.273,1.189,3.409c-1.349,0.507-0.854,0.532-2.163-0.131c0.106-0.664,0.464-0.8,0.491-1.634
		c-1.256-1.664-4.455,0.042-4.487-3.663c1.037,0.022,2.02,0.036,2.468,1.03c0.541-0.431-0.154-3.239,1.781-2.394
		c0.02-1.847-1.738-0.458-2.444-0.985c0.079-0.823,0.325-1.237,0.609-1.441c0.517,0.021,1.035,0.039,1.554,0.055
		c0.419,0.378,0.352,1.235,0.724,1.562c0.344,0.297,0.55,0.45,0.703,0.548c0.247-0.021,0.433,0.277,0,0
		c-0.191,0.014-0.404,0.24-0.343,1.146C202.763,356.74,205.152,353.727,204.648,357.183z M211.5,359.846
		c-2.073-0.149-2.144,3.564-4.764,2.452c-0.127-1.94,0.093-3.207,0.454-4.169c0.998,0.011,1.994,0.022,2.992,0.033
		c-0.38-1.238-1.384-1.22-2.138-1.686c0.18-2.122,2.969,0.88,2.065-3.317c1.262-0.209,0.25,0.875,0.442,1.678
		c0.027,0.113,0.864,1.221,0.858,0.841c0.012,0.516-0.8,1.776-0.812,1.659C210.696,358.251,211.734,358.159,211.5,359.846z
		 M214.398,362.596c-0.739-0.041-1.41-0.574-1.144-1.902c1.305-0.576,1.619,0.851,2.648,0.793
		C215.929,362.12,215.136,362.619,214.398,362.596z M215.621,355.657c0.064-2.485-1.216-1.917-1.097-4.488
		c1.223-0.064,2.441-0.142,3.656-0.235c-0.309,1.261-2.012,0.076-2.765,0.557c0.028,0.555,0.056,1.112,0.083,1.664
		c0.151,1.047,0.871,0.81,0.828-0.03C217.055,352.854,216.532,356.359,215.621,355.657z M223.688,361.705
		c-1.219-0.572-2.399-2.416-2.452-4.595c-0.77-0.074-0.82,1.053-1.644,0.899c-0.236,3.763,2.479,0.802,2.125,4.919
		c-1.232-0.816-2.772-0.889-4.459-0.66c-1.462-1.096,1.685-0.574,1.644-1.733c-0.092-1.384-0.185-2.771-0.278-4.16
		c1.185,0.296,1.815-0.35,2.38-1.079c0.283-0.365,0.552-0.751,0.87-1.051c0.317-0.314,0.684-0.549,1.168-0.593
		c0.203,1.374-0.291,1.643-0.689,2.071c-0.396,0.436-0.707,0.985-0.115,3.016c0.574,0.229,2.2,0.511,3.957,0.495
		C226.139,361.717,224.905,362.297,223.688,361.705z M231.091,362.976c-0.747-0.647-1.569-1.107-1.762-3.182
		c0.58-0.055,1.16-0.092,1.736-0.182C231.493,361.314,231.078,361.839,231.091,362.976z M231.077,353.718
		c-0.034-3.457,1.995,0.021,2.771,1.305C233.614,357.209,232.059,353.236,231.077,353.718z M232.172,361.144
		c0.276-2.016,1.437-2.14,2.184-0.297c0.971,0.005-0.277-2.947-0.236-4.176c0.796-0.571,1.285,1.428,0.7,1.583
		c0.241,2.99,2.586-0.329,2.747,2.989C235.776,361.178,233.467,362.583,232.172,361.144z M238.337,349.283
		c1.384-1.355,1.384,2.531,2.79,1.178C242.502,351.617,238.379,352.028,238.337,349.283z M245.58,354.707
		c-1.133-0.29-2.197-0.804-3.566-0.172c-0.953-2.373,0.614-1.618,1.316-1.94c-0.311-1.879-0.801-3.036-1.563-3.102
		c0.614-2.862,2.396,2.814,3.199,4.49c0.702-0.141,1.393-0.322,2.09-0.484C248.646,354.103,246.158,354.681,245.58,354.707z
		 M253.905,350.944c-0.445,0.267,0.087,1.556,0.302,2.517c-0.992,0.456-1.576,1.293-2.06,2.272
		c-0.485,0.975-0.877,2.065-1.505,2.914c-1.217,0.512-1.801-1.511-2.999-1.002c-0.345-3.308,1.343-0.1,2.571-0.613
		c-0.167-2.73-1.54-0.288-1.696-3.021c1.565,0.605,0.686-1.506,1.243-2.011c1.073-1.31,1.035,2.529,2.119,1.21
		c0.507-0.421-0.368-1.417-0.87-1.504c-0.29-2.561,1.369,0.666,1.893,0.391C252.549,350.445,255.593,349.308,253.905,350.944z
		 M255.283,354.017c-0.463-1.762,0.526-2.012,1.592-2.193c0.227,0.943,0.541,1.385,0.924,1.462
		C258.089,355.649,255.942,353.587,255.283,354.017z M258.548,346.097c-0.418,0.275-1.049,0.335-1.582,0.493
		c-0.616,0.445,1.441,2.598-0.44,2.732c-0.782-1.865,0.181-1.94-0.88-4.081c0.533,0.552,0.895,0.254,1.339-0.146
		c0.443-0.405,0.974-0.888,1.84-0.806C259.154,345.301,258.962,345.812,258.548,346.097z M266.242,349.681
		c-0.842,1.627-1.506,3.455-3.008,4.556c-1.806-3.267,0.609-2.596,1.649-3.209c-0.791-1.977-1.946-1.079-3.042-0.724
		c-0.465-1.311-0.929-2.616-1.394-3.926c1.428,2.754,3.632-0.401,4.972,3.589c0.549-0.275,0.423-3.582-0.376-3.394
		c0.553-0.42,2.116-1.19-0.324-4.294c1.263-0.183,1.19-1.557,1.153-2.886c0.101-0.043,0.201-0.087,0.302-0.13
		c0.834,1.803,1.852,1.078,2.682,3.195c-0.661,0.378-1.216-0.614-1.879-0.149c-0.353,1.038,0.012,1.877,0.277,2.711
		c0.26,0.827,0.432,1.682-0.388,2.685c0.591,0.641,1.464,1.297,2.242,1.504c0.777,0.207,1.459-0.038,1.62-1.214
		c-1.294-1.413-0.763,0.944-2.339,0.025c-0.095-1.588,1.85-1.435,2.168-2.653c0.717,0.762,1.413,1.845,2.049,3.675
		C270.409,350.001,268.266,350.534,266.242,349.681z M272.49,345.497c-0.765-1.358-0.049-2.271-0.216-2.602
		c-0.734-1.472-1.816-0.905-2.133-2.734c0.802-0.849,1.53-0.279,2.255,0.556c0.719,0.824,1.43,1.917,2.187,2.111
		c0.068,0.88-0.463,0.761-0.716,0.924c-0.258,0.154-0.244,0.596,0.92,2.628C273.475,347.321,272.869,346.172,272.49,345.497z
		 M273.915,340.38c0.393-0.005,0.225-0.456,0.031-0.927c0.893-0.677,1.75,0.475,2.587,2.493
		C275.613,342.619,274.724,342.425,273.915,340.38z M278.129,334.796c-0.199-0.381-0.333-0.714-0.439-1.025
		c0.307-0.163,0.615-0.326,0.921-0.491C278.795,334.035,278.742,334.618,278.129,334.796z M282.351,342.01
		c0.657-2.436-0.455-3.523-0.827-6.13c1.27,0.323,1.822,1.637,1.873,2.984C283.452,340.211,283.002,341.594,282.351,342.01z
		 M282.431,331.146c0.492-0.284,0.982-0.57,1.47-0.86c-0.022,0.315-0.102,0.592-0.296,0.791
		C283.227,331.395,282.832,331.356,282.431,331.146z M287.298,336.653c-1.025-1.418-0.848-2.054-1.3-3.091
		c0.941-0.982,2.072,0.861,3.217,2.959C288.555,336.156,287.916,336.227,287.298,336.653z M287.891,328.641
		c0.458,1.437-0.904,1.732,1.093,4.172c-1.96,0.903-1.675-1.756-2.847-3.878c0.164-0.101,0.327-0.201,0.491-0.303
		C287.054,328.719,287.5,329.007,287.891,328.641z M317.113,305.309c-0.564-0.734-0.822,0.046-0.604,0.565
		c0.334,0.794,2.556,2.087,1.185,2.321c-0.789-0.615-1.843-1.997-2.613-2.556c0.402-0.417,0.802-0.837,1.199-1.259
		C316.569,304.65,316.843,304.957,317.113,305.309z M336.048,277.887c0.031-0.053,0.062-0.105,0.093-0.158
		C336.118,277.794,336.086,277.846,336.048,277.887z M313.272,98.74l0.913,0.9c-0.767,0.804-1.533,1.607-2.302,2.413
		C310.928,101.463,311.696,100.246,313.272,98.74z M283.304,84.357c1.237-1.437-0.289-3.278,1.777-3.797
		c0.286,0.709,0.202,1.66-0.225,2.815c-0.495,0.103-1.021,0.562-1.565,1.236c-0.211-0.124-0.423-0.245-0.635-0.368
		C282.888,84.076,283.107,84.073,283.304,84.357z M281.664,83.671c-0.468-0.266-0.937-0.531-1.408-0.793
		C281.252,82.322,282.09,82.144,281.664,83.671z M277.362,79.815c0.056,0.465,0.036,0.987,0.018,1.507
		c-0.35-0.184-0.701-0.366-1.052-0.548C276.678,80.271,277.026,79.836,277.362,79.815z M275.197,77.698
		c-0.19,0.721-0.432,1.478-0.614,2.189c-0.334-0.167-0.669-0.334-1.005-0.499C274.115,78.79,274.658,77.985,275.197,77.698z
		 M270.783,75.367c0.233,1.111-2.658,0.796-3.675,0.085C266.843,74.065,269.777,75.642,270.783,75.367z M265.798,71.125
		c-1.777,0.04-0.606-2.468-1.398-3.307C265.815,66.16,266.519,69.337,265.798,71.125z M249.711,63.21
		c0.604,0.428,0.933-0.59,1.461-0.411c0.466,0.163,0.921,0.73,1.369,1.314c0.444,0.6,0.888,1.2,1.366,1.384
		c0.979,0.373,1.644-0.655,2.263-0.063c0.713,0.687,1.821,2.073,1.281,4.025c0.664,0.365,1.178-0.665,1.844-0.175
		c1.035,1.691-1.177-0.372-1.344,1.247c-1.01-0.739-2.183-1.696-3.484-2.234c-0.649-0.269-1.329-0.432-2.029-0.408
		c-0.35,0.012-0.704,0.071-1.062,0.187c-0.358,0.117-0.726,0.313-1.093,0.563c-0.107-0.788-0.937-0.813-0.706-1.976
		c-1.132,1.439-2.524,1.234-4.03,0.485c-0.221-0.882,0.676-3.01-0.555-2.792C245.894,60.938,248.734,62.529,249.711,63.21z
		 M197.884,60.618c0.577-0.114,1.157-0.293,1.728-0.521c0.571-0.228,1.133-0.495,1.675-0.728c1.082-0.465,2.081-0.792,2.864-0.383
		c-0.459,2.483-1.608,3.02-3.707,3.294c-0.034,0.004-0.016,0.981-0.389,0.827c-0.1-0.043-0.031-0.956-0.439-0.837
		c-0.393,0.111-0.618,0.579-0.881,0.991c-0.263,0.419-0.562,0.795-1.112,0.705c-0.952-0.161-2.02-2.096-3.031-2.393
		C194.803,57.985,196.708,60.825,197.884,60.618z M193.583,59.109c0.045,0.813-0.471,0.666-0.785,0.864
		c0.073,2.235,0.961,2.49,1.158,4.397c-0.359,0.029-0.719,0.057-1.078,0.088C191.494,63.123,191.704,59.416,193.583,59.109z
		 M174.795,66.009c1.191-0.741,2.526-1.068,4.414-0.566c0.441-0.426,0.665-1.166,0.415-2.576c1.111-0.011,2.297,0.238,3.512,0.453
		c1.221,0.247,2.477,0.504,3.739,0.41c0.733-0.048,1.829-1.217,2.795-1.631c0.481-0.207,0.926-0.226,1.262,0.181
		c0.302,0.376,0.513,1.091,0.591,2.302c-6.487,0.622-12.852,1.646-19.066,3.049C173.279,67.064,174.013,66.474,174.795,66.009z
		 M170.898,67.99c-0.563,0.133-1.126,0.269-1.686,0.409c0.335-0.693,0.785-1.246,0.871-2.259
		C171.456,65.746,170.606,66.568,170.898,67.99z M166.156,27.864c-0.717,1.248-2.561,2.909-3.887,1.597
		C162.628,26.554,164.212,28.551,166.156,27.864z M155.605,72.474c-0.025,0.009-0.05,0.017-0.075,0.026
		c0.019-0.038,0.038-0.068,0.056-0.109C155.594,72.42,155.598,72.446,155.605,72.474z M150.025,32.143
		c0.761-0.314,1.721-0.384,1.952-1.168c1.37,1.301,0.618,2.015,1.125,4.016c-1.804-0.188-2.572-2.923-3.912-0.663
		C148.678,32.903,149.26,32.443,150.025,32.143z M137.96,79.139c0.321,0.087,0.504,0.273,0.624,0.515
		c-0.194,0.096-0.387,0.195-0.58,0.292C137.956,79.652,137.934,79.377,137.96,79.139z M124.733,44.864
		c0.84,1.949-0.884,2.566-1.966,1.813C121.894,44.745,123.663,44.101,124.733,44.864z M90.564,69.592
		c-0.307,1.427,1.285,4.923-1.216,4.108C88.528,71.892,89.02,70.528,90.564,69.592z M85.403,70.45
		c-1.048,1.031-2.126,1.811-3.62-0.328C82.842,69.074,83.942,68.284,85.403,70.45z M78.071,79.85
		c0.804,0.288,1.688,1.023,2.648,2.116c-0.665,1.038-1.872-0.417-2.434,1.045C77.749,81.822,77.018,80.582,78.071,79.85z
		 M9.235,218.603c0.085-0.392,0.272-0.824,0.38-1.271c0.107-0.447,0.105-0.91-0.236-1.369c0.741,0.316,1.493,0.611,1.67-0.051
		c1.141,0.645,1.297,1.155,1.228,1.792c-0.066,0.636-0.391,1.4-0.26,2.526C9.39,220.011,9.074,219.387,9.235,218.603z
		 M13.678,220.138c1.054,0.076,0.891,1.018,0.052,1.078c-1.591,0.317-0.549,2.139-3.243,1.849
		C10.46,221.449,12.95,221.291,13.678,220.138z M10.636,225.807c1.226-0.111,1.964,0.459,2.257,1.158
		c0.31,0.698,0.2,1.53-0.34,1.962C9.509,228.51,12.099,227.171,10.636,225.807z M14.986,241.794
		c-1.992,0.052-3.739-1.529-2.148-2.97C15.647,239.183,15.091,239.689,14.986,241.794z M45.149,266.404
		c1.089,0.192,1.463,1.243,1.769,2.386c-1.618,0.044-1.422-2.171-4.559-0.302C42.642,267.679,43.714,267.01,45.149,266.404z
		 M39.801,233.794c-0.494-0.386-0.59-0.981-0.156-2.053c1.691,0.389,2.103,1.778,2.912,2.842
		C41.224,234.357,40.299,234.18,39.801,233.794z M43.251,296.999c-2.294,0.136-0.199-2.463-2.441-2.819
		c1.072-0.57,1.82-0.141,2.243,0.558C43.488,295.429,43.577,296.413,43.251,296.999z M42.896,271.286
		c-0.866-0.616-0.926-1.513,1.358-2.486c1.335,0.229-0.837,3.751,2.223,1.191c2.526-0.515,0.214,1.648-0.104,2.114
		C45.427,272.223,43.762,271.903,42.896,271.286z M51.778,317.083c-0.378-1.036-1.081-1.261-2.261-0.333
		c0.085-1.216,0.215-2.419,2.5-3.718c0.474,0.757,1.271,0.755,2.244,0.32C54.16,314.54,54.038,315.746,51.778,317.083z
		 M53.596,319.694c-2.281-1.216,1.383-2.812,3.107-4.288C55.764,316.818,55.103,318.222,53.596,319.694z M60.879,306.786
		c3.21-1.647,3.922,2.118,6.019,2.841c-2.799,2.333-3.23-1.201-4.506-2.111C61.624,306.97,60.37,308.183,60.879,306.786z
		 M62.77,329.935c-1.998,1.116,0.139-2.073,1.84-2.991c0.912,0.005,1.72,0.336,2.29,1.426
		C65.907,328.543,62.686,328.397,62.77,329.935z M66.575,334.314c2.184-2.479,2.665,1.438,4.064,1.928
		C68.503,338.772,67.961,334.812,66.575,334.314z M71.234,335.66c-0.724-1.801-1.547-2.48-2.523-3.02
		c-0.488-0.27-1.013-0.503-1.578-0.821c-0.552-0.331-1.136-0.755-1.76-1.384c1.329-1.41,1.667,0.524,2.865-0.491
		c0.28,1.009,1.664,1.768,2.631,2.622C71.843,333.413,72.435,334.339,71.234,335.66z M72.257,326.949
		c1.021-0.94,2.044-1.881,3.069-2.824c1.046,0.637-0.392,1.821,1.054,2.374C74.669,327.845,73.579,327.015,72.257,326.949z
		 M94.942,347.374c-0.633,1.17,0.798,1.557-1.246,3.279c-2.964-0.458,0.625-3.353-0.312-4.537
		C93.948,344.831,96.04,346.531,94.942,347.374z M120.027,378.544l-1.899-1.009c0.757-1.488,1.512-2.972,2.269-4.461
		C121.904,373.908,121.111,376.132,120.027,378.544z M123.537,373.793c-2.645-0.49-1.183-3.454-0.501-5.919
		c0.449,0.239,0.897,0.477,1.345,0.716C121.869,371.687,126.025,370.686,123.537,373.793z"/>
	<path d="M341.717,284.35c-0.077-1.489,0.229-1.961,1.639-2.551c-1.108-0.702,0.033-1.259-1.691-1.99
		C341.536,281.997,338.733,281.755,341.717,284.35z"/>
	<path d="M366.797,260.936c0.29-0.678,0.574-1.527,0.807-2.451c0.234-0.924,0.426-1.92,0.454-2.916
		c0.092-1.983-0.193-3.87-1.157-4.907c-0.352,0.616-0.248,1.707-1.373,1.511c-0.043-1.213-0.925-2.246-1.538-3.311
		c-0.712,0.888-1.255,4.783-3.808,3.529c0.213,0.492,0.627,0.949,0.99,1.419c0.363,0.469,0.68,0.953,0.658,1.48
		c-0.795-0.27-1.068,0.024-1.743-0.116c-0.491-0.446-0.636-0.936-0.803-1.435c-0.171-0.499-0.339-0.998-0.828-1.438
		c0.185,1.174-2.088,2.651-0.425,3.576c0.359-0.381,1.684-0.547,1.738,0.131c0.54,1.989-3.551-1.145-3.001,0.821
		c-0.705,0.444-0.3,1.987-0.336,3.162c-1.051-0.208-1.785-0.079-2.054,0.615c0.99,0.844,2.194,1.761,2.381,2.849
		c-0.019-0.099-1.538-0.532-1.542-0.626c0.028,0.324,0.473,1.443,0.531,2.527c0.059,1.082-0.269,2.128-1.753,2.231
		c-1.093-0.966,0.295-2.101-1.398-3c1.72,0.686,2.874-1.967,0.479-3.095c-0.305,1.663-1.354,2.44-2.952,2.506
		c2.07,0.742,2.265,1.63,1.582,2.574c-1.016-0.45-2.031-0.9-3.05-1.352c-0.183,0.766-0.557,1.359-0.976,1.86
		c-0.427,0.498-0.935,0.888-1.491,1.207c2.22,1.695,3.07,3.457,2.932,5.263c-0.75,0.357-1.365,0.748-1.875,1.191
		c-0.51,0.443-0.927,0.932-1.336,1.453c-0.82,1.038-1.611,2.207-3.065,3.313c1.95,1.356,1.183,2.581,1.473,3.875
		c1.131,0.884,2.192,0.545,2.144,1.283c-1.876,0.949-1.407-0.992-3.575-2.139c0.706,2.145-0.207,2.154-1.168,3.357
		c-0.199,0.251-0.231,0.719-0.257,1.178c-0.033,0.454-0.075,0.888-0.254,1.085c-0.087,0.093-1.859-0.045-2.152,0.145
		c0,0,0.58,0.867,0.187,1.167c-0.825,0.643-1.452,2.12-2.272,3.182c-0.284,0.391-1.41,0.551-2.056,0.946
		c-0.654,0.392-0.861,1.005,0.593,2.291c2.033,1.006,2.284-0.76,3.922-0.95c1.151-0.158,2.092,0.615,3.089-0.014
		c1.381-0.861,2.138-2.44,2.993-3.811c0.213-0.344,0.436-0.673,0.672-0.98c0.225-0.314,0.469-0.603,0.744-0.852
		c0.551-0.498,1.227-0.84,2.13-0.92c-1.002-1.783-1.262-3.491-1.632-5.182c3.304,1.308,0.265,2.347,1.654,3.596
		c0.639-0.242,1.319-0.414,2.172-0.299c-0.262-0.928-0.197-1.679,0.069-2.332c0.241-0.668,0.687-1.237,1.215-1.778
		c1.055-1.081,2.444-2.061,3.146-3.43c0.08-0.168-0.585-0.98-0.071-1.585c1.274-1.549,3.699-2.306,4.765-3.853
		c0.304-0.439,0.52-0.903,0.688-1.382c0.082-0.24,0.158-0.48,0.217-0.727c0.054-0.249,0.101-0.5,0.146-0.751
		c0.18-1.005,0.324-2.016,0.759-2.96c0.543-1.183,2.963-1.737,3.06-2.793c0.067-0.645-1.219-1.361-1.026-1.904
		c0.062-0.175,1.886,0.773,1.902-0.279c0.005-0.634-1.054-0.873-1.227-1.457C366.109,261.632,366.484,261.67,366.797,260.936z
		 M348.771,268.784c-0.302-1.359,0.259-2.291,2.567-1.421c-2.435,1.862,2.055,3.478,0.073,5.361
		C350.23,271.949,349.075,270.14,348.771,268.784z M351.155,275.073c-1.218,0.784,0.479,1.542-0.355,2.322
		c-1.691-1.094-2.006-0.147-3.908-1.567C348.199,275.437,348.945,274.193,351.155,275.073z M344.291,280.338
		c0.765-1.149-0.657-3.316,2.764-1.446c-0.517,0.161-1.032,0.323-1.893-0.054c0.446,1.902,2.754,1.472,3.918,3.221
		C347.976,282.284,345.768,280.726,344.291,280.338z M348.798,280.876c-0.859-0.609-0.295-1.174,0.445-0.774
		c0.297-1.039-2.131-2.108-1.095-3.115c2.428,1.052,0.985,2.074,3.961,3.146C351.888,281.778,348.853,279.006,348.798,280.876z
		 M354.405,274.195c-2.192-0.134,1.814-1.537,1.639-3.223C358.003,270.707,355.31,274.037,354.405,274.195z M363.827,259.366
		c-1.219-0.891-1.219-1.952-0.583-3.12c2.508,0.78,2.285,2.031,2.32,3.249C364.684,259.102,364.13,259.093,363.827,259.366z"/>
	<path d="M341.963,274.249c-1.004,1.176-1.627,2.286-0.441,2.553c0.527-1.138,1.266-1.963,2.086-2.686
		c0.41-0.361,0.84-0.696,1.273-1.03l0.65-0.503c0.208-0.173,0.41-0.352,0.611-0.535c-2.041-0.869,1.788-1.779-1.467-2.619
		c-0.484,0.643,0.362,1.212-0.024,1.868C344.382,271.826,342.957,273.07,341.963,274.249z"/>
	<path d="M306.969,322.889c1.264-0.173,2.347-0.268,1.499-2.223C307.198,320.846,306.148,320.913,306.969,322.889z"/>
	<path d="M181.305,392.157c-0.614-0.2-1.257-0.38-1.987-0.471c-0.365-0.045-0.751-0.068-1.167-0.059
		c-0.416,0.014-0.86,0.045-1.34,0.102c-0.003,2.282-1.33,1.383-1.963,2.163c1.406-1.774,0.337-5.369-0.969-3.593
		c1.323,1.541-2.022,1.11-2.15,2.969c0.706,0.014,0.969,3.65,1.935,1.235c-0.291-0.055-0.473-0.783,0.143-0.819
		c1.666,2.029,3.572-0.358,4.439,2.52c0.983-1.959,0.129-2.625,1.022-3.217c0.471,0.602,2.248-0.356,2.595,0.397
		c0.075,0.163-0.323,1.593-0.223,1.653c1.296,0.823,3.011,0.257,4.625,1.534c1.123-3.035-2.325-0.508-1.183-3.546
		C183.649,393.037,182.533,392.557,181.305,392.157z"/>
	<path d="M323.827,302.22c-0.602-0.048-1.385-0.197-1.739,0.338c1.499,1.957,2.489,1.528,2.91,0.662
		c0.215-0.427,0.264-0.978,0.164-1.389c-0.097-0.409-0.34-0.675-0.722-0.556C324.85,302.216,324.43,302.27,323.827,302.22z"/>
	<path d="M310.195,320.252c0.384-0.178,0.688-0.494,0.9-0.861c0.205-0.375,0.327-0.789,0.372-1.138
		c-0.469,0.224-1.214-0.687-1.965-1.605c-0.787,0.353,0.098,1.39,0.107,2.066c-0.609,1.381-1.885-0.192-2.742,0.029
		C308.32,320.377,309.423,320.606,310.195,320.252z"/>
	<path d="M326.471,296.428c0.337-0.37,0.815-0.602,1.33-0.785c0.508-0.187,1.034-0.338,1.498-0.513
		c0.922-0.353,1.557-0.836,1.004-2.072c-0.41,0.89-1.142,1.115-2.368,0.297c0.065,0.709-0.266,1.114-0.703,1.463
		c-0.446,0.342-1.02,0.611-1.411,1.088c-0.835,1.001-1.28,2.81-1.544,3.033c0.125-0.106-1.12-0.26-2.049-0.155
		c-0.465,0.053-0.853,0.173-0.958,0.405c-0.11,0.228,0.058,0.566,0.725,1.069c0.163-0.954,2.18-0.347,2.918-0.783
		C325.915,298.87,325.613,297.362,326.471,296.428z"/>
	<path d="M314.792,314.3c0.171-0.257,0.481-0.487,0.809-0.725c0.315-0.252,0.646-0.513,0.871-0.815
		c0.451-0.605,0.472-1.37-0.914-2.552c0.143,0.633-0.102,1.078-0.498,1.42c-0.395,0.343-0.94,0.583-1.428,0.78
		c-0.961,0.408-1.593,0.766-0.047,1.839c-0.312,0.987-1.381,1.067-2.122,1.241c-0.742,0.175-1.162,0.448-0.222,1.864
		C313.221,318.032,313.814,315.785,314.792,314.3z"/>
	<path d="M140.93,370.785c-2.057-2.309-3.29,0.879-5.074,0.588c0.834-2.201,2.601-1.17,1.295-3.072
		c-1.75,0.888-1.075,1.792-2.988,3.208c1.661,0.267,1.918,1.474,2.91,2.188c0.6-0.816,1.21-1.547,1.868-1.933
		c0.403,0.952,1.002,1.77,0.162,3.679c-0.609-0.148-1.204-0.227-1.555,1.157c2.05,0.844,3.986,1.015,5.25-2.331
		C140.984,373.299,139.1,375.028,140.93,370.785z"/>
	<path d="M80.292,322.139c1.496,1.165,0.58,3.505,3.181,2.212C82.616,323.76,80.51,320.195,80.292,322.139z"/>
	<path d="M135.031,380.074c1.206-0.807,2.666-0.099,3.809-1.128c-0.592-1.534-3.549,0.295-5.09,1.489
		c1.622-0.51-0.278,4.095,1.631,1.586C134.9,381.631,134.969,380.845,135.031,380.074z"/>
	<path d="M145.773,384.266c1.368,1.118,2.517,4.53,4.205,0.616C148.638,384.949,146.738,382.618,145.773,384.266z"/>
	<path d="M140.173,387.651c-0.493-0.397-1.015-0.73-1.57-0.866c-0.556-0.131-1.148-0.058-1.777,0.337
		c0.398,1.854,1.226,0.614,2.503,1.018c0.181,1.041,1.736,3.962,3.283,2.076C141.989,389.627,141.153,388.46,140.173,387.651z"/>
	<path d="M171.682,390.701c-1.094-1.076-1.043-0.495-2.906-1.448C167.506,391.706,171.437,391.954,171.682,390.701z"/>
	<path d="M157.97,387.335c-0.927,2.456,1.184,2.655-0.562,4.182c0.51,0.163,1.026,0.293,1.543,0.428
		C159.164,389.888,159.573,387.708,157.97,387.335z"/>
	<path d="M161.144,381.314c1.817,0.351,3.143,3.54,4.83,3.82c0.878,0.143,1.889,0.239,2.837-0.121
		c0.949-0.366,1.84-1.228,2.467-2.908c-0.704-0.288-1.872-0.083-1.786-1.242c0.803,0.183,0.748-2.191,1.479-2.226
		c1.161-0.023,0.057,2.473,0.956,2.755c0.54-1.894,1.863-1.526,2.566-2.88c-1.167-1.219-2.296-1.453-3.834-0.791
		c0.241-2.594-4.97-4.474-5.13,0.423c1.501,0.572,2.348-0.926,4.006,0.153c-0.233,1.085-0.467,2.174-0.7,3.26
		c-0.385-1.824-1.796-1.619-3.285-1.502c-1.484,0.119-3.049,0.151-3.574-1.972c1.297-1.276,1.224,0.22,2.401,0.617
		c0.204-1.657-0.06-2.687-0.59-3.239c-0.265-0.276-0.598-0.432-0.974-0.488c-0.377-0.051-0.795-0.013-1.23,0.093
		c-1.737,0.446-3.824,2.192-4.565,4.144c-1.323-0.16-1.98-0.928-1.212-2.994c1.737,0.531,2.989-0.802,4.201-2.193
		c-2.285,0.564-4.717,0.624-6.583,3.199c0.469,2.08,0.977,4.162,1.967,5.844C157.957,382.336,158.751,380.79,161.144,381.314z"/>
	<path d="M154.892,372.441c-0.974,0.243-2.019-0.093-3.136-0.487c-1.117-0.397-2.301-0.869-3.557-0.989
		c-0.766-0.077-2.056,0.712-2.864,0.732c-1.003,0.008-2.262-2.548-2.872,0.629c1.106,0.738,2.207,0.68,3.091,0.77
		c0.88,0.106,1.523,0.424,1.744,1.978c-0.274,0.791-0.545,1.572-0.818,2.36c-1.573,0.161-0.845-1.551-2.096-1.649
		c-0.756,2.496,1.363,2.971,2.992,3.746c1.027,0.482,2.617,0.851,3.851,1.38c0.417-1.307,1.489-0.027,1.948-1.141
		c-0.436-0.246-0.768-0.773-1.056-1.399c-0.283-0.641-0.521-1.384-0.78-2.043c-0.519-1.319-1.114-2.307-2.364-1.539
		c1.368-0.033,1.58,0.927,0.625,2.88c-1.414-0.901-1.867-2.598-1.486-4.958c2.033-0.544,5.638,0.205,5.082,3.571
		C153.742,373.708,155.461,374.683,154.892,372.441z"/>
	<path d="M147.046,366.994c1.094-0.127,2.62,2.051,3.421,0.359C149.047,367.075,148.533,364.163,147.046,366.994z"/>
	<path d="M174.634,375.139l4.241,0.861C179.583,373.101,174.913,372.967,174.634,375.139z"/>
	<path d="M174.413,384.448c1.105,0.487,1.84,2.189,2.617-0.316C176.588,382.883,174.845,382.376,174.413,384.448z"/>
	<path d="M177.853,379.194c-1.016-0.575-2.256-2.408-3.032,0.236C175.825,380.001,177.122,381.852,177.853,379.194z"/>
	<path d="M176.671,399.329c0.844-0.327,2.629,1.396,2.799-0.409C178.826,397.409,177.398,396.159,176.671,399.329z"/>
	<path d="M138.386,361.543c-0.568-0.371-1.21-0.322-1.897,0.929c1.087-0.033,2.441,2.301,3.361,0.632
		C139.452,362.709,138.953,361.916,138.386,361.543z"/>
	<path d="M133.926,365.864c0.924,0.146,1.917,0.914,2.893,1.48c0.977,0.561,1.959,0.86,2.774,0.175
		C137.702,367.352,135.599,364.54,133.926,365.864z"/>
	<path d="M188.751,389.664c0.946,0.369,1.794,0.328,1.981-0.984c-0.966,0.407-1.93-0.115-2.732-0.539
		c-0.804-0.416-1.446-0.797-1.823,0c0.297,0.175,0.702,0.468,1.153,0.768C187.782,389.195,188.278,389.478,188.751,389.664z"/>
	<path d="M91.646,332.496c-0.404-0.39-0.818-0.779-1.202-1.198c-1.562-1.648-3.092-3.258-4.341-4.214
		c-3.296-2.531,1.929,3.109,3.5,4.606c0.231,0.221,0.453,0.45,0.67,0.679c0.222,0.223,0.442,0.444,0.659,0.662
		c0.432,0.438,0.853,0.864,1.284,1.237c0.862,0.746,1.765,1.28,2.873,1.269c-0.692-0.515-1.452-1.176-2.242-1.905
		C92.453,333.267,92.051,332.885,91.646,332.496z"/>
</g>
</svg>
