<?xml version="1.0" encoding="iso-8859-1"?>
<!-- Generator: Adobe Illustrator 25.4.1, SVG Export Plug-In . SVG Version: 6.00 Build 0)  -->
<svg version="1.1" id="Layer_1" xmlns="http://www.w3.org/2000/svg" xmlns:xlink="http://www.w3.org/1999/xlink" x="0px" y="0px"
	 width="425.197px" height="425.197px" viewBox="0 0 425.197 425.197" enable-background="new 0 0 425.197 425.197"
	 xml:space="preserve">
<path d="M29.392,165.849c2.909-0.405,4.667-2.959,7.4-3.85c4.253-1.386,8.624-2.128,12.997-2.55
	c5.833-0.563,11.691-0.18,17.389,1.509c2.92,0.866,5.819,1.969,7.911,4.144c2.53,2.63,5.643,3.927,8.889,5.205
	c7.961,3.134,15.771,6.699,22.944,11.324c7.366,4.75,15.404,7.168,23.828,8.807c6.295,1.225,6.236,1.245,7.165-5.282
	c3.161-22.213,5.565-44.507,7.62-66.848c1.26-13.695,1.967-27.418,2.884-41.132c0.93-13.902,0.838-27.824,1.391-41.73
	c0.153-3.842,1.949-5.848,4.996-7.243c5.708-2.613,11.838-3.437,18.011-3.511c4.408-0.053,8.85,0.289,13.162,1.511
	c4.297,1.218,6.997,3.492,7.912,8.293c6.158,32.302,13.351,64.379,21.758,96.174c4.405,16.661,8.978,33.279,14.082,49.744
	c0.324,1.044,0.706,2.07,1.017,2.978c1.346,0.824,2.307-0.052,3.271-0.408c12.52-4.623,24.328-10.643,35.378-18.142
	c2.373-1.61,4.482-3.474,6.407-5.608c3.605-3.996,7.415-7.808,10.99-11.829c4.363-4.906,10.096-6.978,16.278-7.963
	c6.118-0.975,12.298-0.937,18.437,0.024c2.189,0.343,4.357,0.884,6.3,2.01c2.856,1.655,3.392,3.472,1.64,6.293
	c-1.931,3.109-4.395,5.84-7.131,8.238c-15.413,13.509-28.113,29.587-42.154,44.392c-10.131,10.682-19.943,21.666-30.034,32.386
	c-2.016,2.141-2.307,3.935-1.35,6.696c16.077,46.379,34.008,91.988,56.037,135.908c1.913,3.815,4.128,7.478,6.131,11.249
	c2.334,4.396,1.766,6.459-2.379,9.093c-0.533,0.339-1.07,0.697-1.652,0.928c-10.788,4.272-21.809,5.096-33.008,1.929
	c-3.939-1.114-7.141-3.124-8.247-7.633c-0.469-1.913-1.951-3.595-3.048-5.334c-14.398-22.809-30.961-44.008-48.267-64.643
	c-6.51-7.762-13.228-15.351-19.917-22.961c-2.347-2.67-2.519-2.667-5.014,0.027c-12.585,13.59-25.201,27.153-37.166,41.302
	c-1.758,2.079-3.237,4.262-4.093,6.868c-1.778,5.417-5.478,8.684-11.047,9.993c-8.267,1.943-16.555,2.398-24.91,0.717
	c-1.078-0.217-2.152-0.546-3.166-0.97c-3.746-1.568-4.311-2.73-3.304-6.583c0.2-0.765,0.358-1.566,0.713-2.26
	c5.993-11.739,7.63-24.71,10.386-37.331c5.024-23.008,8.787-46.263,13.037-69.422c0.691-3.764,0.098-6.417-3.08-9.025
	c-13.837-11.355-27.855-22.444-42.857-32.242c-1.998-1.305-4.083-2.328-6.367-3.094c-11.415-3.828-22.547-8.332-32.946-14.48
	c-4.913-2.904-9.73-5.951-13.544-10.306c-0.447-0.51-1.002-0.733-1.68-0.613C29.392,169.016,29.392,167.433,29.392,165.849z
	 M172.691,228.559c-0.145,0.619,0.554,1.428,1.418,2.205c5.871,5.285,11.754,10.557,17.567,15.906
	c1.334,1.228,2.312,1.293,3.54-0.074c2.955-3.29,5.952-6.545,9-9.749c1.137-1.195,1.271-2.429,0.769-3.899
	c-2.653-7.763-5.307-15.525-7.908-23.305c-0.523-1.564-1.271-2.229-3.074-2.072c-5.502,0.477-11.021,0.774-16.537,1.053
	c-1.387,0.07-2.027,0.776-2.202,1.962C174.408,216.356,173.605,222.134,172.691,228.559z M182.266,162.968
	c-0.282,0.033-0.564,0.066-0.846,0.099c-1.289,10.298-2.577,20.596-3.896,31.133c4.976-0.067,9.321-0.418,14.088-1.101
	C188.458,182.931,185.362,172.949,182.266,162.968z M166.605,268.695c-1.327,3.416-1.555,6.488-2.185,10.005
	c2.116-1.117,3.122-2.75,4.506-3.931c1.749-1.491,1.552-2.806-0.182-4.126C168.144,270.186,167.621,269.627,166.605,268.695z
	 M218.247,271.827c0.24-1.297,0.047-2.385-1.297-2.936c-0.138-0.056-0.628,0.302-0.664,0.517
	C216.04,270.866,216.988,271.445,218.247,271.827z"/>
</svg>
