<?xml version="1.0" encoding="iso-8859-1"?>
<!-- Generator: Adobe Illustrator 25.4.1, SVG Export Plug-In . SVG Version: 6.00 Build 0)  -->
<svg version="1.1" id="Layer_1" xmlns="http://www.w3.org/2000/svg" xmlns:xlink="http://www.w3.org/1999/xlink" x="0px" y="0px"
	 width="425.197px" height="425.197px" viewBox="0 0 425.197 425.197" enable-background="new 0 0 425.197 425.197"
	 xml:space="preserve">
<path fill="#231F20" d="M402.649,153.44c-5.009-2.393-8.866-4.256-14.543-3.892c-6.172,0.396-12.34,1.102-18.474,1.881
	c-11.263,1.431-22.462,3.286-33.568,5.644c-22.474,4.773-44.514,11.447-66.04,19.454c-43.132,16.044-84.183,37.162-124.042,60.042
	c-10.616,6.094-21.15,12.325-31.646,18.623c33.842-39.237,76.237-70.698,119.467-99.08c16.008-10.51,32.235-20.685,48.46-30.855
	c7.864-4.929,2.818-17.21-6.313-14.975c-41.013,10.037-81.478,21.533-121.774,34.133c-19.786,6.187-39.442,12.659-58.944,19.69
	c-6.709,2.419-13.617,4.73-20.5,7.186c10.599-6.342,20.714-13.45,30.533-20.95c6.763-5.166-0.402-14.7-7.203-9.336
	c-11.268,8.888-23.12,17.017-35.144,24.842c-5.632,3.665-11.325,7.249-16.904,10.993c-3.131,2.101-6.671,3.959-9.664,6.339
	c-3.558-0.473-7.154-0.635-10.751-0.826c-5.897-2.457-13.356,9.144-3.906,11.807c5.172,1.457,10.075,3.682,15.19,5.299
	c5.439,1.719,10.854,3.453,16.138,5.619c10.309,4.226,19.489,10.067,28.895,15.936c7.643,4.768,17.242-7.019,9.847-12.762
	c-9.849-7.648-21.041-13.412-32.542-18.149c-1.913-0.788-3.846-1.522-5.786-2.23c15.14-3.296,30.033-8.712,44.775-12.972
	c19.873-5.742,39.732-11.547,59.644-17.15c24.248-6.823,48.633-13.276,73.076-19.475c-43.403,28.104-85.522,58.566-120.6,96.61
	c-13.076,14.182-25.038,29.406-35.604,45.547c-4.55,6.95,4.402,15.485,11.271,11.271c76.514-46.943,155.254-95.026,243.442-116.248
	c11.974-2.881,24.076-5.256,36.268-7.01c6.411-0.923,12.855-1.625,19.308-2.171c2.957-0.25,6.509-0.11,9.379-0.955
	c2.895-0.853,5.679-3.104,8.255-4.625C405.189,159.192,405.572,154.837,402.649,153.44z"/>
</svg>
