<?xml version="1.0" encoding="iso-8859-1"?>
<!-- Generator: Adobe Illustrator 25.4.1, SVG Export Plug-In . SVG Version: 6.00 Build 0)  -->
<svg version="1.1" id="Layer_1" xmlns="http://www.w3.org/2000/svg" xmlns:xlink="http://www.w3.org/1999/xlink" x="0px" y="0px"
	 width="425.197px" height="425.197px" viewBox="0 0 425.197 425.197" enable-background="new 0 0 425.197 425.197"
	 xml:space="preserve">
<path d="M263.629,265.269c2.03-2.581,4.023-5.019,5.913-7.533c17.576-23.376,33.495-47.892,49.675-72.229
	c4.992-7.509,10.282-14.844,14.857-22.599c4.27-7.238,10.425-10.974,18.431-12.285c7.813-1.279,15.603-1.444,23.364,0.374
	c0.65,0.152,1.312,0.27,1.943,0.479c6.883,2.287,8.258,5.047,5.343,11.665c-9.757,22.154-19.077,44.482-27.409,67.215
	c-15.233,41.561-28.418,83.735-38.098,126.962c-2.225,9.935-4.051,19.944-5.235,30.052c-0.359,3.068-0.481,6.107,1.351,9.162
	c2.405,4.011,1.404,6.726-2.574,9.315c-1.38,0.899-2.936,1.601-4.5,2.134c-10.377,3.535-20.927,3.941-31.546,1.31
	c-4.591-1.137-8.407-3.285-9.097-8.701c-0.283-2.217-2.32-3.192-3.888-4.361c-6.988-5.207-14.64-9.321-22.406-13.204
	c-30.339-15.168-61.839-27.587-93.62-39.321c-15.025-5.547-30.164-10.782-45.486-15.465c-4.275-1.306-4.415-1.375-6.529,2.567
	c-3.868,7.211-9.571,11.919-17.68,13.434c-8.75,1.634-17.538,2.206-26.347,0.392c-2.639-0.543-5.15-1.469-7.376-2.995
	c-2.788-1.911-2.807-3.942-0.115-5.91c1.916-1.401,4.1-2.385,6.41-2.695c2.316-0.311,3.505-1.615,4.429-3.507
	c1.456-2.979,3.203-5.829,4.214-9.465c-2.863-0.604-5.613-0.967-8.214-1.797c-2.467-0.786-5.527-1.343-6.009-4.557
	c-0.501-3.342,2.057-5.106,4.447-6.666c3.97-2.592,8.426-4.049,13.068-4.789c2.991-0.477,4.446-1.986,5.336-4.889
	c6.758-22.023,12.294-44.35,17.215-66.846c6.63-30.31,11.824-60.872,15.797-91.627c2.135-16.519,3.445-33.138,4.676-49.765
	c0.733-9.908-0.659-19.632-0.539-29.448c0.095-7.726,1.36-9.628,8.763-11.726c8.972-2.542,18.078-2.938,27.236-1.123
	c1.614,0.32,3.197,0.947,4.703,1.634c2.314,1.056,3.437,2.802,3.446,5.528c0.089,28.431,4.862,56.374,8.857,84.402
	c3.199,22.443,7.042,44.773,11.349,67.026c0.337,1.742,0.785,3.462,1.287,5.657c1.824-2.122,2.12-4.326,2.799-6.328
	c19.881-58.623,39.954-117.183,59.377-175.958c3.069-9.288,8.954-12.498,17.311-13.898c6.308-1.058,12.624-0.745,18.939-0.067
	c0.663,0.071,1.325,0.183,1.976,0.327c8.009,1.779,9.303,3.704,7.617,11.78c-5.594,26.791-9.52,53.825-12.321,81.046
	c-1.621,15.755-2.892,31.526-4.039,47.321c-1.61,22.165-2.101,44.344-1.861,66.544c0.148,13.666,1.051,27.301,3.243,40.819
	C262.243,263.473,262.194,264.351,263.629,265.269z M214.727,215.839c-0.384-0.053-0.768-0.106-1.151-0.159
	c-1.879,5.31-3.721,10.634-5.645,15.928c-3.589,9.878-7.138,19.771-12.135,29.067c-3.686,6.858-9.186,11.157-16.77,13.173
	c-7.059,1.877-14.213,1.869-21.356,1.74c-11.843-0.215-19.753-5.757-23.163-17.532c-2.088-7.21-4.124-14.421-5.929-21.707
	c-0.67-2.704-0.638-5.647-2.564-8.583c-5.931,25.924-11.864,51.358-20.52,76.309c56.459,16.286,110.618,38.088,164.005,62.47
	c2.877-13.388,5.796-26.228,9.314-38.924c3.479-12.555,6.961-25.108,10.442-37.662c-8.957,5.801-18.241,9.154-28.426,9.945
	c-7.825,0.608-15.622,0.944-23.334-1.311c-7.366-2.154-12.71-6.397-15.63-13.583c-1.261-3.102-2.272-6.271-2.995-9.534
	c-2.897-13.071-3.81-26.356-4.117-39.691C214.6,229.141,214.727,222.488,214.727,215.839z"/>
</svg>
