<?xml version="1.0" encoding="iso-8859-1"?>
<!-- Generator: Adobe Illustrator 25.4.1, SVG Export Plug-In . SVG Version: 6.00 Build 0)  -->
<svg version="1.1" id="Layer_1" xmlns="http://www.w3.org/2000/svg" xmlns:xlink="http://www.w3.org/1999/xlink" x="0px" y="0px"
	 width="425.197px" height="425.197px" viewBox="0 0 425.197 425.197" enable-background="new 0 0 425.197 425.197"
	 xml:space="preserve">
<g>
	<path d="M397.703,241.024c-1.837,3.53-0.993,7.479-1.752,11.203c-6.903,33.899-23.996,61.905-49.352,84.996
		c-28.65,26.09-62.635,40.995-100.853,45.983c-35.305,4.608-70.049,2.215-103.143-12.121
		c-47.861-20.732-79.661-55.69-91.551-107.026c-8.508-36.735-4.114-72.711,10.044-107.461c12.518-30.724,31.142-57.094,57.5-77.615
		c22.616-17.608,48.43-26.513,76.946-28.242c19.656-1.191,38.495,1.954,56.666,9.412c1.239,0.508,2.782,0.715,3.66,1.589
		c3.987,3.971,9.212,4.161,14.237,5.116c35.576,6.76,64,25.661,87.595,52.341c19.55,22.107,32.495,47.648,38.226,76.749
		c0.768,3.9-0.129,8.024,1.777,11.723C397.703,218.788,397.703,229.906,397.703,241.024z M206.888,69.043
		c-5.014-2.738-9.586-2.793-14.336-1.259c-11.477,3.706-21.543,9.907-30.727,17.569c-19.945,16.641-34.591,37.297-45.113,60.885
		c-16.134,36.167-22.022,73.68-12.136,112.529c11.028,43.331,36.502,75.328,77.367,94.383c33.349,15.55,65.122,11.177,95.628-7.995
		c1.933-1.215,3.123-2.538,3.094-5.013c-0.029-2.471,0.654-4.947,0.656-7.421c0.016-23.704,1.556-47.409-0.006-71.114
		c-0.087-1.323-0.146-2.788,0.316-3.979c1.369-3.524,0.961-6.616-1.159-9.758c-1.986-2.942-1.969-6.17-0.002-9.201
		c5.32-8.196,2.495-17.18,3.409-26.4c-2.672,0.985-4.431,1.702-6.233,2.287c-10.381,3.375-20.94,4.514-31.726,2.337
		c-4.339-0.876-8.49-2.319-12.295-4.627c-2.438-1.479-4.24-3.488-3.786-6.539c0.785-5.279,2.883-9.831,7.522-12.974
		c14.769-10.006,36.732-9.259,51.45,0.991c1.11,0.773,2.056,1.379,3.563,1.431c4.515,0.155,4.778,0.549,4.633,4.899
		c-0.23,6.892-0.324,13.795-0.8,20.672c-0.38,5.486-0.337,11.144-4.058,15.854c-1.618,2.049-1.212,4.269,0.14,6.399
		c1.438,2.265,3.461,4.826,2.457,7.373c-1.959,4.97-0.447,9.763-0.447,14.65c-0.002,19.922-0.281,39.844-0.416,59.766
		c-0.017,2.551-0.978,5.11-0.409,7.615c1.537,0.175,2.194-0.601,2.873-1.226c37.482-34.503,56.089-76.534,47.2-127.628
		c-8.412-48.354-35.546-84.421-78.456-108.265c-15.406-8.56-32.064-12.195-49.849-10.177c-6.848,0.777-13.797,0.282-20.375-2.208
		c-2.102-0.796-4.356-1.702-4.358-4.672c-0.002-2.593,1.858-3.562,3.688-4.65C197.873,71.393,202.145,70.89,206.888,69.043z"/>
	<path d="M160.158,216.492c-6.1,0.27-12.294-0.677-18.277-2.98c-2.723-1.048-5.202-2.461-7.072-4.741
		c-3.235-3.944-2.536-8.586,1.714-11.236c1.294-0.807,2.684-1.506,4.109-2.047c13.257-5.026,26.788-6.018,40.593-2.615
		c2.436,0.6,4.733,1.58,6.842,2.914c6.103,3.861,6.405,8.892,0.82,13.398c-3.345,2.699-7.295,4.201-11.387,5.239
		C171.92,215.841,166.236,216.637,160.158,216.492z"/>
</g>
</svg>
