<?xml version="1.0" encoding="iso-8859-1"?>
<!-- Generator: Adobe Illustrator 25.4.1, SVG Export Plug-In . SVG Version: 6.00 Build 0)  -->
<svg version="1.1" id="Layer_1" xmlns="http://www.w3.org/2000/svg" xmlns:xlink="http://www.w3.org/1999/xlink" x="0px" y="0px"
	 width="425.197px" height="425.197px" viewBox="0 0 425.197 425.197" enable-background="new 0 0 425.197 425.197"
	 xml:space="preserve">
<g>
	<path d="M268.569,200.373c4.235-18.056,7.413-36.088,10.293-54.171c2.501-15.706,4.883-31.433,7.046-47.187
		c0.389-2.833,1.49-4.551,3.909-5.463c11.057-4.171,22.343-5.167,33.768-1.754c4.606,1.376,5.124,2.475,5.25,7.517
		c0.392,15.561-1.558,30.984-3.056,46.41c-1.459,15.02-3.57,29.98-5.617,44.936c-1.283,9.375-3.15,18.671-4.404,28.05
		c-0.554,4.15-2.779,6.576-6.221,8.24c-1.806,0.872-3.698,1.653-5.634,2.154c-9.095,2.353-18.288,2.929-27.565,1.145
		c-0.79-0.152-1.573-0.354-2.345-0.582c-7.705-2.273-9.425-4.7-8.86-12.54c-1.516-0.881-2.583,0.431-3.838,0.811
		c-10.235,3.094-20.594,3.779-31.047,1.32c-4.516-1.062-6.817-3.494-7.398-8.744c-2.633-23.789-5.39-47.554-7.189-71.431
		c-1.014-13.458-2.064-26.896-1.917-40.401c0.024-2.214,0.332-4.431,0.404-6.617c0.2-6.055,3.736-9.158,8.914-10.813
		c10.584-3.382,21.352-4.156,32.164-1.216c6.986,1.9,8.028,4.053,8.155,11.302c0.195,11.059,0.737,22.12,1.499,33.155
		c0.207,3.005,0.45,6.01,0.545,9.026c0.525,16.719,1.484,33.419,1.814,50.151C267.347,189.226,267.43,194.915,268.569,200.373z"/>
	<path d="M169.432,383.984c-10.598,0.585-19.564-0.659-28.164-3.827c-13.858-5.105-21.315-15.777-21.189-30.571
		c0.298-35.014,18.367-59.314,48.384-74.309c31.341-15.657,63.522-14.578,94.693,1.853c6.102,3.216,9.21,9.275,9.899,16.249
		c0.588,5.954-0.456,11.794-2.947,17.122c-17.028,36.417-43.173,62.37-83.47,71.709
		C180.551,383.619,174.272,383.905,169.432,383.984z M165.059,342.458c-0.008,8.214,1.391,14.187,4.936,19.596
		c1.556,2.375,3.235,3.569,5.871,1.495c0.628-0.494,1.401-0.797,2.07-1.243c21.288-14.181,36.635-33.097,45.476-57.173
		c1.111-3.026,1.943-6.141,2.042-9.397c0.302-9.872-10.867-17.343-19.887-13.257c-8.607,3.899-15.712,9.808-21.762,16.96
		C172.846,312.394,165.949,327.101,165.059,342.458z"/>
	<path d="M110.348,117.381c0.466,14.799-0.78,32.114-1.356,49.437c-0.67,20.118-2.081,40.212-3.19,60.315
		c-0.361,6.542-1.705,8.317-7.889,10.499c-9.955,3.514-20.129,3.603-30.402,1.839c-1.183-0.203-2.342-0.616-3.472-1.038
		c-3.486-1.303-5.592-3.41-5.691-7.558c-0.21-8.846-0.931-17.678-1.265-26.522c-1.062-28.181-2.607-56.355-2.016-84.569
		c0.24-11.473,0.673-22.959,2.28-34.351c0.309-2.189,0.786-4.361,1.312-6.51c1.032-4.222,3.665-7.106,7.682-8.698
		c11.432-4.533,23.16-4.907,34.996-2.082c4.966,1.186,7.603,4.267,8.059,9.841C110.398,90.265,110.277,102.541,110.348,117.381z"/>
	<path d="M343.981,237.873c-3.677-0.186-7.277-0.247-10.807-1.355c-9.152-2.873-11.761-9.273-7.165-17.778
		c1.745-3.23,4.018-6.07,6.728-8.483c16.683-14.854,36.156-23.053,58.519-24.11c3.815-0.18,7.641,0.2,11.312,1.511
		c8.161,2.915,10.607,8.911,6.749,16.722c-1.809,3.662-4.379,6.788-7.393,9.479C385.403,228.611,365.958,236.331,343.981,237.873z"
		/>
</g>
</svg>
