<?xml version="1.0" encoding="iso-8859-1"?>
<!-- Generator: Adobe Illustrator 25.4.1, SVG Export Plug-In . SVG Version: 6.00 Build 0)  -->
<svg version="1.1" id="Layer_1" xmlns="http://www.w3.org/2000/svg" xmlns:xlink="http://www.w3.org/1999/xlink" x="0px" y="0px"
	 width="425.197px" height="425.197px" viewBox="0 0 425.197 425.197" enable-background="new 0 0 425.197 425.197"
	 xml:space="preserve">
<path fill="#231F20" d="M395.617,161.327c-13.681-12.274-33.853-16.576-51.195-20.889c-19.076-4.744-38.573-7.825-58.188-9.139
	c-38.686-2.591-77.76,1.291-114.964,12.357c-19.465,5.79-38.102,13.977-56.135,23.27c-20.496,10.563-40.641,22.683-58.3,37.586
	c-14.752,12.45-30.959,29.08-33.675,49.146c-1.205,8.9,0.634,17.916,5.323,25.593c8.149,13.342,20.77,20.242,36.132,22.261
	c19.355,2.543,40.06,0.704,59.36-1.593c19.514-2.323,38.841-6.176,57.963-10.665c35.073-8.233,69.585-18.794,104.791-26.454
	c-5.045,1.701-10.13,3.278-15.257,4.693c-8.531,2.355-17.14,4.481-25.825,6.18c-5.382,1.053-0.539,10.051,4.198,9.319
	c26.85-4.155,52.935-12.171,77.49-23.618c-0.043,1.824-0.129,3.516-0.07,4.721c0.249,5.135,0.512,10.269,0.722,15.406
	c0.211,5.177,0.432,10.354,0.663,15.53c0.099,2.218,0.245,4.438,0.299,6.657c0.114,4.682-2.886,9.108-3.993,13.666
	c-1.569,6.461,5.697,8.473,10.628,6.662c1.879-0.69,3.919-2.333,5.188-4.258c0.017,0.092,0.034,0.185,0.05,0.277
	c0.21-0.426,0.391-0.866,0.543-1.311c1.138-2.354,0.981-4.937-1.991-6.666c-4.622-2.69-3.27-13.28-3.466-17.796
	c-0.241-5.549-0.499-11.099-0.681-16.65c-0.172-5.239-0.289-10.48-0.42-15.719c-0.036-1.429-0.115-2.771-0.094-4.091
	c7.625-3.819,15.099-7.955,22.379-12.436c7.857-4.836,15.488-10.038,22.857-15.591c7.109-5.357,14.692-10.893,20.233-17.946
	C412.27,194.449,410.157,174.371,395.617,161.327z M363.802,223.201c-7.933,5.724-16.177,11.031-24.664,15.926
	c-0.717-1.238-1.945-2.31-3.611-2.909c-1.411-0.507-2.28-1.388-3.496-2.26c-2.545-1.824-3.834,0.022-4.118,2.267
	c-2.363,1.49-3.944,3.041-4.784,5.455c-3.444,0.304-6.911,1.078-9.925,1.579c-9.265,1.542-18.491,3.346-27.669,5.337
	c-17.905,3.883-35.634,8.519-53.338,13.222c-35.481,9.424-71.048,19.271-107.621,23.422c-17.815,2.022-37.183,4.008-54.993,1.186
	c-12.269-1.944-21.778-8.724-26.901-20.069c-6.613-14.645,1.966-28.982,11.965-40.23c13.081-14.714,30.769-26.524,47.949-36.594
	c8.79-5.152,17.788-9.949,26.939-14.428c4.101-2.007,8.233-3.95,12.398-5.819c1.802-0.809,3.611-1.604,5.427-2.383
	c0.786-0.337,1.574-0.671,2.362-1.003c0.001,0,0.001,0,0.001,0c0.473-0.194,0.946-0.389,1.421-0.58
	c61.412-24.676,131.862-25.572,195.169-7.74c15.431,4.346,35.179,9.21,42.559,25.173
	C397.341,201.067,376.388,214.119,363.802,223.201z"/>
</svg>
