<?xml version="1.0" encoding="iso-8859-1"?>
<!-- Generator: Adobe Illustrator 25.4.1, SVG Export Plug-In . SVG Version: 6.00 Build 0)  -->
<svg version="1.1" id="Layer_1" xmlns="http://www.w3.org/2000/svg" xmlns:xlink="http://www.w3.org/1999/xlink" x="0px" y="0px"
	 width="425.197px" height="425.197px" viewBox="0 0 425.197 425.197" enable-background="new 0 0 425.197 425.197"
	 xml:space="preserve">
<path fill="#231F20" d="M380.464,111.933c-0.448-4.168-2.616-7.091-5.605-9.024c-0.122-0.084-0.242-0.173-0.366-0.253
	c-0.037-0.022-0.074-0.043-0.111-0.065c-2.653-1.678-5.844-2.466-9.117-2.638c-3.328-0.242-6.687,0.136-9.49,0.991
	c-0.208,0.064-0.416,0.124-0.624,0.188c-16.178,4.174-32.124,9.208-48.22,13.678c-8.834,2.454-17.705,4.8-26.653,6.804
	c-13.099,2.933-30.704,11.49-28.218,27.983c2.841,18.847,22.018,15.071,38.428,9.386c-14.944,17.21-28.575,35.573-40.833,54.611
	c-12.415,19.282-23.656,39.252-33.439,59.891c-5.284-19.539-11.014-38.959-17.456-58.199
	c-13.223-39.495-28.726-81.112-57.717-111.937C117.534,78.354,77.623,60.951,49.97,89.862
	c-21.679,22.665-22.409,59.055-18.452,88.22c5.698,41.993,23.954,81.139,51.484,113.193c3.375,3.93,9.575,3.756,12.298-0.651
	c3.169-5.128,0.23-11.626-3.187-15.639c-20.712-24.325-34.58-54.699-39.456-86.263c-3.79-24.532-4.782-54.256,10.797-75.26
	c7.322-9.872,19.272-15.857,31.689-14.256c14.128,1.822,25.43,12.751,33.629,23.602c9.585,12.686,15.458,28.4,20.438,43.38
	c5.922,17.816,10.116,36.046,13.802,54.435c4.354,21.725,8.207,43.582,11.646,65.47c3.513,22.358,8.893,44.423,13.801,66.504
	c2.247,10.113,11.744,13.727,21.325,12.024c10.53-1.872,19.916-8.96,22.741-19.569c10.94-41.083,30.145-82.081,52.985-117.323
	c12.222-18.859,25.715-36.906,40.52-53.818c3.414-3.9,6.841-7.658,10.331-11.32c-0.659,6.863-1.711,13.692-3.116,20.485
	c-1.903,5.158-3.095,9.79-3.899,15.709c-1.535,11.299,8.462,17.794,18.843,16.91c12.143-1.034,21.953-9.496,25.28-20.917
	C381.293,167.916,383.45,139.739,380.464,111.933z"/>
</svg>
