<?xml version="1.0" encoding="iso-8859-1"?>
<!-- Generator: Adobe Illustrator 25.4.1, SVG Export Plug-In . SVG Version: 6.00 Build 0)  -->
<svg version="1.1" id="Layer_1" xmlns="http://www.w3.org/2000/svg" xmlns:xlink="http://www.w3.org/1999/xlink" x="0px" y="0px"
	 width="500px" height="500px" viewBox="0 0 500 500" enable-background="new 0 0 500 500" xml:space="preserve">
<g>
	<g>
		<path d="M32.099,282.084c0.685-0.376,1.393-0.715,2.099-1.051c0.846-0.403,1.699-0.79,2.556-1.167
			c0.249-0.11,0.501-0.215,0.75-0.326c0.495-0.221-1.119,0.47-0.444,0.19c0.171-0.071,0.342-0.145,0.513-0.216
			c0.651-0.273,1.304-0.54,1.959-0.803c8.007-3.207,16.289-5.726,24.656-7.802c13.189-3.272,26.655-5.403,40.182-6.644
			c18.302-1.68,37.174-1.722,55.217-0.45c23.282,1.641,47.148,5.593,70.117,11.073c12.685,3.026,25.27,6.435,37.987,9.334
			c10.849,2.473,21.748,4.739,32.7,6.708c16.459,2.96,33.047,5.25,49.743,6.306c10.269,0.649,20.63,0.829,30.883-0.181
			c5.507-0.542,11.073-1.394,16.337-3.152c2.127-0.71,4.828-1.482,6.586-2.972c0.059-0.05,0.126-0.089,0.186-0.138
			c1.043-0.861,0.652-2.782,0.342-3.815c-0.594-1.986-1.978-4.107-3.339-5.631c-1.424-1.594-3.079-3.281-5.065-4.148
			c-1.134-0.496-2.706-1.158-3.823-0.236c-0.258,0.213-0.554,0.385-0.841,0.555c-0.363,0.215-0.738,0.41-1.117,0.596
			c-0.255,0.126-0.516,0.239-0.773,0.361c-0.921,0.436,1.208-0.472,0.004-0.006c-4.371,1.689-8.969,2.665-13.599,3.328
			c-8.967,1.285-18.09,1.441-27.131,1.162c-3.147-0.097-6.292-0.256-9.433-0.464c-0.194-0.013-1.529-0.106-0.79-0.053
			c0.705,0.05-0.445-0.034-0.629-0.047c-0.936-0.07-1.871-0.145-2.806-0.224c-1.824-0.154-3.647-0.322-5.469-0.505
			c-8.286-0.83-16.543-1.94-24.768-3.24c-22.285-3.523-44.349-8.401-66.214-13.938c-24.228-6.135-48.511-11.388-73.398-14.015
			c-19.719-2.082-39.61-2.82-59.417-1.726c-14.731,0.813-29.427,2.624-43.861,5.703c-9.566,2.041-19.04,4.625-28.228,7.994
			c-3.024,1.109-6.01,2.317-8.958,3.615c-1.361,0.599-2.837,1.158-4.11,1.936c-0.156,0.095-0.328,0.169-0.489,0.257
			c-1.122,0.616-0.574,3.041-0.342,3.815c0.594,1.986,1.978,4.107,3.339,5.631C25.085,279.799,28.94,283.818,32.099,282.084
			L32.099,282.084z"/>
	</g>
	<g>
		<path d="M418.481,286.759c7.779-1.196,15.351-3.357,22.894-5.557c3.813-1.112,7.735-2.026,11.425-3.496
			c3.443-1.371,6.873-2.789,10.179-4.471c1.916-0.975,3.788-2.037,5.589-3.212c1.598-1.042,2.997-2.624,4.262-4.039
			c0.604-0.676-0.798-2.541-1.03-2.872c-1.205-1.72-2.857-3.356-4.437-4.717c-1.619-1.395-3.327-2.836-5.245-3.799
			c-0.637-0.32-2.33-1.383-2.98-0.656c-1.264,1.414-2.664,2.997-4.262,4.039c-1.848,1.205-3.77,2.292-5.738,3.288
			c-3.85,1.948-7.863,3.54-11.871,5.126c0.204-0.067,0.407-0.134,0.611-0.202c-10.575,2.89-20.999,6.45-31.866,8.121
			c-2.585,0.397,2.526,5.585,3.086,6.134c1.666,1.634,3.446,3.221,5.414,4.482c0.534,0.325,1.067,0.649,1.601,0.974
			C416.844,286.354,417.634,286.64,418.481,286.759L418.481,286.759z"/>
	</g>
</g>
</svg>
