<?xml version="1.0" encoding="iso-8859-1"?>
<!-- Generator: Adobe Illustrator 25.4.1, SVG Export Plug-In . SVG Version: 6.00 Build 0)  -->
<svg version="1.1" id="Layer_1" xmlns="http://www.w3.org/2000/svg" xmlns:xlink="http://www.w3.org/1999/xlink" x="0px" y="0px"
	 width="500px" height="500px" viewBox="0 0 500 500" enable-background="new 0 0 500 500" xml:space="preserve">
<g>
	<path d="M418.115,195.046c-2.043-2.676-4.232-5.151-6.765-7.528c-6.559-6.156-14.013-11.129-21.443-16.129
		c0.837-1.581,1.67-3.161,2.505-4.742c7.631-14.446,18.344-68.569-14.229-62.553c-17.801,3.288-27.355,21.926-36.311,36.306
		c-15.242-8.632-30.405-13.776-45.467-10.009c-7.199,1.8-12.244,5.78-10.3,11.508c2.376,6.997,4.497,14.628,12.223,20.238
		c7.078,5.139,14.196,10.231,21.376,15.23c-7.528,13.442-14.555,26.962-14.412,43.396c0.091,10.486,3.763,17.48,11.859,22.542
		c7.453,4.659,14.936,3.438,22.307-1.401c2.908-1.908,5.551-4.003,8.017-6.487c8.1-8.157,13.663-18.129,19.981-27.554
		c10.826,6.27,21.909,11.631,34.343,13.204c9.695,1.227,15.818-0.983,19.732-7.143C425.134,208.254,423.292,201.829,418.115,195.046
		z"/>
	<path d="M192.709,228.981c9.695,1.226,15.818-0.983,19.732-7.144c3.604-5.67,1.761-12.097-3.416-18.879
		c-2.042-2.676-4.232-5.153-6.764-7.529c-6.56-6.156-14.013-11.129-21.443-16.129c0.836-1.579,1.67-3.161,2.505-4.742
		c7.603-14.391,12.914-43.596,2.14-57.562c-18.026-23.365-43.022,16.117-52.669,31.321c-15.246-8.635-30.412-13.782-45.477-10.015
		c-7.199,1.8-12.245,5.78-10.3,11.509c2.376,6.996,4.497,14.628,12.223,20.237c7.078,5.139,14.196,10.232,21.375,15.23
		c-7.528,13.442-14.555,26.964-14.411,43.396c0.091,10.487,3.763,17.481,11.859,22.543c7.453,4.659,14.936,3.437,22.307-1.401
		c2.908-1.908,5.551-4.003,8.017-6.487c8.1-8.157,13.663-18.129,19.98-27.554C169.192,222.046,180.276,227.408,192.709,228.981z"/>
	<path d="M376.325,370.581c-11.505-15.92-27.272-25.22-44.526-31.783c-5.507-2.095-11.327-3.524-17.128-4.874
		c-19.64-4.571-39.38-5.939-59.345-3.63c-15.076,1.744-30.106,3.899-44.222,10.246c-6.507,2.927-13.125,5.941-18.979,10.082
		c-22.919,16.212-41.87,46.475-18.48,68.133c4.76-8.56,11.512-17.956,21.024-26.546c22.481-35.387,90.469-31.581,125.44-25.916
		c1.423,0.231,2.852,0.42,4.273,0.678c1.011,0.184,1.993,0.475,2.937,0.864c41.384,10.187,44.571,34.052,44.571,34.052
		c1.238,2.978,3.153,4.893,5.797,6.144c4.55,2.156,7.823,0.492,8.945-4.715c0.866-4.023,0.877-8.224-0.442-12.051
		C383.677,383.978,380.809,376.785,376.325,370.581z"/>
</g>
</svg>
