<?xml version="1.0" encoding="iso-8859-1"?>
<!-- Generator: Adobe Illustrator 25.4.1, SVG Export Plug-In . SVG Version: 6.00 Build 0)  -->
<svg version="1.1" id="Layer_1" xmlns="http://www.w3.org/2000/svg" xmlns:xlink="http://www.w3.org/1999/xlink" x="0px" y="0px"
	 width="500px" height="500px" viewBox="0 0 500 500" enable-background="new 0 0 500 500" xml:space="preserve">
<g>
	<g>
		<path d="M38.519,272.328c3.479,0,6.957,0,10.436,0c9.382,0,18.764,0,28.146,0c13.91,0,27.82,0,41.729,0
			c16.971,0,33.941,0,50.912,0c18.523,0,37.045,0,55.568,0c18.824,0,37.649,0,56.473,0c17.432,0,34.864,0,52.297,0
			c14.784,0,29.568,0,44.352,0c10.629,0,21.258,0,31.887,0c5,0,10.077,0.255,15.072,0c0.218-0.011,0.44,0,0.659,0
			c1.414,0,1.788-1.737,1.74-2.758c-0.087-1.841-1.278-4.069-2.289-5.517c-2.16-3.09-5.637-7.019-9.758-7.019
			c-3.479,0-6.957,0-10.436,0c-9.382,0-18.764,0-28.146,0c-13.91,0-27.82,0-41.729,0c-16.971,0-33.941,0-50.912,0
			c-18.523,0-37.045,0-55.568,0c-18.824,0-37.649,0-56.473,0c-17.432,0-34.864,0-52.297,0c-14.784,0-29.568,0-44.352,0
			c-10.629,0-21.258,0-31.887,0c-5,0-10.077-0.255-15.072,0c-0.218,0.011-0.44,0-0.659,0c-1.414,0-1.788,1.737-1.74,2.758
			c0.087,1.841,1.278,4.069,2.289,5.517C30.921,268.398,34.398,272.328,38.519,272.328c3.479,0,6.957,0,10.436,0
			c9.382,0,18.764,0,28.146,0c13.91,0,27.82,0,41.729,0c16.971,0,33.941,0,50.912,0c18.523,0,37.045,0,55.568,0
			c18.824,0,37.649,0,56.473,0c17.432,0,34.864,0,52.297,0c14.784,0,29.568,0,44.352,0c10.629,0,21.258,0,31.887,0
			c5,0,10.077,0.255,15.072,0c0.218-0.011,0.44,0,0.659,0c1.414,0,1.788-1.737,1.74-2.758c-0.087-1.841-1.278-4.069-2.289-5.517
			c-2.16-3.09-5.637-7.019-9.758-7.019c-3.479,0-6.957,0-10.436,0c-9.382,0-18.764,0-28.146,0c-13.91,0-27.82,0-41.729,0
			c-16.971,0-33.941,0-50.912,0c-18.523,0-37.045,0-55.568,0c-18.824,0-37.649,0-56.473,0c-17.432,0-34.864,0-52.297,0
			c-14.784,0-29.568,0-44.352,0c-10.629,0-21.258,0-31.887,0c-5,0-10.077-0.255-15.072,0c-0.218,0.011-0.44,0-0.659,0
			c-1.414,0-1.788,1.737-1.74,2.758c0.087,1.841,1.278,4.069,2.289,5.517C30.921,268.398,34.398,272.328,38.519,272.328z"/>
	</g>
	<g>
		<path d="M443.529,272.328c6.797,0,13.595,0,20.393,0c0.962,0,1.925,0,2.887,0c1.414,0,1.788-1.737,1.74-2.758
			c-0.087-1.841-1.278-4.069-2.289-5.517c-1.387-1.984-3.049-3.938-5.079-5.285c-1.45-0.962-2.889-1.735-4.679-1.735
			c-6.798,0-13.595,0-20.393,0c-0.962,0-1.925,0-2.887,0c-1.414,0-1.788,1.737-1.74,2.758c0.087,1.841,1.278,4.069,2.289,5.517
			c1.387,1.984,3.049,3.938,5.079,5.285C440.3,271.555,441.739,272.328,443.529,272.328c6.797,0,13.595,0,20.393,0
			c0.962,0,1.925,0,2.887,0c1.414,0,1.788-1.737,1.74-2.758c-0.087-1.841-1.278-4.069-2.289-5.517
			c-1.387-1.984-3.049-3.938-5.079-5.285c-1.45-0.962-2.889-1.735-4.679-1.735c-6.798,0-13.595,0-20.393,0c-0.962,0-1.925,0-2.887,0
			c-1.414,0-1.788,1.737-1.74,2.758c0.087,1.841,1.278,4.069,2.289,5.517c1.387,1.984,3.049,3.938,5.079,5.285
			C440.3,271.555,441.739,272.328,443.529,272.328z"/>
	</g>
</g>
</svg>
