<?xml version="1.0" encoding="iso-8859-1"?>
<!-- Generator: Adobe Illustrator 25.4.1, SVG Export Plug-In . SVG Version: 6.00 Build 0)  -->
<svg version="1.1" id="Layer_1" xmlns="http://www.w3.org/2000/svg" xmlns:xlink="http://www.w3.org/1999/xlink" x="0px" y="0px"
	 width="500px" height="500px" viewBox="0 0 500 500" enable-background="new 0 0 500 500" xml:space="preserve">
<g>
	<path d="M417.572,153.55c-7.816-2.276-16.166-5.24-24.598-1.09c-9.262,4.559-18.519,9.152-27.606,14.047
		c-9.173-14.626-19.909-26.192-34.733-29.975c-7.077-1.806-13.307-0.718-14.3,5.153c-1.213,7.171-2.943,14.772,1.126,23.243
		c3.728,7.759,7.513,15.498,11.394,23.183c-12.804,8.123-25.21,16.55-32.768,30.849c-4.823,9.126-4.913,16.899-0.267,25.068
		c4.277,7.521,11.33,9.96,19.975,9.216c3.411-0.293,6.679-0.873,9.976-1.872c10.829-3.278,20.309-9.314,30.185-14.525
		c6.446,10.491,13.54,20.316,23.573,27.49c7.824,5.595,14.16,6.543,20.43,3.037c5.772-3.227,7.18-9.654,5.867-17.948
		c-0.518-3.272-1.257-6.441-2.34-9.683c-2.803-8.398-6.934-16.19-11.033-23.994c1.463-0.977,2.924-1.957,4.386-2.936
		c14.953-10.009,26.363-22.321,28.301-40.936C426.036,163.274,423.972,155.413,417.572,153.55z"/>
	<path d="M234.819,161.846c0.038-8.649-2.796-16.266-9.348-17.485c-8.003-1.489-16.606-3.612-24.586,1.355
		c-8.764,5.456-17.52,10.944-26.077,16.715c-10.578-13.644-22.409-24.088-37.535-26.382c-7.221-1.095-13.313,0.605-13.719,6.545
		c-0.495,7.255-1.464,14.991,3.426,23.016c4.479,7.351,9.013,14.676,13.637,21.939c-11.935,9.352-23.445,18.968-29.548,33.947
		c-3.894,9.559-3.212,17.303,2.221,24.97c5.002,7.06,12.261,8.787,20.79,7.189c3.365-0.63,6.56-1.531,9.741-2.85
		c10.451-4.336,19.285-11.283,28.596-17.447c7.455,9.799,15.487,18.872,26.182,25.017c8.34,4.79,14.739,5.106,20.63,0.995
		c5.424-3.783,6.188-10.318,4.059-18.441c-0.84-3.206-1.89-6.284-3.289-9.403c-3.623-8.079-8.506-15.423-13.358-22.782
		c1.359-1.117,2.716-2.237,4.074-3.355C224.604,193.945,234.736,180.562,234.819,161.846z"/>
</g>
</svg>
