<?xml version="1.0" encoding="iso-8859-1"?>
<!-- Generator: Adobe Illustrator 25.4.1, SVG Export Plug-In . SVG Version: 6.00 Build 0)  -->
<svg version="1.1" id="Layer_1" xmlns="http://www.w3.org/2000/svg" xmlns:xlink="http://www.w3.org/1999/xlink" x="0px" y="0px"
	 width="500px" height="500px" viewBox="0 0 500 500" enable-background="new 0 0 500 500" xml:space="preserve">
<path d="M481.769,247.341c-2.357-2.639-6.641-7.052-10.565-5.527c-0.04,0.014-0.084,0.029-0.142,0.05
	c-0.862,0.309-1.711,0.64-2.587,0.913c-3.035,0.946-6.178,1.552-9.338,1.875c-10.337,1.059-20.157-1.239-29.199-5.827
	c-1.204-0.611-3.452-1.361-4.7-0.289c-1.244,1.069-0.848,3.411-0.421,4.69c1.218,3.643,3.792,7.227,6.934,9.788
	c-5.17,0.565-10.361,0.95-15.541,1.21c-8.472,0.427-16.96,0.511-25.441,0.368c-5.07-0.085-10.138-0.254-15.203-0.491
	c-2.696-0.126-5.391-0.272-8.086-0.436c-1.4-0.085-2.8-0.175-4.2-0.269c-0.309-0.021-1.287-0.089-1.58-0.109
	c-0.177-0.013-0.498-0.036-0.503-0.037c-0.519-0.039-1.039-0.077-1.559-0.116c-28.714-2.166-57.282-6.073-85.676-10.81
	c-29.65-4.946-59.67-7.888-89.741-8.136c-23.488-0.194-47.015,1.278-70.241,4.828c-17.339,2.65-34.525,6.453-51.271,11.692
	c-11.508,3.601-22.826,7.888-33.734,13.037c-4.672,2.205-9.82,4.422-14.022,7.489c-0.177,0.129-0.373,0.236-0.555,0.358
	c-1.338,0.896-0.749,3.592-0.421,4.69c0.731,2.442,2.431,5.048,4.105,6.922c2.083,2.333,7.303,7.815,10.925,5.389
	c2.996-2.007,6.241-3.692,9.447-5.33c3.84-1.962,7.759-3.749,11.706-5.482c0.283-0.119,0.566-0.24,0.849-0.359
	c0.619-0.26,1.24-0.517,1.862-0.772c1.357-0.556,2.718-1.099,4.085-1.631c2.9-1.129,5.82-2.205,8.757-3.232
	c15.385-5.38,31.221-9.445,47.23-12.47c21.768-4.114,43.887-6.293,66.025-6.912c28.09-0.786,55.809,0.934,83.594,4.659
	c16.244,2.178,32.369,5.149,48.593,7.468c13.999,2.001,28.037,3.737,42.113,5.098c21.374,2.067,42.884,3.404,64.366,3.004
	c8.993-0.167,18.016-0.634,26.967-1.66c-0.672,0.923-1.307,1.873-1.878,2.867c-1.22,2.124-2.145,4.479-2.585,6.895
	c-0.209,1.145-0.248,2.325,0.012,3.465c0.183,0.806,0.415,1.876,0.936,2.594c1.164,1.603,3.363,2.399,5.184,2.857
	c2.67,0.671,5.926,0.815,8.641,0.392c2.204-0.344,4.955-0.783,6.671-2.32c1.052-0.942,2.131-2.335,1.086-3.773
	c-0.066-0.092-0.115-0.198-0.166-0.301c-0.235-1.227-0.114-2.509,0.169-3.729c1.352-4.067,4.104-7.617,6.988-10.755
	c1.547-1.603,3.17-3.13,4.84-4.604c0.906-0.338,1.806-0.691,2.697-1.067c2.64-1.114,5.908-2.312,8.037-4.348
	c0.071-0.068,0.15-0.126,0.22-0.195C488.474,255.975,483.774,249.585,481.769,247.341z"/>
</svg>
