<?xml version="1.0" encoding="iso-8859-1"?>
<!-- Generator: Adobe Illustrator 25.4.1, SVG Export Plug-In . SVG Version: 6.00 Build 0)  -->
<svg version="1.1" id="Layer_1" xmlns="http://www.w3.org/2000/svg" xmlns:xlink="http://www.w3.org/1999/xlink" x="0px" y="0px"
	 width="500px" height="500px" viewBox="0 0 500 500" enable-background="new 0 0 500 500" xml:space="preserve">
<g>
	<path d="M185.956,228.489c1.508-0.542,2.991-1.153,4.503-1.682c6.682-2.331,12.709-5.943,18.51-9.87
		c5.131-3.471,9.875-7.431,14.109-12.067c3.934-4.307,7.872-8.574,10.814-13.611c3.75-6.419,6.274-13.392,5.82-20.861
		c-0.551-9.062-3.599-17.509-9.192-24.732c-5.396-6.967-12.129-12.427-20.429-15.728c-7.101-2.825-14.393-4.889-22.061-5.387
		c-4.262-0.277-8.549-0.127-12.577-2.093c-2.629-1.283-5.686-1.019-8.506-1.682c-1.203,0-2.407,0-3.61,0
		c-0.827,0.444-1.739,0.439-2.638,0.489c-15.823,0.892-30.377,5.783-43.872,13.97c-5.992,3.635-11.686,7.654-16.825,12.478
		c-6.945,6.518-12.778,13.801-16.719,22.522c-2.498,5.528-3.843,11.376-4.804,17.323c-2.055,12.704,1.597,23.598,10.711,32.604
		c6.955,6.872,15.519,10.895,24.87,13.36c8.992,2.369,18.228,2.609,27.433,2.762c4.785,0.08,9.581-0.541,14.365-1.021
		C166.178,234.228,176.204,231.992,185.956,228.489z M145.769,208.099c-4.966,0.238-9.926-0.011-14.829-0.743
		c-7.658-1.142-14.971-3.196-20.499-9.179c-1.835-1.986-2.895-4.197-2.933-6.991c-0.058-4.082,1.09-7.808,3-11.303
		c3.592-6.57,8.217-12.29,14.331-16.715c0.382-0.277,0.761-0.566,1.102-0.893c3.448-3.302,7.608-5.52,11.716-7.852
		c7.197-4.085,14.923-6.674,22.947-8.472c1.533-0.343,3.118-0.454,4.677-0.681c0.75-0.108,1.377-0.031,1.817,0.726
		c2.902,5.004,7.816,6.594,13.047,7.515c4.186,0.738,8.455,0.993,12.577,2.101c4.551,1.225,8.752,3.152,12.261,6.374
		c1.755,1.613,3.158,3.504,4.22,5.652c1.29,2.612,1.147,5.08-0.242,7.668c-3.408,6.344-8.042,11.612-13.456,16.306
		c-5.657,4.904-11.901,8.826-18.872,11.477c-4.113,1.565-8.39,2.689-12.779,3.36c-4.754,0.726-9.513,1.354-14.313,1.636
		C148.287,208.161,147.026,208.099,145.769,208.099z"/>
	<path d="M442.22,178.189c-2.043-2.676-4.233-5.151-6.765-7.528c-6.559-6.156-14.013-11.129-21.443-16.13
		c0.837-1.579,1.671-3.16,2.506-4.741c7.631-14.446,18.344-68.57-14.229-62.553c-17.801,3.288-27.356,21.927-36.31,36.307
		c-15.242-8.632-30.406-13.776-45.468-10.009c-7.199,1.8-12.244,5.78-10.3,11.508c2.376,6.997,4.497,14.628,12.223,20.238
		c7.077,5.138,14.196,10.231,21.376,15.23c-7.528,13.442-14.555,26.962-14.413,43.395c0.091,10.487,3.763,17.481,11.859,22.543
		c7.454,4.659,14.936,3.438,22.307-1.401c2.908-1.908,5.55-4.003,8.017-6.487c8.1-8.157,13.664-18.129,19.981-27.554
		c10.826,6.27,21.909,11.631,34.342,13.204c9.695,1.227,15.819-0.983,19.733-7.143C449.239,191.398,447.397,184.971,442.22,178.189z
		"/>
	<path d="M367.944,312.526c-4.76,8.559-11.512,17.956-21.025,26.546c-22.481,35.387-90.468,31.581-125.44,25.916
		c-1.424-0.231-2.852-0.42-4.273-0.679c-1.012-0.183-1.993-0.475-2.937-0.864c-41.384-10.187-44.571-34.051-44.571-34.051
		c-1.238-2.979-3.153-4.893-5.797-6.146c-4.551-2.155-7.824-0.491-8.945,4.715c-0.866,4.024-0.877,8.225,0.442,12.052
		c2.512,7.287,5.38,14.479,9.863,20.684c11.505,15.921,27.272,25.22,44.526,31.783c5.507,2.095,11.327,3.524,17.128,4.875
		c19.64,4.571,39.379,5.939,59.345,3.629c15.076-1.744,30.106-3.897,44.222-10.245c6.508-2.927,13.125-5.941,18.98-10.082
		C372.382,364.446,391.334,334.184,367.944,312.526z"/>
</g>
</svg>
