<?xml version="1.0" encoding="iso-8859-1"?>
<!-- Generator: Adobe Illustrator 25.4.1, SVG Export Plug-In . SVG Version: 6.00 Build 0)  -->
<svg version="1.1" id="Layer_1" xmlns="http://www.w3.org/2000/svg" xmlns:xlink="http://www.w3.org/1999/xlink" x="0px" y="0px"
	 width="500px" height="500px" viewBox="0 0 500 500" enable-background="new 0 0 500 500" xml:space="preserve">
<g>
	<g>
		<path d="M31.854,296.645c6.059-1.763,12.21-3.243,18.348-4.7c3.342-0.793,6.69-1.561,10.043-2.308
			c0.483-0.107,0.966-0.214,1.449-0.321c0.178-0.039,0.357-0.079,0.535-0.118c1.798-0.397-4.461,0.976-2.655,0.583
			c1.023-0.223,2.047-0.445,3.071-0.665c2.074-0.445,4.15-0.882,6.228-1.312c9.81-2.029,19.653-3.894,29.521-5.618
			c12.261-2.141,24.56-4.062,36.887-5.78c6.867-0.957,13.743-1.851,20.626-2.682c1.71-0.207,3.421-0.408,5.132-0.608
			c-4.197,0.492-0.869,0.102,0.12-0.011c1.049-0.119,2.099-0.237,3.149-0.353c3.748-0.415,7.498-0.812,11.25-1.191
			c34.02-3.437,68.191-5.399,102.38-5.879c19.462-0.274,38.931-0.064,58.382,0.641c10.094,0.366,20.182,0.865,30.263,1.499
			c2.444,0.154,4.887,0.316,7.33,0.486c1.228,0.085,2.455,0.173,3.682,0.262c0.152,0.011,2.591,0.193,0.873,0.063
			c0.74,0.056,1.48,0.112,2.22,0.17c5.221,0.405,10.438,0.846,15.653,1.324c5.283,0.485,10.563,1.009,15.839,1.569
			c3.016,0.32,5.887-0.27,8.819-1.012c4.583-1.16,9.283-2.857,13.562-4.856c3.297-1.539,7.142-3.104,9.788-5.65
			c0.601-0.578,3.179-3.12,0.709-3.382c-41.186-4.367-82.609-6.513-124.026-6.44c-35.29,0.063-70.578,1.714-105.721,4.93
			c-28.686,2.626-57.3,6.217-85.718,10.94c-19.85,3.299-39.599,7.184-59.21,11.69c-7.699,1.769-15.393,3.613-22.994,5.77
			c-0.098,0.028-0.197,0.056-0.295,0.085c-4.638,1.35-9.157,2.849-13.562,4.856c-3.051,1.39-7.287,3.245-9.788,5.65
			c-0.874,0.841-2.917,2.641-0.709,3.382C25.555,298.503,29.549,297.316,31.854,296.645L31.854,296.645z"/>
	</g>
	<g>
		<path d="M449.545,280.73c0.553,0,1.107,0,1.66,0c5.322,0,10.615-0.656,15.692-2.329c2.321-0.669,4.503-1.632,6.545-2.89
			c1.77-0.841,3.34-1.973,4.71-3.396c0.541-0.802,1.083-1.603,1.624-2.404c0.658-1.672,0.356-3.149-0.904-4.429
			c-0.812-0.525-1.624-1.05-2.437-1.575c-2.516-0.981-5.128-1.485-7.836-1.513c-0.553,0-1.107,0-1.66,0
			c-5.322,0-10.615,0.656-15.692,2.329c-2.321,0.669-4.503,1.632-6.545,2.89c-1.77,0.841-3.34,1.973-4.71,3.396
			c-0.541,0.802-1.083,1.603-1.624,2.404c-0.658,1.672-0.356,3.149,0.904,4.429c0.812,0.525,1.624,1.05,2.437,1.575
			C444.224,280.198,446.836,280.702,449.545,280.73c0.553,0,1.107,0,1.66,0c5.322,0,10.615-0.656,15.692-2.329
			c2.321-0.669,4.503-1.632,6.545-2.89c1.77-0.841,3.34-1.973,4.71-3.396c0.541-0.802,1.083-1.603,1.624-2.404
			c0.658-1.672,0.356-3.149-0.904-4.429c-0.812-0.525-1.624-1.05-2.437-1.575c-2.516-0.981-5.128-1.485-7.836-1.513
			c-0.553,0-1.107,0-1.66,0c-5.322,0-10.615,0.656-15.692,2.329c-2.321,0.669-4.503,1.632-6.545,2.89
			c-1.77,0.841-3.34,1.973-4.71,3.396c-0.541,0.802-1.083,1.603-1.624,2.404c-0.658,1.672-0.356,3.149,0.904,4.429
			c0.812,0.525,1.624,1.05,2.437,1.575C444.224,280.198,446.836,280.702,449.545,280.73L449.545,280.73z"/>
	</g>
</g>
</svg>
