<?xml version="1.0" encoding="iso-8859-1"?>
<!-- Generator: Adobe Illustrator 25.4.1, SVG Export Plug-In . SVG Version: 6.00 Build 0)  -->
<svg version="1.1" id="Layer_1" xmlns="http://www.w3.org/2000/svg" xmlns:xlink="http://www.w3.org/1999/xlink" x="0px" y="0px"
	 width="500px" height="500px" viewBox="0 0 500 500" enable-background="new 0 0 500 500" xml:space="preserve">
<path d="M328.032,303.884c-4.884-1.195-9.416-3.125-13.907-5.464c-6.628-3.453-11.787-8.205-15.739-14.435
	c-4.506-7.104-9.041-14.188-13.557-21.286c-0.538-0.845-0.969-1.764-1.556-2.571c-1.945-2.673-3.124-2.774-5.075-0.262
	c-5.895,7.585-11.46,15.443-17.651,22.775c-7.204,8.531-13.193,18.207-22.632,24.722c-5.29,3.651-10.444,7.491-17.122,8.263
	c-4.894,0.566-9.332-0.429-13.972-2.3c-10.703-4.315-17.241-12.816-23.406-21.752c-6.712-9.729-12.87-19.839-19.445-29.651
	c-7.347-10.965-14.495-22.117-22.917-32.338c-2.882-3.498-3.303-3.569-6.395-0.168c-12.806,14.086-26.13,27.686-38.732,41.971
	c-10.599,12.015-21.809,23.492-32.81,35.15c-1.64,1.738-3.487,3.345-5.456,4.695c-8.073,5.534-14.429,5.173-21.977-0.985
	c-1.346-1.098-2.093-2.325-2.017-4.102c0.209-4.878,1.24-9.355,4.35-13.405c10.129-13.189,20.228-26.397,30.808-39.232
	c11.597-14.069,23.196-28.137,34.654-42.319c4.431-5.484,9.591-10.178,14.666-15.01c4.366-4.158,9.586-5.925,15.32-5.88
	c14.326,0.113,26.32,4.831,35.619,16.602c10.495,13.285,18.946,27.686,26.947,42.506c4.171,7.726,9.293,14.955,13.498,22.701
	c1.434,2.641,2.674,5.391,4.176,7.99c2.917,5.049,3.886,5.143,7.836,1.065c4.36-4.501,7.249-10.069,10.782-15.155
	c9.715-13.983,19.253-28.096,28.525-42.376c4.693-7.228,10.704-9.718,19.273-9.09c13.324,0.977,22.24,7.537,28.73,18.76
	c5.821,10.067,11.064,20.413,16.315,30.77c4.287,8.455,5.056,8.636,11.615,2.118c8.662-8.609,17.431-17.1,25.764-26.053
	c9.682-10.403,19.984-20.228,30.006-30.315c1.126-1.134,2.251-2.282,3.251-3.526c1.09-1.356,0.784-2.593-0.662-3.545
	c-0.502-0.331-1.012-0.649-1.519-0.973c-7.541-4.831-8.601-12.097-2.785-18.908c1.696-1.986,3.386-3.982,5.621-5.381
	c10.375-6.491,20.911-12.759,32.548-16.695c7.892-2.669,16.007-1.593,23.487,1.611c8.22,3.521,11.281,10.948,12.232,19.358
	c1.83,16.181,1.447,32.4,0.689,48.62c-0.252,5.396-0.214,10.809-1.023,16.177c-0.312,2.074-0.582,3.999-3.059,4.583
	c-1.805,0.426-2.125,2.287-3.168,3.448c-2.955,3.291-5.939,3.383-10.211,2.032c-7.251-2.293-9.606-7.009-9.791-14.248
	c-0.209-8.171-1.493-16.314-2.315-24.468c-0.08-0.793-0.16-1.6-1.396-2.191c-4.329,2.15-7.581,6.093-11.008,9.522
	c-16.702,16.715-33.929,32.896-50.346,49.907c-9.032,9.358-18.768,18.098-30.668,23.918c-1.454,0.711-2.785,1.593-3.731,2.953
	C335.142,302.64,331.587,303.262,328.032,303.884z"/>
</svg>
