<?xml version="1.0" encoding="iso-8859-1"?>
<!-- Generator: Adobe Illustrator 25.4.1, SVG Export Plug-In . SVG Version: 6.00 Build 0)  -->
<svg version="1.1" id="Layer_1" xmlns="http://www.w3.org/2000/svg" xmlns:xlink="http://www.w3.org/1999/xlink" x="0px" y="0px"
	 width="500px" height="500px" viewBox="0 0 500 500" enable-background="new 0 0 500 500" xml:space="preserve">
<path d="M444.697,316.372c-6.397-7.705-13.18-14.894-20.93-21.878c-25.191-22.701-54.073-40.589-81.89-59.837
	c4.268-7.466,8.514-14.943,12.758-22.419c24.23-42.68,72.218-195.207-8.236-165.297c-46.16,17.16-77.545,76.865-105.974,120.678
	c-7.013-4.204-14.035-8.39-21.056-12.575c-47.163-28.107-93.396-46.518-137.469-38.905c-20.366,3.519-34.113,13.406-27.403,29.429
	c8.197,19.572,15.782,40.827,39.107,57.65c28.178,20.324,56.41,40.643,85.162,60.138c0.541,0.368,1.088,0.728,1.63,1.094
	c-25.067,42.287-49.813,84.251-56.639,131.839c-4.111,28.659,1.79,46.281,19.081,56.79c15.917,9.674,34.332,3.239,53.974-13.041
	c7.749-6.422,14.94-13.247,21.869-21.061c24.291-27.393,42.516-59.251,63.069-89.369c38.789,23.941,77.644,46.592,121.049,54.665
	c28.138,5.234,45.328,0.389,55.395-15.676C467.462,353.81,460.912,335.901,444.697,316.372z"/>
</svg>
