<?xml version="1.0" encoding="iso-8859-1"?>
<!-- Generator: Adobe Illustrator 25.4.1, SVG Export Plug-In . SVG Version: 6.00 Build 0)  -->
<svg version="1.1" id="Layer_1" xmlns="http://www.w3.org/2000/svg" xmlns:xlink="http://www.w3.org/1999/xlink" x="0px" y="0px"
	 width="500px" height="500px" viewBox="0 0 500 500" enable-background="new 0 0 500 500" xml:space="preserve">
<path d="M470.004,256.178c-4.681-13.577-10.025-26.979-18.378-38.539c-21.435-29.663-50.812-46.99-82.96-59.218
	c-10.261-3.903-21.104-6.566-31.913-9.081c-36.592-8.515-73.373-11.065-110.573-6.763c-28.09,3.249-56.095,7.263-82.395,19.091
	c-12.125,5.453-24.454,11.069-35.362,18.784c-45.812,32.406-83.16,94.951-23.667,135.497
	c64.852,44.197,145.675,52.891,219.971,36.603c18.943-4.153,37.865-8.386,55.668-16.913c5.313-2.544,11.425-3.68,16.109-7.122
	c12.125-8.909,24.241-18.051,33.851-30.209c7.596-9.611,12.255-20.395,10.172-33.559c-0.74-4.677-0.756-9.487-1.193-15.476
	c11.006,7.182,19.278,15.263,24.03,26.696c2.306,5.549,5.874,9.116,10.8,11.449c8.478,4.016,14.577,0.916,16.665-8.785
	C472.441,271.137,472.462,263.31,470.004,256.178z M108.629,266.09c6.591-13.916,16.287-24.429,29.978-30.363
	c1.53-0.663,2.977-1.546,5.838-3.049c7.011-4.255,16.126-7.007,25.241-10.032c36.244-12.03,73.493-16.913,111.182-17.842
	c24.766-0.61,49.497,1.657,73.976,6.11c4.493,0.817,8.77,2.468,12.151,6.146c8.214,8.936,18.113,13.743,29.933,13.84
	c2.405,0.02,5.528-0.261,6.552,2.556c1.409,3.875-2.134,5.163-4.326,6.964c-17.655,14.51-37.751,23.381-58.95,30.022
	c-13.093,4.102-26.121,8.287-39.419,11.673c-30.833,7.85-62.172,8.494-93.561,8.765c-26.961,0.233-53.613-3.302-80.074-8.566
	c-4.855-0.966-9.711-2.322-14.326-4.183C105.994,275.376,105.267,273.188,108.629,266.09z"/>
</svg>
