<?xml version="1.0" encoding="iso-8859-1"?>
<!-- Generator: Adobe Illustrator 25.4.1, SVG Export Plug-In . SVG Version: 6.00 Build 0)  -->
<svg version="1.1" id="Layer_1" xmlns="http://www.w3.org/2000/svg" xmlns:xlink="http://www.w3.org/1999/xlink" x="0px" y="0px"
	 width="500px" height="500px" viewBox="0 0 500 500" enable-background="new 0 0 500 500" xml:space="preserve">
<g>
	<path d="M204.962,210.688c-0.663,2.82-0.399,5.877-1.682,8.506c-1.966,4.027-1.815,8.315-2.092,12.577
		c-0.498,7.668-2.563,14.961-5.387,22.061c-3.301,8.3-8.761,15.033-15.728,20.429c-7.222,5.593-15.669,8.641-24.732,9.192
		c-7.469,0.454-14.442-2.07-20.862-5.82c-5.036-2.942-9.303-6.879-13.61-10.813c-4.637-4.234-8.596-8.978-12.068-14.11
		c-3.925-5.802-7.538-11.828-9.869-18.51c-0.528-1.513-1.14-2.996-1.681-4.503c-3.503-9.752-5.739-19.778-6.775-30.098
		c-0.48-4.784-1.101-9.579-1.021-14.365c0.154-9.205,0.394-18.441,2.763-27.433c2.464-9.352,6.487-17.915,13.359-24.87
		c9.005-9.114,19.899-12.766,32.604-10.711c5.946,0.962,11.794,2.306,17.322,4.804c8.722,3.942,16.005,9.774,22.522,16.719
		c4.824,5.14,8.842,10.833,12.477,16.825c8.187,13.495,13.078,28.049,13.97,43.872c0.051,0.898,0.046,1.81,0.489,2.637
		C204.962,208.282,204.962,209.485,204.962,210.688z M117.642,189.509c0,1.258-0.063,2.519,0.011,3.772
		c0.282,4.8,0.91,9.559,1.636,14.312c0.67,4.389,1.795,8.666,3.36,12.78c2.651,6.971,6.573,13.215,11.477,18.872
		c4.694,5.415,9.962,10.049,16.306,13.456c2.588,1.39,5.057,1.532,7.669,0.242c2.149-1.061,4.04-2.465,5.652-4.22
		c3.222-3.508,5.15-7.71,6.374-12.26c1.109-4.122,1.365-8.391,2.102-12.576c0.921-5.233,2.512-10.146,7.515-13.048
		c0.758-0.439,0.835-1.067,0.726-1.817c-0.226-1.56-0.338-3.144-0.681-4.677c-1.798-8.024-4.387-15.751-8.472-22.947
		c-2.332-4.108-4.549-8.268-7.852-11.717c-0.326-0.34-0.616-0.719-0.892-1.102c-4.425-6.114-10.146-10.739-16.715-14.331
		c-3.495-1.911-7.221-3.058-11.303-3.001c-2.794,0.039-5.006,1.099-6.991,2.933c-5.984,5.528-8.037,12.842-9.179,20.499
		C117.654,179.583,117.405,184.543,117.642,189.509z"/>
	<path d="M416.834,210.688c-0.662,2.82-0.399,5.877-1.682,8.506c-1.966,4.027-1.815,8.315-2.092,12.577
		c-0.498,7.668-2.563,14.961-5.387,22.061c-3.301,8.3-8.761,15.033-15.728,20.429c-7.222,5.593-15.669,8.641-24.732,9.192
		c-7.469,0.454-14.442-2.07-20.862-5.82c-5.036-2.942-9.303-6.879-13.61-10.813c-4.637-4.234-8.596-8.978-12.068-14.11
		c-3.925-5.802-7.538-11.828-9.87-18.51c-0.528-1.513-1.14-2.996-1.681-4.503c-3.503-9.752-5.739-19.778-6.775-30.098
		c-0.48-4.784-1.101-9.579-1.021-14.365c0.154-9.205,0.394-18.441,2.763-27.433c2.464-9.352,6.487-17.915,13.359-24.87
		c9.005-9.114,19.899-12.766,32.604-10.711c5.946,0.962,11.794,2.306,17.322,4.804c8.722,3.942,16.005,9.774,22.522,16.719
		c4.824,5.14,8.842,10.833,12.477,16.825c8.187,13.495,13.078,28.049,13.97,43.872c0.051,0.898,0.046,1.81,0.489,2.637
		C416.834,208.282,416.834,209.485,416.834,210.688z M329.514,189.509c0,1.258-0.063,2.519,0.011,3.772
		c0.282,4.8,0.91,9.559,1.636,14.312c0.67,4.389,1.795,8.666,3.36,12.78c2.651,6.971,6.573,13.215,11.477,18.872
		c4.694,5.415,9.962,10.049,16.306,13.456c2.588,1.39,5.057,1.532,7.669,0.242c2.148-1.061,4.04-2.465,5.652-4.22
		c3.222-3.508,5.15-7.71,6.374-12.26c1.109-4.122,1.365-8.391,2.102-12.576c0.921-5.233,2.512-10.146,7.515-13.048
		c0.758-0.439,0.835-1.067,0.726-1.817c-0.226-1.56-0.338-3.144-0.681-4.677c-1.798-8.024-4.387-15.751-8.472-22.947
		c-2.332-4.108-4.549-8.268-7.852-11.717c-0.326-0.34-0.616-0.719-0.892-1.102c-4.425-6.114-10.146-10.739-16.715-14.331
		c-3.495-1.911-7.221-3.058-11.303-3.001c-2.794,0.039-5.006,1.099-6.991,2.933c-5.984,5.528-8.037,12.842-9.179,20.499
		C329.525,179.583,329.277,184.543,329.514,189.509z"/>
	<path d="M386.652,371.296c-2.974-7.111-6.296-14.106-11.167-20.011c-12.5-15.151-28.829-23.423-46.468-28.869
		c-5.63-1.738-11.529-2.792-17.405-3.768c-19.892-3.304-39.679-3.407-59.456,0.175c-14.934,2.705-29.795,5.817-43.476,13.055
		c-6.307,3.337-12.718,6.769-18.295,11.275c-21.835,17.646-38.811,49.059-14.083,69.176c4.202-8.847,10.34-18.656,19.282-27.837
		c20.17-36.753,88.262-37.305,123.525-33.889c1.436,0.139,2.873,0.236,4.308,0.403c1.021,0.119,2.019,0.347,2.986,0.675
		c41.951,7.518,46.658,31.13,46.658,31.13c1.426,2.893,3.459,4.681,6.178,5.761c4.679,1.86,7.839-0.01,8.624-5.278
		C388.471,379.224,388.214,375.031,386.652,371.296z"/>
</g>
</svg>
