<?xml version="1.0" encoding="iso-8859-1"?>
<!-- Generator: Adobe Illustrator 25.4.1, SVG Export Plug-In . SVG Version: 6.00 Build 0)  -->
<svg version="1.1" id="Layer_1" xmlns="http://www.w3.org/2000/svg" xmlns:xlink="http://www.w3.org/1999/xlink" x="0px" y="0px"
	 width="500px" height="500px" viewBox="0 0 500 500" enable-background="new 0 0 500 500" xml:space="preserve">
<g>
	<path d="M431.733,194.811c-2.041-2.677-4.232-5.153-6.764-7.529c-6.56-6.157-14.014-11.129-21.443-16.129
		c0.836-1.581,1.671-3.161,2.505-4.742c7.632-14.446,18.344-68.569-14.228-62.553c-17.802,3.288-27.356,21.926-36.311,36.306
		c-15.242-8.632-30.405-13.776-45.467-10.009c-7.2,1.8-12.246,5.78-10.3,11.508c2.376,6.997,4.496,14.628,12.223,20.238
		c7.077,5.139,14.196,10.231,21.374,15.23c-7.528,13.442-14.555,26.964-14.411,43.396c0.091,10.486,3.762,17.48,11.859,22.542
		c7.453,4.659,14.936,3.438,22.306-1.401c2.908-1.908,5.551-4.003,8.017-6.487c8.102-8.157,13.664-18.129,19.981-27.554
		c10.826,6.27,21.91,11.631,34.343,13.204c9.695,1.227,15.818-0.983,19.733-7.143C438.753,208.02,436.91,201.593,431.733,194.811z"
		/>
	<path d="M206.327,228.746c9.695,1.226,15.819-0.983,19.733-7.143c3.603-5.671,1.762-12.098-3.415-18.88
		c-2.043-2.676-4.233-5.153-6.765-7.529c-6.559-6.156-14.013-11.129-21.443-16.129c0.836-1.579,1.671-3.161,2.506-4.742
		c7.603-14.391,12.914-43.596,2.139-57.562c-18.026-23.365-43.022,16.118-52.67,31.321c-15.246-8.635-30.411-13.782-45.477-10.014
		c-7.2,1.8-12.244,5.779-10.3,11.508c2.376,6.996,4.497,14.628,12.223,20.237c7.077,5.139,14.196,10.232,21.376,15.23
		c-7.528,13.442-14.556,26.964-14.413,43.396c0.091,10.487,3.763,17.481,11.859,22.543c7.454,4.659,14.936,3.437,22.307-1.401
		c2.908-1.908,5.55-4.003,8.017-6.487c8.1-8.157,13.663-18.129,19.981-27.554C182.811,221.81,193.894,227.173,206.327,228.746z"/>
	<path d="M385.592,319.8c-3.951,8.961-9.809,18.94-18.489,28.37c-19.124,37.308-87.174,39.782-122.518,37.364
		c-1.439-0.099-2.879-0.155-4.318-0.281c-1.024-0.091-2.028-0.29-3.003-0.591c-42.147-6.33-47.519-29.799-47.519-29.799
		c-1.506-2.851-3.59-4.582-6.338-5.585c-4.729-1.727-7.835,0.231-8.471,5.519c-0.492,4.086-0.117,8.27,1.549,11.96
		c3.173,7.024,6.692,13.922,11.728,19.686c12.923,14.792,29.479,22.601,47.265,27.546c5.676,1.578,11.604,2.466,17.504,3.275
		c19.977,2.741,39.76,2.285,59.427-1.854c14.851-3.126,29.619-6.656,43.09-14.278c6.21-3.513,12.522-7.125,17.97-11.787
		C394.797,371.091,410.879,339.21,385.592,319.8z"/>
</g>
</svg>
