<?xml version="1.0" encoding="iso-8859-1"?>
<!-- Generator: Adobe Illustrator 25.4.1, SVG Export Plug-In . SVG Version: 6.00 Build 0)  -->
<svg version="1.1" id="Layer_1" xmlns="http://www.w3.org/2000/svg" xmlns:xlink="http://www.w3.org/1999/xlink" x="0px" y="0px"
	 width="500px" height="500px" viewBox="0 0 500 500" enable-background="new 0 0 500 500" xml:space="preserve">
<path d="M491.275,235.669c-1.614-2.31-3.55-4.585-5.913-6.152c-1.44-0.955-3.618-2.48-5.447-2.019
	c-5.193,1.308-10.607,2.004-15.941,2.346c-2.261,0.145-4.527,0.208-6.792,0.165c-0.562-0.011-1.124-0.028-1.686-0.052
	c-0.337-0.014-0.675-0.032-1.012-0.052c-1.211-0.102-2.42-0.237-3.622-0.417c-2.424-0.364-4.755-0.963-7.1-1.662
	c-0.051-0.015-0.086-0.025-0.127-0.037c-0.03-0.014-0.051-0.024-0.085-0.039c-0.497-0.224-1-0.426-1.493-0.662
	c-0.442-0.211-0.87-0.447-1.305-0.671c-0.102-0.074-0.222-0.159-0.386-0.272c-2.261-1.56-7.952-3.77-7.473,1.191
	c0.366,3.782,3.026,7.681,6.009,10.481c-5.716,1.406-11.433,2.807-17.155,4.187c-18.404,4.44-36.839,8.75-55.318,12.865
	c-18.905,4.21-37.856,8.234-56.892,11.813c-14.538,2.734-29.159,5.316-43.874,6.927c5.555-3.306,11.291-6.32,17.044-9.25
	c5.275-2.686,10.701-5.099,15.944-7.841c2.858-1.495,5.543-3.541,5.482-7.075c-0.105-5.993-5.773-12.039-10.419-15.196
	c-5.346-3.632-11.994-4.893-18.288-5.758c-8.701-1.196-17.544-1.658-26.309-2.089c-21.442-1.052-42.958-0.592-64.342,1.277
	c-43.012,3.759-85.723,13.129-125.989,28.807c-9.64,3.754-19.145,7.867-28.472,12.343c-1.382,0.663-0.67,3.775-0.415,4.627
	c0.721,2.409,2.399,4.98,4.049,6.829c2.409,2.698,6.8,7.226,10.778,5.316c38.533-18.491,80.218-30.278,122.426-36.608
	c21.407-3.211,43.034-4.984,64.679-5.291c10.656-0.151,21.317,0.059,31.958,0.644c3.24,0.178,6.494,0.364,9.754,0.61
	c-8.049,3.985-16.055,8.112-23.744,12.762c-4.378,2.648-8.969,5.44-12.578,9.118c-3.62,3.689-4.233,7.458-1.898,12.227
	c3.163,6.459,9.386,11.833,16.594,12.973c4.731,0.749,9.637,0.636,14.404,0.373c14.327-0.791,28.593-3.18,42.709-5.648
	c18.607-3.253,37.118-7.054,55.578-11.05c18.926-4.097,37.8-8.431,56.639-12.908c11.014-2.617,22.013-5.301,33.004-8.014
	c-1.211,1.477-2.331,3.025-3.286,4.687c-1.204,2.096-2.116,4.419-2.55,6.802c-0.206,1.13-0.244,2.294,0.012,3.419
	c0.181,0.795,0.409,1.851,0.923,2.559c1.148,1.581,3.318,2.367,5.114,2.818c2.634,0.662,5.846,0.804,8.525,0.387
	c2.175-0.339,4.888-0.773,6.582-2.289c1.037-0.929,2.102-2.303,1.072-3.723c-0.066-0.09-0.113-0.195-0.164-0.297
	c-0.232-1.211-0.112-2.475,0.166-3.679c1.334-4.012,4.049-7.514,6.893-10.609c2.854-2.957,5.949-5.665,9.165-8.222
	c1.389-0.357,2.779-0.708,4.167-1.068c0.348-0.09,0.696-0.18,1.044-0.271C496.208,244.183,492.761,237.794,491.275,235.669z"/>
</svg>
