<?xml version="1.0" encoding="iso-8859-1"?>
<!-- Generator: Adobe Illustrator 25.4.1, SVG Export Plug-In . SVG Version: 6.00 Build 0)  -->
<svg version="1.1" id="Layer_1" xmlns="http://www.w3.org/2000/svg" xmlns:xlink="http://www.w3.org/1999/xlink" x="0px" y="0px"
	 width="500px" height="500px" viewBox="0 0 500 500" enable-background="new 0 0 500 500" xml:space="preserve">
<g>
	<path d="M213.097,281.231c0.028-0.18,0.066-0.437,0.116-0.787c-0.013,0.071-0.025,0.141-0.037,0.211
		C213.149,280.847,213.12,281.038,213.097,281.231z"/>
	<path d="M386.867,234.11c-0.997,2.472-1.414,5.254-1.332,7.906c0.083,2.682,0.422,5.394,1.514,7.873
		c0.581,1.319,1.269,2.596,1.964,3.857c2.103,3.813,4.384,7.526,6.943,11.051c0.476,0.655,0.963,1.302,1.455,1.944
		c-6.422-2.003-12.758-4.279-18.985-6.824c-6.845-2.797-13.547-5.898-20.464-8.523c-24.745-9.387-50.773-15.417-77.169-17.436
		c-11.358-0.869-22.873-0.892-34.162,0.766c-9.611,1.411-19.552,4.004-27.947,9.031c-8.834,5.291-15.184,12.828-18.831,22.442
		c-4.175,11.005-3.071,23.465-0.283,34.639c1.706,6.839,4.409,13.442,7.403,19.807c1.072,2.28,2.234,4.508,3.42,6.727
		c-8.683-1.35-17.229-5.163-25.144-8.599c-1.458-0.633-2.91-1.278-4.358-1.933c-0.349-0.158-0.698-0.317-1.046-0.476
		c-0.04-0.018-0.095-0.043-0.156-0.071c-0.152-0.07-0.296-0.137-0.376-0.174c-0.447-0.208-0.894-0.417-1.34-0.627
		c-3.189-1.499-6.358-3.039-9.513-4.609c-6.717-3.342-13.368-6.817-19.975-10.371c-13.503-7.264-26.829-14.858-40.049-22.625
		c-10.701-6.288-21.331-12.696-31.895-19.209c-5.01-3.089-9.935-6.337-14.986-9.358c-0.069-0.041-0.136-0.086-0.204-0.129
		c-4.409-2.811-9.052,0.594-10.226,5.145c-1.275,4.94-0.226,11.885,4.455,14.87c2.844,1.813,5.704,3.6,8.567,5.383
		c7.405,4.613,14.845,9.168,22.317,13.67c10.137,6.108,20.333,12.12,30.604,18c11.178,6.4,22.443,12.653,33.855,18.626
		c10.91,5.71,21.963,11.186,33.276,16.059c7.766,3.345,15.845,6.703,24.208,8.213c7.017,1.267,15.006,1.154,18.735-6.098
		c5.832-11.342-2.006-23.001-6.895-32.919c-0.493-0.999-0.973-2.004-1.439-3.016c-0.377-0.817-0.75-2.386-1.348-3.084
		c-0.102-0.256-0.205-0.512-0.305-0.77c-0.382-0.986-0.748-1.979-1.097-2.977c-0.615-1.761-1.176-3.54-1.67-5.339
		c-0.234-0.85-0.452-1.705-0.654-2.563c-0.026-0.112-0.051-0.224-0.076-0.336c-0.271-1.553-0.505-3.109-0.654-4.679
		c-0.07-0.738-0.123-1.478-0.159-2.219c0.023-1.305,0.1-2.609,0.251-3.905c0.001-0.005,0.002-0.011,0.002-0.016
		c-0.117,0.763-0.045,0.159,0.08-0.576c0.067-0.465,0.14-0.93,0.205-1.396c-0.067,0.48-0.123,0.868-0.168,1.185
		c0.05-0.278,0.104-0.558,0.158-0.775c0.281-1.144,0.64-2.257,1.029-3.366c0.268-0.579,0.552-1.151,0.856-1.713
		c0.537-0.993,1.349-1.934,1.862-2.938c0.384-0.471,0.783-0.931,1.193-1.379c0.86-0.94,1.775-1.83,2.734-2.669
		c0.384-0.336,0.78-0.657,1.175-0.98c0.127-0.092,0.253-0.185,0.382-0.275c2.248-1.572,4.651-2.917,7.137-4.074
		c2.293-1.067,4.659-1.961,7.063-2.742c11.398-3.315,23.451-4.156,35.269-3.934c3.595,0.068,7.186,0.251,10.772,0.517
		c20.946,1.788,41.677,6.392,61.622,12.976c11.221,3.705,21.892,8.509,32.826,12.938c1.782,0.722,3.574,1.421,5.374,2.101
		c-5.383,2.909-10.449,6.348-15.348,10.096c-1.796,1.373-2.681,4.975-2.856,7.02c-0.23,2.678,0.315,6.118,1.72,8.461
		c1.161,1.935,2.855,4.123,5.215,4.588c2.396,0.472,3.989-0.327,5.882-1.775c-1.387,1.061,0.363-0.257,0.662-0.474
		c0.594-0.43,1.192-0.854,1.795-1.272c1.172-0.812,2.362-1.598,3.569-2.357c2.376-1.495,4.818-2.885,7.32-4.158
		c4.107-2.09,8.37-3.841,12.752-5.261c7.278-2.113,14.829-3.27,22.401-3.254c4.548,0.734,9.135,1.286,13.719,1.494
		c1.101,0.05,2.277-0.615,3.256-1.486c0.627,0.103,1.253,0.209,1.883,0.293c1.598,0.215,2.943-2.276,3.397-3.308
		c0.494-1.158,0.815-2.359,0.963-3.602c0.3-1.415,0.422-2.85,0.369-4.303c-0.081-2.615-0.315-5.505-1.514-7.873
		c-0.763-1.506-1.636-2.981-3.473-3.228c-2.868-0.386-5.7-0.981-8.484-1.77c-7.667-2.391-14.775-6.315-21.047-11.321
		c-1.486-1.186-2.916-2.439-4.31-3.732c-4.849-4.7-9.128-9.983-12.786-15.656c-0.632-0.981-1.24-1.976-1.834-2.98
		c-0.726-1.292-1.42-2.604-2.043-3.947c-0.046-0.098-0.091-0.196-0.135-0.296c-0.556-1.261-1.81-3.247-3.473-3.228
		C388.611,230.821,387.381,232.835,386.867,234.11z M215.46,327.439c-0.018,0.009-0.038,0.016-0.056,0.025
		c-0.065,0.012-0.13,0.025-0.195,0.036C216.268,326.397,216.435,326.944,215.46,327.439z M216.554,272.365
		c0.029-0.036,0.058-0.073,0.086-0.109C216.266,272.742,215.965,273.102,216.554,272.365z"/>
</g>
</svg>
